*
%LPD*%
%LNKIMONO2-L1*%
%FSLAX25Y25*%
%MOIN*%
%AD*%
%AD*%
%ADD25R,0.06X0.06*%
%ADD26C,0.06*%
%ADD33R,0.062990157X0.062990157*%
%ADD38C,0.012*%
%ADD39C,0.015*%
%ADD40C,0.01*%
%ADD41R,0.064959843X0.064959843*%
%ADD42C,0.064959843*%
%ADD61C,0.059059843*%
%ADD65C,0.062990157*%
%ADD66C,0.036*%
%ADD68C,0.070870079*%
%ADD98R,0.043309843X0.043309843*%
%ADD99C,0.043309843*%
%ADD102R,0.047240157X0.118109843*%
%ADD103C,0.314959843*%
G54D25*
%SRX1Y1I0.0J0.0*%
G1X85802Y131978D3*
G54D26*
G1X85802Y305206D3*
G54D33*
G1X73280Y89293D3*
G1X98880Y105867D2*
G54D38*
G1X98980Y105767D1*
G1X103080Y10567D2*
G75*
G3X103080Y10567I-3900J0D1*
G1X76980Y10467D2*
G3X76980Y10467I-3900J0D1*
G1X103828Y38167D2*
G3X103828Y38167I-17848J0D1*
G1X90902Y305206D2*
G3X90902Y305206I-5100J0D1*
G74*
G1X107780Y93985D2*
G1X107780Y108277D1*
G1X102163Y108020D2*
G75*
G3X107780Y108277I2617J4323D1*
G1X96230Y103002D2*
G3X102163Y108020I2750J2765D1*
G74*
G1X96230Y103002D2*
G1X95646Y102810D1*
G1X95604Y97274D2*
G75*
G3X95646Y102810I-3224J2793D1*
G74*
G1X95604Y97274D2*
G1X96550Y96917D1*
G1X98280Y96917D1*
G1X99028Y96817D2*
G75*
G3X98280Y96917I-748J-2750D1*
G74*
G1X99028Y96817D2*
G1X100217Y96817D1*
G1X101861Y97304D1*
G1X107780Y93985D2*
G75*
G3X101861Y97304I-3900J-18D1*
G74*
G1X107780Y116408D2*
G1X107780Y321518D1*
G1X104244Y325054D1*
G1X101829Y325054D1*
G1X95735Y318961D1*
G1X82631Y318961D1*
G1X75327Y326265D1*
G1X75327Y343597D1*
G1X77717Y348867D1*
G1X94179Y348867D1*
G1X106093Y344805D1*
G1X106093Y365067D1*
G1X69554Y365067D1*
G75*
G3X63180Y359726I0J-6474D1*
G74*
G1X63180Y7308D1*
G75*
G3X69554Y1967I6374J1133D1*
G74*
G1X101306Y1967D1*
G75*
G3X107780Y8441I0J6474D1*
G74*
G1X107780Y67726D1*
G1X107780Y75857D2*
G75*
G3X107780Y67726I-3000J-4066D1*
G74*
G1X107780Y75857D2*
G1X107780Y93949D1*
G1X101861Y90630D2*
G75*
G3X107780Y93949I2019J3337D1*
G74*
G1X101861Y90630D2*
G1X100217Y91117D1*
G1X98380Y91117D1*
G1X97632Y91217D2*
G75*
G3X98380Y91117I748J2750D1*
G74*
G1X97632Y91217D2*
G1X96550Y91217D1*
G1X94804Y90557D1*
G1X89348Y97067D2*
G75*
G3X94804Y90557I3032J-3000D1*
G1X89088Y102779D2*
G3X89348Y97067I3292J-2712D1*
G74*
G1X89088Y102779D2*
G1X87630Y103217D1*
G1X84961Y103217D1*
G1X84769Y103026D1*
G1X82754Y102191D2*
G75*
G3X84769Y103026I0J2850D1*
G74*
G1X82754Y102191D2*
G1X80088Y102191D1*
G1X76864Y101003D1*
G1X77601Y94186D2*
G75*
G3X76864Y101003I-4321J2981D1*
G1X78530Y92443D2*
G3X77601Y94186I-2100J0D1*
G74*
G1X78530Y92443D2*
G1X78530Y86143D1*
G1X77731Y84495D2*
G75*
G3X78530Y86143I-1301J1648D1*
G1X68829Y84495D2*
G3X77731Y84495I4451J-3470D1*
G1X68030Y86143D2*
G3X68829Y84495I2100J0D1*
G74*
G1X68030Y86143D2*
G1X68030Y92443D1*
G1X68959Y94186D2*
G75*
G3X68030Y92443I1171J-1743D1*
G1X69807Y101104D2*
G3X68959Y94186I3473J-3937D1*
G1X69738Y108916D2*
G3X69807Y101104I3542J-3875D1*
G1X72332Y118872D2*
G3X69738Y108916I948J-5563D1*
G1X77351Y123562D2*
G3X72332Y118872I-3771J-995D1*
G74*
G1X77351Y123562D2*
G1X78398Y121779D1*
G1X79561Y120617D1*
G1X86680Y120617D1*
G1X88695Y119782D2*
G75*
G3X86680Y120617I-2015J-2015D1*
G74*
G1X88695Y119782D2*
G1X92145Y116332D1*
G1X94545Y116332D1*
G1X96645Y114232D2*
G75*
G3X94545Y116332I-2100J0D1*
G74*
G1X96645Y114232D2*
G1X96645Y109902D1*
G1X96467Y109054D2*
G75*
G3X96645Y109902I-1922J846D1*
G74*
G1X96467Y109054D2*
G1X96745Y108963D1*
G1X100818Y109207D2*
G75*
G3X96745Y108963I-1838J-3440D1*
G1X107780Y116408D2*
G3X100818Y109207I-3000J-4065D1*
G1X103080Y10567D2*
G3X103080Y10567I-3900J0D1*
G74*
G1X94379Y16513D2*
G1X94379Y4702D1*
G1X92279Y2602D2*
G75*
G3X94379Y4702I0J2100D1*
G74*
G1X92279Y2602D2*
G1X87555Y2602D1*
G1X85455Y4702D2*
G75*
G3X87555Y2602I2100J0D1*
G74*
G1X85455Y4702D2*
G1X85455Y16513D1*
G1X87555Y18613D2*
G75*
G3X85455Y16513I0J-2100D1*
G74*
G1X87555Y18613D2*
G1X92279Y18613D1*
G1X94379Y16513D2*
G75*
G3X92279Y18613I-2100J0D1*
G1X76980Y10467D2*
G3X76980Y10467I-3900J0D1*
G1X103828Y38167D2*
G3X103828Y38167I-17848J0D1*
G1X89813Y74469D2*
G3X85782Y78500I-133J3898D1*
G74*
G1X89813Y74469D2*
G1X89230Y73886D1*
G1X89230Y73606D1*
G1X88395Y71591D2*
G75*
G3X89230Y73606I-2015J2015D1*
G74*
G1X88395Y71591D2*
G1X86505Y69701D1*
G1X86505Y59821D1*
G1X84405Y57721D2*
G75*
G3X86505Y59821I0J2100D1*
G74*
G1X84405Y57721D2*
G1X79681Y57721D1*
G1X77581Y59821D2*
G75*
G3X79681Y57721I2100J0D1*
G74*
G1X77581Y59821D2*
G1X77581Y71632D1*
G1X79681Y73732D2*
G75*
G3X77581Y71632I0J-2100D1*
G74*
G1X79681Y73732D2*
G1X82475Y73732D1*
G1X83530Y74787D1*
G1X83530Y75067D1*
G1X84365Y77082D2*
G75*
G3X83530Y75067I2015J-2015D1*
G74*
G1X84365Y77082D2*
G1X85782Y78500D1*
G1X90902Y134978D2*
G1X90902Y128978D1*
G1X88802Y126878D2*
G75*
G3X90902Y128978I0J2100D1*
G74*
G1X88802Y126878D2*
G1X82802Y126878D1*
G1X80702Y128978D2*
G75*
G3X82802Y126878I2100J0D1*
G74*
G1X80702Y128978D2*
G1X80702Y134978D1*
G1X82802Y137078D2*
G75*
G3X80702Y134978I0J-2100D1*
G74*
G1X82802Y137078D2*
G1X88802Y137078D1*
G1X90902Y134978D2*
G75*
G3X88802Y137078I-2100J0D1*
G1X90902Y305206D2*
G3X90902Y305206I-5100J0D1*
G74*
G1X98228Y360815D2*
G1X98228Y354319D1*
G1X96128Y352219D2*
G75*
G3X98228Y354319I0J2100D1*
G74*
G1X96128Y352219D2*
G1X89632Y352219D1*
G1X87532Y354319D2*
G75*
G3X89632Y352219I2100J0D1*
G74*
G1X87532Y354319D2*
G1X87532Y354668D1*
G1X87532Y360466D2*
G75*
G3X87532Y354668I-4495J-2899D1*
G74*
G1X87532Y360466D2*
G1X87532Y360815D1*
G1X89632Y362915D2*
G75*
G3X87532Y360815I0J-2100D1*
G74*
G1X89632Y362915D2*
G1X96128Y362915D1*
G1X98228Y360815D2*
G75*
G3X96128Y362915I-2100J0D1*
G74*
G1X97820Y321046D2*
G1X107780Y321046D1*
G1X96740Y319966D2*
G1X107780Y319966D1*
G1X63180Y318886D2*
G1X107780Y318886D1*
G1X63180Y317806D2*
G1X107780Y317806D1*
G1X63180Y316726D2*
G1X107780Y316726D1*
G1X63180Y315646D2*
G1X107780Y315646D1*
G1X63180Y314566D2*
G1X107780Y314566D1*
G1X63180Y313486D2*
G1X107780Y313486D1*
G1X63180Y312406D2*
G1X107780Y312406D1*
G1X63180Y311326D2*
G1X107780Y311326D1*
G1X86587Y310246D2*
G1X107780Y310246D1*
G1X89017Y309166D2*
G1X107780Y309166D1*
G1X90012Y308086D2*
G1X107780Y308086D1*
G1X90574Y307006D2*
G1X107780Y307006D1*
G1X90851Y305926D2*
G1X107780Y305926D1*
G1X90889Y304846D2*
G1X107780Y304846D1*
G1X90694Y303766D2*
G1X107780Y303766D1*
G1X90236Y302686D2*
G1X107780Y302686D1*
G1X89414Y301606D2*
G1X107780Y301606D1*
G1X87827Y300526D2*
G1X107780Y300526D1*
G1X63180Y299446D2*
G1X107780Y299446D1*
G1X63180Y298366D2*
G1X107780Y298366D1*
G1X63180Y297286D2*
G1X107780Y297286D1*
G1X63180Y296206D2*
G1X107780Y296206D1*
G1X63180Y295126D2*
G1X107780Y295126D1*
G1X63180Y294046D2*
G1X107780Y294046D1*
G1X63180Y292966D2*
G1X107780Y292966D1*
G1X63180Y291886D2*
G1X107780Y291886D1*
G1X63180Y290806D2*
G1X107780Y290806D1*
G1X63180Y289726D2*
G1X107780Y289726D1*
G1X63180Y288646D2*
G1X107780Y288646D1*
G1X63180Y287566D2*
G1X107780Y287566D1*
G1X63180Y286486D2*
G1X107780Y286486D1*
G1X63180Y285406D2*
G1X107780Y285406D1*
G1X63180Y284326D2*
G1X107780Y284326D1*
G1X63180Y283246D2*
G1X107780Y283246D1*
G1X63180Y282166D2*
G1X107780Y282166D1*
G1X63180Y281086D2*
G1X107780Y281086D1*
G1X63180Y280006D2*
G1X107780Y280006D1*
G1X63180Y278926D2*
G1X107780Y278926D1*
G1X63180Y277846D2*
G1X107780Y277846D1*
G1X63180Y276766D2*
G1X107780Y276766D1*
G1X63180Y275686D2*
G1X107780Y275686D1*
G1X63180Y274606D2*
G1X107780Y274606D1*
G1X63180Y273526D2*
G1X107780Y273526D1*
G1X63180Y272446D2*
G1X107780Y272446D1*
G1X63180Y271366D2*
G1X107780Y271366D1*
G1X63180Y270286D2*
G1X107780Y270286D1*
G1X63180Y269206D2*
G1X107780Y269206D1*
G1X63180Y268126D2*
G1X107780Y268126D1*
G1X63180Y267046D2*
G1X107780Y267046D1*
G1X63180Y265966D2*
G1X107780Y265966D1*
G1X63180Y264886D2*
G1X107780Y264886D1*
G1X63180Y263806D2*
G1X107780Y263806D1*
G1X63180Y262726D2*
G1X107780Y262726D1*
G1X63180Y261646D2*
G1X107780Y261646D1*
G1X63180Y260566D2*
G1X107780Y260566D1*
G1X63180Y259486D2*
G1X107780Y259486D1*
G1X63180Y258406D2*
G1X107780Y258406D1*
G1X63180Y257326D2*
G1X107780Y257326D1*
G1X63180Y256246D2*
G1X107780Y256246D1*
G1X63180Y255166D2*
G1X107780Y255166D1*
G1X63180Y254086D2*
G1X107780Y254086D1*
G1X63180Y253006D2*
G1X107780Y253006D1*
G1X63180Y251926D2*
G1X107780Y251926D1*
G1X63180Y250846D2*
G1X107780Y250846D1*
G1X63180Y249766D2*
G1X107780Y249766D1*
G1X63180Y248686D2*
G1X107780Y248686D1*
G1X63180Y247606D2*
G1X107780Y247606D1*
G1X63180Y246526D2*
G1X107780Y246526D1*
G1X63180Y245446D2*
G1X107780Y245446D1*
G1X63180Y244366D2*
G1X107780Y244366D1*
G1X63180Y243286D2*
G1X107780Y243286D1*
G1X63180Y242206D2*
G1X107780Y242206D1*
G1X63180Y241126D2*
G1X107780Y241126D1*
G1X63180Y240046D2*
G1X107780Y240046D1*
G1X63180Y238966D2*
G1X107780Y238966D1*
G1X63180Y237886D2*
G1X107780Y237886D1*
G1X63180Y236806D2*
G1X107780Y236806D1*
G1X63180Y235726D2*
G1X107780Y235726D1*
G1X63180Y234646D2*
G1X107780Y234646D1*
G1X63180Y233566D2*
G1X107780Y233566D1*
G1X63180Y232486D2*
G1X107780Y232486D1*
G1X63180Y231406D2*
G1X107780Y231406D1*
G1X63180Y230326D2*
G1X107780Y230326D1*
G1X63180Y229246D2*
G1X107780Y229246D1*
G1X63180Y228166D2*
G1X107780Y228166D1*
G1X63180Y227086D2*
G1X107780Y227086D1*
G1X63180Y226006D2*
G1X107780Y226006D1*
G1X63180Y224926D2*
G1X107780Y224926D1*
G1X63180Y223846D2*
G1X107780Y223846D1*
G1X63180Y222766D2*
G1X107780Y222766D1*
G1X63180Y221686D2*
G1X107780Y221686D1*
G1X63180Y220606D2*
G1X107780Y220606D1*
G1X63180Y219526D2*
G1X107780Y219526D1*
G1X63180Y218446D2*
G1X107780Y218446D1*
G1X63180Y217366D2*
G1X107780Y217366D1*
G1X63180Y216286D2*
G1X107780Y216286D1*
G1X63180Y215206D2*
G1X107780Y215206D1*
G1X63180Y214126D2*
G1X107780Y214126D1*
G1X63180Y213046D2*
G1X107780Y213046D1*
G1X63180Y211966D2*
G1X107780Y211966D1*
G1X63180Y210886D2*
G1X107780Y210886D1*
G1X63180Y209806D2*
G1X107780Y209806D1*
G1X63180Y208726D2*
G1X107780Y208726D1*
G1X63180Y207646D2*
G1X107780Y207646D1*
G1X63180Y206566D2*
G1X107780Y206566D1*
G1X63180Y205486D2*
G1X107780Y205486D1*
G1X63180Y204406D2*
G1X107780Y204406D1*
G1X63180Y203326D2*
G1X107780Y203326D1*
G1X63180Y202246D2*
G1X107780Y202246D1*
G1X63180Y201166D2*
G1X107780Y201166D1*
G1X63180Y200086D2*
G1X107780Y200086D1*
G1X63180Y199006D2*
G1X107780Y199006D1*
G1X63180Y197926D2*
G1X107780Y197926D1*
G1X63180Y196846D2*
G1X107780Y196846D1*
G1X63180Y195766D2*
G1X107780Y195766D1*
G1X63180Y194686D2*
G1X107780Y194686D1*
G1X63180Y193606D2*
G1X107780Y193606D1*
G1X63180Y192526D2*
G1X107780Y192526D1*
G1X63180Y191446D2*
G1X107780Y191446D1*
G1X63180Y190366D2*
G1X107780Y190366D1*
G1X63180Y189286D2*
G1X107780Y189286D1*
G1X63180Y188206D2*
G1X107780Y188206D1*
G1X63180Y187126D2*
G1X107780Y187126D1*
G1X63180Y186046D2*
G1X107780Y186046D1*
G1X63180Y184966D2*
G1X107780Y184966D1*
G1X63180Y183886D2*
G1X107780Y183886D1*
G1X63180Y182806D2*
G1X107780Y182806D1*
G1X63180Y181726D2*
G1X107780Y181726D1*
G1X63180Y180646D2*
G1X107780Y180646D1*
G1X63180Y179566D2*
G1X107780Y179566D1*
G1X63180Y178486D2*
G1X107780Y178486D1*
G1X63180Y177406D2*
G1X107780Y177406D1*
G1X63180Y176326D2*
G1X107780Y176326D1*
G1X63180Y175246D2*
G1X107780Y175246D1*
G1X63180Y174166D2*
G1X107780Y174166D1*
G1X63180Y173086D2*
G1X107780Y173086D1*
G1X63180Y172006D2*
G1X107780Y172006D1*
G1X63180Y170926D2*
G1X107780Y170926D1*
G1X63180Y169846D2*
G1X107780Y169846D1*
G1X63180Y168766D2*
G1X107780Y168766D1*
G1X63180Y167686D2*
G1X107780Y167686D1*
G1X63180Y166606D2*
G1X107780Y166606D1*
G1X63180Y165526D2*
G1X107780Y165526D1*
G1X63180Y164446D2*
G1X107780Y164446D1*
G1X63180Y163366D2*
G1X107780Y163366D1*
G1X63180Y162286D2*
G1X107780Y162286D1*
G1X63180Y161206D2*
G1X107780Y161206D1*
G1X63180Y160126D2*
G1X107780Y160126D1*
G1X63180Y159046D2*
G1X107780Y159046D1*
G1X63180Y157966D2*
G1X107780Y157966D1*
G1X63180Y156886D2*
G1X107780Y156886D1*
G1X63180Y155806D2*
G1X107780Y155806D1*
G1X63180Y154726D2*
G1X107780Y154726D1*
G1X63180Y153646D2*
G1X107780Y153646D1*
G1X63180Y152566D2*
G1X107780Y152566D1*
G1X63180Y151486D2*
G1X107780Y151486D1*
G1X63180Y150406D2*
G1X107780Y150406D1*
G1X63180Y149326D2*
G1X107780Y149326D1*
G1X63180Y148246D2*
G1X107780Y148246D1*
G1X63180Y147166D2*
G1X107780Y147166D1*
G1X63180Y146086D2*
G1X107780Y146086D1*
G1X63180Y145006D2*
G1X107780Y145006D1*
G1X63180Y143926D2*
G1X107780Y143926D1*
G1X63180Y142846D2*
G1X107780Y142846D1*
G1X63180Y141766D2*
G1X107780Y141766D1*
G1X63180Y140686D2*
G1X107780Y140686D1*
G1X63180Y139606D2*
G1X107780Y139606D1*
G1X63180Y138526D2*
G1X107780Y138526D1*
G1X63180Y137446D2*
G1X107780Y137446D1*
G1X90378Y136366D2*
G1X107780Y136366D1*
G1X90879Y135286D2*
G1X107780Y135286D1*
G1X90902Y134206D2*
G1X107780Y134206D1*
G1X90902Y133126D2*
G1X107780Y133126D1*
G1X90902Y132046D2*
G1X107780Y132046D1*
G1X90902Y130966D2*
G1X107780Y130966D1*
G1X90902Y129886D2*
G1X107780Y129886D1*
G1X90895Y128806D2*
G1X107780Y128806D1*
G1X90488Y127726D2*
G1X107780Y127726D1*
G1X63180Y126646D2*
G1X107780Y126646D1*
G1X76074Y125566D2*
G1X107780Y125566D1*
G1X76975Y124486D2*
G1X107780Y124486D1*
G1X77443Y123406D2*
G1X107780Y123406D1*
G1X78077Y122326D2*
G1X107780Y122326D1*
G1X78932Y121246D2*
G1X107780Y121246D1*
G1X88219Y120166D2*
G1X107780Y120166D1*
G1X89392Y119086D2*
G1X107780Y119086D1*
G1X90472Y118006D2*
G1X107780Y118006D1*
G1X106907Y116926D2*
G1X107780Y116926D1*
G1X107697Y93166D2*
G1X107780Y93166D1*
G1X107296Y92086D2*
G1X107780Y92086D1*
G1X106418Y91006D2*
G1X107780Y91006D1*
G1X93401Y89926D2*
G1X107780Y89926D1*
G1X78530Y88846D2*
G1X107780Y88846D1*
G1X78530Y87766D2*
G1X107780Y87766D1*
G1X78530Y86686D2*
G1X107780Y86686D1*
G1X78460Y85606D2*
G1X107780Y85606D1*
G1X77769Y84526D2*
G1X107780Y84526D1*
G1X78378Y83446D2*
G1X107780Y83446D1*
G1X78762Y82366D2*
G1X107780Y82366D1*
G1X92267Y81286D2*
G1X107780Y81286D1*
G1X93119Y80206D2*
G1X107780Y80206D1*
G1X93506Y79126D2*
G1X107780Y79126D1*
G1X93567Y78046D2*
G1X107780Y78046D1*
G1X93320Y76966D2*
G1X107780Y76966D1*
G1X107741Y75886D2*
G1X107780Y75886D1*
G1X106986Y67246D2*
G1X107780Y67246D1*
G1X86505Y66166D2*
G1X107780Y66166D1*
G1X86505Y65086D2*
G1X107780Y65086D1*
G1X86505Y64006D2*
G1X107780Y64006D1*
G1X86505Y62926D2*
G1X107780Y62926D1*
G1X86505Y61846D2*
G1X107780Y61846D1*
G1X86505Y60766D2*
G1X107780Y60766D1*
G1X86501Y59686D2*
G1X107780Y59686D1*
G1X86118Y58606D2*
G1X107780Y58606D1*
G1X63180Y57526D2*
G1X107780Y57526D1*
G1X63180Y56446D2*
G1X107780Y56446D1*
G1X90751Y55366D2*
G1X107780Y55366D1*
G1X93644Y54286D2*
G1X107780Y54286D1*
G1X95592Y53206D2*
G1X107780Y53206D1*
G1X97102Y52126D2*
G1X107780Y52126D1*
G1X98337Y51046D2*
G1X107780Y51046D1*
G1X99372Y49966D2*
G1X107780Y49966D1*
G1X100251Y48886D2*
G1X107780Y48886D1*
G1X101002Y47806D2*
G1X107780Y47806D1*
G1X101642Y46726D2*
G1X107780Y46726D1*
G1X102186Y45646D2*
G1X107780Y45646D1*
G1X102642Y44566D2*
G1X107780Y44566D1*
G1X103017Y43486D2*
G1X107780Y43486D1*
G1X103317Y42406D2*
G1X107780Y42406D1*
G1X103546Y41326D2*
G1X107780Y41326D1*
G1X103707Y40246D2*
G1X107780Y40246D1*
G1X103800Y39166D2*
G1X107780Y39166D1*
G1X103828Y38086D2*
G1X107780Y38086D1*
G1X103790Y37006D2*
G1X107780Y37006D1*
G1X103687Y35926D2*
G1X107780Y35926D1*
G1X103516Y34846D2*
G1X107780Y34846D1*
G1X103277Y33766D2*
G1X107780Y33766D1*
G1X102966Y32686D2*
G1X107780Y32686D1*
G1X102578Y31606D2*
G1X107780Y31606D1*
G1X102110Y30526D2*
G1X107780Y30526D1*
G1X101552Y29446D2*
G1X107780Y29446D1*
G1X100896Y28366D2*
G1X107780Y28366D1*
G1X100127Y27286D2*
G1X107780Y27286D1*
G1X99227Y26206D2*
G1X107780Y26206D1*
G1X98165Y25126D2*
G1X107780Y25126D1*
G1X96895Y24046D2*
G1X107780Y24046D1*
G1X95333Y22966D2*
G1X107780Y22966D1*
G1X93292Y21886D2*
G1X107780Y21886D1*
G1X90120Y20806D2*
G1X107780Y20806D1*
G1X63180Y19726D2*
G1X107780Y19726D1*
G1X63180Y18646D2*
G1X107780Y18646D1*
G1X94097Y17566D2*
G1X107780Y17566D1*
G1X94379Y16486D2*
G1X107780Y16486D1*
G1X94379Y15406D2*
G1X107780Y15406D1*
G1X100220Y14326D2*
G1X107780Y14326D1*
G1X102015Y13246D2*
G1X107780Y13246D1*
G1X102737Y12166D2*
G1X107780Y12166D1*
G1X103045Y11086D2*
G1X107780Y11086D1*
G1X103039Y10006D2*
G1X107780Y10006D1*
G1X102718Y8926D2*
G1X107780Y8926D1*
G1X101974Y7846D2*
G1X107753Y7846D1*
G1X100052Y6766D2*
G1X107559Y6766D1*
G1X98900Y322126D2*
G1X107173Y322126D1*
G1X94379Y5686D2*
G1X107164Y5686D1*
G1X94377Y4606D2*
G1X106522Y4606D1*
G1X66398Y364246D2*
G1X106093Y364246D1*
G1X64971Y363166D2*
G1X106093Y363166D1*
G1X97800Y362086D2*
G1X106093Y362086D1*
G1X98219Y361006D2*
G1X106093Y361006D1*
G1X98228Y359926D2*
G1X106093Y359926D1*
G1X98228Y358846D2*
G1X106093Y358846D1*
G1X98228Y357766D2*
G1X106093Y357766D1*
G1X98228Y356686D2*
G1X106093Y356686D1*
G1X98228Y355606D2*
G1X106093Y355606D1*
G1X98228Y354526D2*
G1X106093Y354526D1*
G1X98038Y353446D2*
G1X106093Y353446D1*
G1X96899Y352366D2*
G1X106093Y352366D1*
G1X63180Y351286D2*
G1X106093Y351286D1*
G1X63180Y350206D2*
G1X106093Y350206D1*
G1X63180Y349126D2*
G1X106093Y349126D1*
G1X96589Y348046D2*
G1X106093Y348046D1*
G1X99757Y346966D2*
G1X106093Y346966D1*
G1X102925Y345886D2*
G1X106093Y345886D1*
G1X106093Y344806D3*
G1X99980Y323206D2*
G1X106093Y323206D1*
G1X94019Y3526D2*
G1X105519Y3526D1*
G1X101060Y324286D2*
G1X105013Y324286D1*
G1X67111Y2446D2*
G1X103749Y2446D1*
G1X91552Y116926D2*
G1X102653Y116926D1*
G1X86505Y67246D2*
G1X102574Y67246D1*
G1X92689Y75886D2*
G1X101819Y75886D1*
G1X95890Y115846D2*
G1X101139Y115846D1*
G1X86505Y68326D2*
G1X101103Y68326D1*
G1X91270Y74806D2*
G1X100725Y74806D1*
G1X100483Y109366D2*
G1X100697Y109366D1*
G1X95991Y91006D2*
G1X100593Y91006D1*
G1X96577Y114766D2*
G1X100346Y114766D1*
G1X86505Y69406D2*
G1X100326Y69406D1*
G1X89230Y73726D2*
G1X100112Y73726D1*
G1X96645Y110446D2*
G1X100097Y110446D1*
G1X96645Y113686D2*
G1X99909Y113686D1*
G1X87290Y70486D2*
G1X99899Y70486D1*
G1X89063Y72646D2*
G1X99800Y72646D1*
G1X96645Y111526D2*
G1X99794Y111526D1*
G1X96645Y112606D2*
G1X99734Y112606D1*
G1X88370Y71566D2*
G1X99732Y71566D1*
G1X94379Y6766D2*
G1X98308Y6766D1*
G1X94379Y14326D2*
G1X98140Y14326D1*
G1X96576Y109366D2*
G1X97477Y109366D1*
G1X94379Y7846D2*
G1X96386Y7846D1*
G1X94379Y13246D2*
G1X96345Y13246D1*
G1X94379Y8926D2*
G1X95642Y8926D1*
G1X94379Y12166D2*
G1X95623Y12166D1*
G1X94379Y10006D2*
G1X95321Y10006D1*
G1X94379Y11086D2*
G1X95315Y11086D1*
G1X78530Y89926D2*
G1X91359Y89926D1*
G1X78530Y91006D2*
G1X89410Y91006D1*
G1X78520Y97486D2*
G1X88984Y97486D1*
G1X84282Y352366D2*
G1X88861Y352366D1*
G1X78474Y96406D2*
G1X88813Y96406D1*
G1X84619Y102886D2*
G1X88733Y102886D1*
G1X78530Y92086D2*
G1X88603Y92086D1*
G1X79043Y101806D2*
G1X88485Y101806D1*
G1X78340Y98566D2*
G1X88388Y98566D1*
G1X78196Y95326D2*
G1X88305Y95326D1*
G1X78401Y93166D2*
G1X88211Y93166D1*
G1X77139Y100726D2*
G1X88166Y100726D1*
G1X77908Y99646D2*
G1X88135Y99646D1*
G1X77642Y94246D2*
G1X88118Y94246D1*
G1X85898Y362086D2*
G1X87960Y362086D1*
G1X86446Y353446D2*
G1X87722Y353446D1*
G1X87133Y361006D2*
G1X87541Y361006D1*
G1X87437Y354526D2*
G1X87532Y354526D1*
G1X78917Y81286D2*
G1X87093Y81286D1*
G1X78864Y80206D2*
G1X86241Y80206D1*
G1X78594Y79126D2*
G1X85854Y79126D1*
G1X65341Y3526D2*
G1X85815Y3526D1*
G1X63180Y17566D2*
G1X85737Y17566D1*
G1X64338Y4606D2*
G1X85457Y4606D1*
G1X63180Y16486D2*
G1X85455Y16486D1*
G1X63180Y15406D2*
G1X85455Y15406D1*
G1X73646Y14326D2*
G1X85455Y14326D1*
G1X75817Y13246D2*
G1X85455Y13246D1*
G1X76591Y12166D2*
G1X85455Y12166D1*
G1X76931Y11086D2*
G1X85455Y11086D1*
G1X76953Y10006D2*
G1X85455Y10006D1*
G1X76663Y8926D2*
G1X85455Y8926D1*
G1X75968Y7846D2*
G1X85455Y7846D1*
G1X74309Y6766D2*
G1X85455Y6766D1*
G1X63696Y5686D2*
G1X85455Y5686D1*
G1X78073Y78046D2*
G1X85328Y78046D1*
G1X63180Y310246D2*
G1X85018Y310246D1*
G1X77200Y76966D2*
G1X84255Y76966D1*
G1X63180Y300526D2*
G1X83777Y300526D1*
G1X75611Y75886D2*
G1X83650Y75886D1*
G1X63180Y74806D2*
G1X83530Y74806D1*
G1X63180Y309166D2*
G1X82587Y309166D1*
G1X63180Y301606D2*
G1X82190Y301606D1*
G1X63180Y20806D2*
G1X81840Y20806D1*
G1X63180Y352366D2*
G1X81793Y352366D1*
G1X63180Y319966D2*
G1X81627Y319966D1*
G1X63180Y308086D2*
G1X81593Y308086D1*
G1X63180Y302686D2*
G1X81369Y302686D1*
G1X63180Y136366D2*
G1X81226Y136366D1*
G1X63180Y55366D2*
G1X81209Y55366D1*
G1X63180Y127726D2*
G1X81116Y127726D1*
G1X63180Y307006D2*
G1X81030Y307006D1*
G1X63180Y303766D2*
G1X80910Y303766D1*
G1X63180Y305926D2*
G1X80753Y305926D1*
G1X63180Y135286D2*
G1X80725Y135286D1*
G1X63180Y304846D2*
G1X80715Y304846D1*
G1X63180Y128806D2*
G1X80709Y128806D1*
G1X63180Y134206D2*
G1X80702Y134206D1*
G1X63180Y133126D2*
G1X80702Y133126D1*
G1X63180Y132046D2*
G1X80702Y132046D1*
G1X63180Y130966D2*
G1X80702Y130966D1*
G1X63180Y129886D2*
G1X80702Y129886D1*
G1X63180Y321046D2*
G1X80547Y321046D1*
G1X64103Y362086D2*
G1X80177Y362086D1*
G1X63180Y353446D2*
G1X79629Y353446D1*
G1X63180Y73726D2*
G1X79523Y73726D1*
G1X63180Y322126D2*
G1X79467Y322126D1*
G1X63546Y361006D2*
G1X78942Y361006D1*
G1X63180Y21886D2*
G1X78668Y21886D1*
G1X63180Y354526D2*
G1X78638Y354526D1*
G1X63180Y323206D2*
G1X78387Y323206D1*
G1X63180Y54286D2*
G1X78316Y54286D1*
G1X63219Y359926D2*
G1X78238Y359926D1*
G1X63180Y355606D2*
G1X78062Y355606D1*
G1X63180Y58606D2*
G1X77968Y58606D1*
G1X63180Y358846D2*
G1X77845Y358846D1*
G1X63180Y72646D2*
G1X77842Y72646D1*
G1X63180Y356686D2*
G1X77763Y356686D1*
G1X63180Y357766D2*
G1X77693Y357766D1*
G1X63180Y59686D2*
G1X77585Y59686D1*
G1X63180Y71566D2*
G1X77581Y71566D1*
G1X63180Y70486D2*
G1X77581Y70486D1*
G1X63180Y69406D2*
G1X77581Y69406D1*
G1X63180Y68326D2*
G1X77581Y68326D1*
G1X63180Y67246D2*
G1X77581Y67246D1*
G1X63180Y66166D2*
G1X77581Y66166D1*
G1X63180Y65086D2*
G1X77581Y65086D1*
G1X63180Y64006D2*
G1X77581Y64006D1*
G1X63180Y62926D2*
G1X77581Y62926D1*
G1X63180Y61846D2*
G1X77581Y61846D1*
G1X63180Y60766D2*
G1X77581Y60766D1*
G1X63180Y348046D2*
G1X77344Y348046D1*
G1X63180Y324286D2*
G1X77307Y324286D1*
G1X63180Y346966D2*
G1X76855Y346966D1*
G1X63180Y22966D2*
G1X76627Y22966D1*
G1X63180Y53206D2*
G1X76368Y53206D1*
G1X63180Y345886D2*
G1X76365Y345886D1*
G1X63180Y325366D2*
G1X76227Y325366D1*
G1X63180Y344806D2*
G1X75875Y344806D1*
G1X63180Y343726D2*
G1X75385Y343726D1*
G1X63180Y342646D2*
G1X75327Y342646D1*
G1X63180Y341566D2*
G1X75327Y341566D1*
G1X63180Y340486D2*
G1X75327Y340486D1*
G1X63180Y339406D2*
G1X75327Y339406D1*
G1X63180Y338326D2*
G1X75327Y338326D1*
G1X63180Y337246D2*
G1X75327Y337246D1*
G1X63180Y336166D2*
G1X75327Y336166D1*
G1X63180Y335086D2*
G1X75327Y335086D1*
G1X63180Y334006D2*
G1X75327Y334006D1*
G1X63180Y332926D2*
G1X75327Y332926D1*
G1X63180Y331846D2*
G1X75327Y331846D1*
G1X63180Y330766D2*
G1X75327Y330766D1*
G1X63180Y329686D2*
G1X75327Y329686D1*
G1X63180Y328606D2*
G1X75327Y328606D1*
G1X63180Y327526D2*
G1X75327Y327526D1*
G1X63180Y326446D2*
G1X75327Y326446D1*
G1X63180Y24046D2*
G1X75065Y24046D1*
G1X63180Y52126D2*
G1X74858Y52126D1*
G1X63180Y25126D2*
G1X73795Y25126D1*
G1X63180Y51046D2*
G1X73623Y51046D1*
G1X63180Y26206D2*
G1X72733Y26206D1*
G1X63180Y49966D2*
G1X72588Y49966D1*
G1X63180Y14326D2*
G1X72514Y14326D1*
G1X63301Y6766D2*
G1X71851Y6766D1*
G1X63180Y27286D2*
G1X71833Y27286D1*
G1X63180Y119086D2*
G1X71822Y119086D1*
G1X63180Y48886D2*
G1X71709Y48886D1*
G1X63180Y125566D2*
G1X71086Y125566D1*
G1X63180Y28366D2*
G1X71064Y28366D1*
G1X63180Y47806D2*
G1X70958Y47806D1*
G1X63180Y75886D2*
G1X70949Y75886D1*
G1X63180Y120166D2*
G1X70507Y120166D1*
G1X63180Y29446D2*
G1X70408Y29446D1*
G1X63180Y13246D2*
G1X70343Y13246D1*
G1X63180Y46726D2*
G1X70318Y46726D1*
G1X63180Y7846D2*
G1X70192Y7846D1*
G1X63180Y124486D2*
G1X70185Y124486D1*
G1X63180Y118006D2*
G1X70152Y118006D1*
G1X63180Y121246D2*
G1X69911Y121246D1*
G1X63180Y30526D2*
G1X69850Y30526D1*
G1X63180Y45646D2*
G1X69774Y45646D1*
G1X63180Y123406D2*
G1X69771Y123406D1*
G1X63180Y122326D2*
G1X69687Y122326D1*
G1X63180Y12166D2*
G1X69569Y12166D1*
G1X63180Y8926D2*
G1X69497Y8926D1*
G1X63180Y100726D2*
G1X69421Y100726D1*
G1X63180Y31606D2*
G1X69382Y31606D1*
G1X63180Y76966D2*
G1X69360Y76966D1*
G1X63180Y44566D2*
G1X69318Y44566D1*
G1X63180Y109366D2*
G1X69243Y109366D1*
G1X63180Y11086D2*
G1X69229Y11086D1*
G1X63180Y10006D2*
G1X69207Y10006D1*
G1X63180Y108286D2*
G1X69153Y108286D1*
G1X63180Y101806D2*
G1X69146Y101806D1*
G1X63180Y32686D2*
G1X68994Y32686D1*
G1X63180Y116926D2*
G1X68948Y116926D1*
G1X63180Y43486D2*
G1X68943Y43486D1*
G1X63180Y94246D2*
G1X68918Y94246D1*
G1X63180Y84526D2*
G1X68791Y84526D1*
G1X63180Y33766D2*
G1X68683Y33766D1*
G1X63180Y99646D2*
G1X68652Y99646D1*
G1X63180Y42406D2*
G1X68643Y42406D1*
G1X63180Y107206D2*
G1X68497Y107206D1*
G1X63180Y102886D2*
G1X68493Y102886D1*
G1X63180Y78046D2*
G1X68487Y78046D1*
G1X63180Y34846D2*
G1X68444Y34846D1*
G1X63180Y110446D2*
G1X68417Y110446D1*
G1X63180Y41326D2*
G1X68414Y41326D1*
G1X63180Y95326D2*
G1X68364Y95326D1*
G1X63180Y35926D2*
G1X68273Y35926D1*
G1X63180Y40246D2*
G1X68253Y40246D1*
G1X63180Y115846D2*
G1X68239Y115846D1*
G1X63180Y98566D2*
G1X68220Y98566D1*
G1X63180Y83446D2*
G1X68182Y83446D1*
G1X63180Y37006D2*
G1X68170Y37006D1*
G1X63180Y39166D2*
G1X68160Y39166D1*
G1X63180Y93166D2*
G1X68159Y93166D1*
G1X63180Y106126D2*
G1X68144Y106126D1*
G1X63180Y103966D2*
G1X68142Y103966D1*
G1X63180Y38086D2*
G1X68132Y38086D1*
G1X63180Y85606D2*
G1X68100Y85606D1*
G1X63180Y96406D2*
G1X68086Y96406D1*
G1X63180Y97486D2*
G1X68040Y97486D1*
G1X63180Y105046D2*
G1X68030Y105046D1*
G1X63180Y92086D2*
G1X68030Y92086D1*
G1X63180Y91006D2*
G1X68030Y91006D1*
G1X63180Y89926D2*
G1X68030Y89926D1*
G1X63180Y88846D2*
G1X68030Y88846D1*
G1X63180Y87766D2*
G1X68030Y87766D1*
G1X63180Y86686D2*
G1X68030Y86686D1*
G1X63180Y79126D2*
G1X67966Y79126D1*
G1X63180Y111526D2*
G1X67926Y111526D1*
G1X63180Y114766D2*
G1X67828Y114766D1*
G1X63180Y82366D2*
G1X67798Y82366D1*
G1X63180Y80206D2*
G1X67697Y80206D1*
G1X63180Y112606D2*
G1X67681Y112606D1*
G1X63180Y113686D2*
G1X67649Y113686D1*
G1X63180Y81286D2*
G1X67643Y81286D1*
G1X102605Y107206D2*
G1X107780Y107206D1*
G1X102864Y106126D2*
G1X107780Y106126D1*
G1X102813Y105046D2*
G1X107780Y105046D1*
G1X102439Y103966D2*
G1X107780Y103966D1*
G1X101608Y102886D2*
G1X107780Y102886D1*
G1X96275Y101806D2*
G1X107780Y101806D1*
G1X96594Y100726D2*
G1X107780Y100726D1*
G1X96625Y99646D2*
G1X107780Y99646D1*
G1X96372Y98566D2*
G1X107780Y98566D1*
G1X105562Y97486D2*
G1X107780Y97486D1*
G1X106924Y96406D2*
G1X107780Y96406D1*
G1X107536Y95326D2*
G1X107780Y95326D1*
G1X107770Y94246D2*
G1X107780Y94246D1*
G1X95776Y97486D2*
G1X102198Y97486D1*
G1X95876Y102886D2*
G1X96352Y102886D1*
G1X96030Y94067D2*
G54D39*
G1X93381Y95068D1*
G1X95295Y94067D1*
G1X93381Y93066D1*
G1X96030Y94067D1*
G1X94148Y93467D2*
G1X94442Y93467D1*
G1X93574Y94967D2*
G1X93648Y94967D1*
G1X94080Y93330D2*
G1X94080Y93432D1*
G1X94080Y94702D2*
G1X94080Y94804D1*
G1X95580Y93897D2*
G1X95580Y94237D1*
G1X100630Y93967D2*
G1X103138Y93225D1*
G1X101330Y93967D1*
G1X103138Y94709D1*
G1X100630Y93967D1*
G1X102319Y93467D2*
G1X102547Y93467D1*
G1X101580Y93686D2*
G1X101580Y93864D1*
G1X101580Y94070D2*
G1X101580Y94248D1*
G1X103080Y93242D2*
G1X103080Y93248D1*
G1X103080Y94686D2*
G1X103080Y94692D1*
G1X79579Y105041D2*
G1X74977Y106738D1*
G1X77180Y105041D1*
G1X74977Y103344D1*
G1X79579Y105041D1*
G1X75785Y103967D2*
G1X76666Y103967D1*
G1X76627Y105467D2*
G1X78424Y105467D1*
G1X76080Y103751D2*
G1X76080Y104194D1*
G1X76080Y105888D2*
G1X76080Y106331D1*
G1X77580Y104304D2*
G1X77580Y105778D1*
G1X79080Y104857D2*
G1X79080Y105225D1*
G1X88049Y106067D2*
G1X91379Y105066D1*
G1X89465Y106067D1*
G1X91379Y107068D1*
G1X88049Y106067D1*
G1X90046Y105467D2*
G1X90612Y105467D1*
G1X91044Y106967D2*
G1X91186Y106967D1*
G1X88080Y106058D2*
G1X88080Y106076D1*
G1X89580Y105607D2*
G1X89580Y106007D1*
G1X89580Y106127D2*
G1X89580Y106527D1*
G1X91080Y105156D2*
G1X91080Y105223D1*
G1X91080Y106911D2*
G1X91080Y106978D1*
G1X96430Y106067D2*
G1X93381Y107068D1*
G1X95295Y106067D1*
G1X93381Y105066D1*
G1X96430Y106067D1*
G1X94148Y105467D2*
G1X94602Y105467D1*
G1X93574Y106967D2*
G1X93688Y106967D1*
G1X94080Y105296D2*
G1X94080Y105432D1*
G1X94080Y106702D2*
G1X94080Y106838D1*
G1X95580Y105788D2*
G1X95580Y106346D1*
G1X76126Y120021D2*
G1X74630Y122567D1*
G1X75383Y120764D1*
G1X73580Y121517D1*
G1X76126Y120021D1*
G1X75367Y120467D2*
G1X75864Y120467D1*
G1X74881Y121967D2*
G1X74983Y121967D1*
G1X74580Y120929D2*
G1X74580Y121099D1*
G1X76080Y120048D2*
G1X76080Y120099D1*
G1X89917Y10608D2*
G1X99139Y10608D1*
G1X99180Y10567D1*
G1X82043Y65726D2*
G1X82043Y69269D1*
G1X86380Y73606D1*
G1X86380Y75067D1*
G1X89680Y78367D1*
G1X92380Y94067D2*
G1X98280Y94067D1*
G1X98380Y93967D1*
G1X103880Y93967D1*
G1X73280Y105041D2*
G1X82754Y105041D1*
G1X83780Y106067D1*
G1X92380Y106067D1*
G1X98680Y106067D1*
G1X98880Y105867D1*
G1X73580Y122567D2*
G1X78380Y117767D1*
G1X86680Y117767D1*
G1X92380Y112067D1*
G1X88147Y352834D2*
G1X90583Y355270D1*
G1X88147Y362300D2*
G1X90583Y359864D1*
G1X97613Y362300D2*
G1X95177Y359864D1*
G1X97613Y352834D2*
G1X95177Y355270D1*
G1X90287Y136463D2*
G1X87923Y134099D1*
G1X90287Y127493D2*
G1X87923Y129857D1*
G1X81317Y127493D2*
G1X83681Y129857D1*
G1X81317Y136463D2*
G1X83681Y134099D1*
G1X89364Y97051D2*
G1X90849Y98536D1*
G1X101938Y13325D2*
G1X100453Y11840D1*
G1X96422Y13325D2*
G1X97907Y11840D1*
G1X96422Y7809D2*
G1X97907Y9294D1*
G1X101938Y7809D2*
G1X100453Y9294D1*
G1X75838Y13225D2*
G1X74353Y11740D1*
G1X70322Y13225D2*
G1X71807Y11740D1*
G1X70322Y7709D2*
G1X71807Y9194D1*
G1X75838Y7709D2*
G1X74353Y9194D1*
G1X86070Y17998D2*
G54D40*
G1X88247Y15822D1*
G1X93764Y17998D2*
G1X91587Y15822D1*
G1X93764Y3218D2*
G1X91587Y5394D1*
G1X86070Y3218D2*
G1X88247Y5394D1*
G1X73360Y50787D2*
G1X74844Y49303D1*
G1X73360Y25547D2*
G1X74844Y27031D1*
G1X98600Y25547D2*
G1X97116Y27031D1*
G1X98600Y50787D2*
G1X97116Y49303D1*
G54D41*
G1X92880Y357567D3*
G54D42*
G1X83037Y357567D3*
G54D61*
G1X104780Y112343D3*
G1X104780Y71791D3*
G54D65*
G1X73280Y97167D3*
G1X73280Y105041D3*
G54D66*
G1X73080Y10467D3*
G1X99180Y10567D3*
G1X89680Y78367D3*
G1X103880Y93967D3*
G1X98980Y105767D3*
G1X73580Y122567D3*
G54D68*
G1X73280Y113309D3*
G1X73280Y81025D3*
G54D98*
G1X92380Y112067D3*
G54D99*
G1X92380Y106067D3*
G1X92380Y100067D3*
G1X92380Y94067D3*
G54D102*
G1X89917Y10608D3*
G1X82043Y65726D3*
G54D103*
G1X85980Y38167D3*
M2*
