*
%LPD*%
%LNKIMONO2-L2*%
%FSLAX25Y25*%
%MOIN*%
%AD*%
%AD*%
%ADD26C,0.06*%
%ADD38C,0.012*%
%ADD39C,0.015*%
%ADD40C,0.01*%
%ADD41R,0.064959843X0.064959843*%
%ADD42C,0.064959843*%
%ADD61C,0.059059843*%
%ADD65C,0.062990157*%
%ADD66C,0.036*%
%ADD68C,0.070870079*%
%ADD98R,0.043309843X0.043309843*%
%ADD99C,0.043309843*%
%ADD102R,0.047240157X0.118109843*%
%ADD103C,0.314959843*%
G54D26*
%SRX1Y1I0.0J0.0*%
G1X85802Y131978D3*
G1X85802Y305206D3*
G1X103080Y10567D2*
G75*
G54D38*
G3X103080Y10567I-3900J0D1*
G1X76980Y10467D2*
G3X76980Y10467I-3900J0D1*
G1X103828Y38067D2*
G3X103828Y38067I-17848J0D1*
G74*
G1X96130Y96100D2*
G1X96130Y98034D1*
G1X95412Y97067D2*
G75*
G3X96130Y98034I-3031J3001D1*
G1X96130Y96100D2*
G3X95412Y97067I-3749J-2034D1*
G1X95991Y102337D2*
G3X95412Y103067I-3611J-2270D1*
G74*
G1X95991Y102337D2*
G1X95713Y103406D1*
G1X95412Y103067D2*
G75*
G3X95713Y103406I-3034J2997D1*
G74*
G1X107780Y116408D2*
G1X107780Y321218D1*
G1X103944Y325054D1*
G1X101829Y325054D1*
G1X95735Y318961D1*
G1X81985Y318961D1*
G1X76430Y324515D1*
G1X76430Y126531D1*
G1X76930Y124607D1*
G1X76930Y213767D1*
G1X77765Y215782D2*
G75*
G3X76930Y213767I2015J-2015D1*
G74*
G1X77765Y215782D2*
G1X82952Y220970D1*
G1X82952Y298708D1*
G1X81701Y302174D1*
G1X89903Y302174D2*
G75*
G3X81701Y302174I-4101J3032D1*
G74*
G1X89903Y302174D2*
G1X88652Y298708D1*
G1X88652Y219789D1*
G1X87817Y217774D2*
G75*
G3X88652Y219789I-2015J2015D1*
G74*
G1X87817Y217774D2*
G1X82630Y212586D1*
G1X82630Y135972D1*
G1X82630Y127984D2*
G75*
G3X82630Y135972I3172J3994D1*
G74*
G1X82630Y127984D2*
G1X82630Y103667D1*
G1X81795Y101652D2*
G75*
G3X82630Y103667I-2015J2015D1*
G74*
G1X81795Y101652D2*
G1X80109Y99966D1*
G1X78477Y96428D1*
G1X76753Y93230D2*
G75*
G3X78477Y96428I-3473J3936D1*
G1X76822Y85418D2*
G3X76753Y93230I-3542J3875D1*
G1X69738Y85418D2*
G3X76822Y85418I3542J-4393D1*
G1X69807Y93230D2*
G3X69738Y85418I3473J-3937D1*
G1X69807Y101104D2*
G3X69807Y93230I3473J-3937D1*
G1X69738Y108916D2*
G3X69807Y101104I3542J-3875D1*
G1X72332Y118872D2*
G3X69738Y108916I948J-5563D1*
G1X70210Y124530D2*
G3X72332Y118872I3370J-1963D1*
G74*
G1X70210Y124530D2*
G1X70730Y126531D1*
G1X70730Y338767D1*
G1X71565Y340782D2*
G75*
G3X70730Y338767I2015J-2015D1*
G74*
G1X71565Y340782D2*
G1X75299Y344517D1*
G1X77797Y347967D1*
G1X78749Y347967D1*
G1X80187Y349405D1*
G1X80187Y350556D1*
G1X78776Y354336D1*
G1X87532Y360466D2*
G75*
G3X78775Y354336I-4495J-2899D1*
G74*
G1X87532Y360466D2*
G1X87532Y360815D1*
G1X89632Y362915D2*
G75*
G3X87532Y360815I0J-2100D1*
G74*
G1X89632Y362915D2*
G1X96128Y362915D1*
G1X98228Y360815D2*
G75*
G3X96128Y362915I-2100J0D1*
G74*
G1X98228Y360815D2*
G1X98228Y354319D1*
G1X96128Y352219D2*
G75*
G3X98228Y354319I0J2100D1*
G74*
G1X96128Y352219D2*
G1X89632Y352219D1*
G1X87532Y354319D2*
G75*
G3X89632Y352219I2100J0D1*
G74*
G1X87532Y354319D2*
G1X87532Y354668D1*
G1X87299Y354336D2*
G75*
G3X87532Y354668I-4258J3236D1*
G74*
G1X87299Y354336D2*
G1X85888Y350556D1*
G1X85888Y348224D1*
G1X85876Y347967D2*
G75*
G3X85888Y348224I-2839J261D1*
G74*
G1X85876Y347967D2*
G1X94200Y347967D1*
G1X105627Y343212D1*
G1X106331Y365067D1*
G1X69554Y365067D1*
G75*
G3X63080Y358593I0J-6474D1*
G74*
G1X63080Y8441D1*
G75*
G3X69554Y1967I6474J0D1*
G74*
G1X101306Y1967D1*
G75*
G3X107780Y8441I0J6474D1*
G74*
G1X107780Y67726D1*
G1X100709Y74785D2*
G75*
G3X107780Y67726I4070J-2994D1*
G74*
G1X100709Y74785D2*
G1X101930Y78192D1*
G1X101930Y80786D1*
G1X96965Y85752D1*
G1X96130Y87767D2*
G75*
G3X96965Y85752I2850J0D1*
G74*
G1X96130Y87767D2*
G1X96130Y92034D1*
G1X95961Y91750D2*
G75*
G3X96130Y92034I-3578J2322D1*
G74*
G1X95961Y91750D2*
G1X95230Y89317D1*
G1X95230Y87367D1*
G1X94395Y85352D2*
G75*
G3X95230Y87367I-2015J2015D1*
G74*
G1X94395Y85352D2*
G1X92530Y83486D1*
G1X92530Y82331D1*
G1X93050Y80330D1*
G1X92530Y75705D2*
G75*
G3X93050Y80330I-2850J2662D1*
G74*
G1X92530Y75705D2*
G1X92530Y75068D1*
G1X92767Y73930D2*
G75*
G3X92530Y75068I-2850J0D1*
G74*
G1X92767Y73930D2*
G1X92767Y73574D1*
G1X94379Y71532D2*
G75*
G3X92767Y73574I-2100J0D1*
G74*
G1X94379Y71532D2*
G1X94379Y59721D1*
G1X92279Y57621D2*
G75*
G3X94379Y59721I0J2100D1*
G74*
G1X92279Y57621D2*
G1X87555Y57621D1*
G1X85455Y59721D2*
G75*
G3X87555Y57621I2100J0D1*
G74*
G1X85455Y59721D2*
G1X85455Y71532D1*
G1X86903Y73528D2*
G75*
G3X85455Y71532I652J-1996D1*
G1X86830Y74167D2*
G3X86903Y73528I2850J2D1*
G74*
G1X86830Y74167D2*
G1X86830Y75705D1*
G1X86310Y80330D2*
G75*
G3X86830Y75705I3370J-1963D1*
G74*
G1X86310Y80330D2*
G1X86830Y82331D1*
G1X86830Y84667D1*
G1X87665Y86682D2*
G75*
G3X86830Y84667I2015J-2015D1*
G74*
G1X87665Y86682D2*
G1X89530Y88548D1*
G1X89530Y89317D1*
G1X88799Y91750D1*
G1X89348Y97067D2*
G75*
G3X88799Y91750I3032J-3000D1*
G1X89348Y103067D2*
G3X89348Y97067I3032J-3000D1*
G1X88785Y108363D2*
G3X89348Y103067I3595J-2296D1*
G1X88115Y109902D2*
G3X88785Y108363I2100J-1D1*
G74*
G1X88115Y109902D2*
G1X88115Y114232D1*
G1X90215Y116332D2*
G75*
G3X88115Y114232I0J-2100D1*
G74*
G1X90215Y116332D2*
G1X94545Y116332D1*
G1X96645Y114232D2*
G75*
G3X94545Y116332I-2100J0D1*
G74*
G1X96645Y114232D2*
G1X96645Y109902D1*
G1X95975Y108363D2*
G75*
G3X96645Y109902I-1430J1538D1*
G74*
G1X96014Y108300D2*
G1X95975Y108363D1*
G1X100747Y109244D2*
G75*
G3X96014Y108300I-1767J-3477D1*
G74*
G1X100747Y109244D2*
G1X100709Y109349D1*
G1X107780Y116408D2*
G75*
G3X100709Y109349I-3001J-4065D1*
G1X103080Y10567D2*
G3X103080Y10567I-3900J0D1*
G74*
G1X86505Y16413D2*
G1X86505Y4602D1*
G1X84405Y2502D2*
G75*
G3X86505Y4602I0J2100D1*
G74*
G1X84405Y2502D2*
G1X79681Y2502D1*
G1X77581Y4602D2*
G75*
G3X79681Y2502I2100J0D1*
G74*
G1X77581Y4602D2*
G1X77581Y16413D1*
G1X79681Y18513D2*
G75*
G3X77581Y16413I0J-2100D1*
G74*
G1X79681Y18513D2*
G1X84405Y18513D1*
G1X86505Y16413D2*
G75*
G3X84405Y18513I-2100J0D1*
G1X76980Y10467D2*
G3X76980Y10467I-3900J0D1*
G1X103828Y38067D2*
G3X103828Y38067I-17848J0D1*
G74*
G1X97320Y320546D2*
G1X107780Y320546D1*
G1X96240Y319466D2*
G1X107780Y319466D1*
G1X76430Y318386D2*
G1X107780Y318386D1*
G1X76430Y317306D2*
G1X107780Y317306D1*
G1X76430Y316226D2*
G1X107780Y316226D1*
G1X76430Y315146D2*
G1X107780Y315146D1*
G1X76430Y314066D2*
G1X107780Y314066D1*
G1X76430Y312986D2*
G1X107780Y312986D1*
G1X76430Y311906D2*
G1X107780Y311906D1*
G1X76430Y310826D2*
G1X107780Y310826D1*
G1X88127Y309746D2*
G1X107780Y309746D1*
G1X89549Y308666D2*
G1X107780Y308666D1*
G1X90313Y307586D2*
G1X107780Y307586D1*
G1X90734Y306506D2*
G1X107780Y306506D1*
G1X90897Y305426D2*
G1X107780Y305426D1*
G1X90829Y304346D2*
G1X107780Y304346D1*
G1X90518Y303266D2*
G1X107780Y303266D1*
G1X89911Y302186D2*
G1X107780Y302186D1*
G1X89517Y301106D2*
G1X107780Y301106D1*
G1X89128Y300026D2*
G1X107780Y300026D1*
G1X88738Y298946D2*
G1X107780Y298946D1*
G1X88652Y297866D2*
G1X107780Y297866D1*
G1X88652Y296786D2*
G1X107780Y296786D1*
G1X88652Y295706D2*
G1X107780Y295706D1*
G1X88652Y294626D2*
G1X107780Y294626D1*
G1X88652Y293546D2*
G1X107780Y293546D1*
G1X88652Y292466D2*
G1X107780Y292466D1*
G1X88652Y291386D2*
G1X107780Y291386D1*
G1X88652Y290306D2*
G1X107780Y290306D1*
G1X88652Y289226D2*
G1X107780Y289226D1*
G1X88652Y288146D2*
G1X107780Y288146D1*
G1X88652Y287066D2*
G1X107780Y287066D1*
G1X88652Y285986D2*
G1X107780Y285986D1*
G1X88652Y284906D2*
G1X107780Y284906D1*
G1X88652Y283826D2*
G1X107780Y283826D1*
G1X88652Y282746D2*
G1X107780Y282746D1*
G1X88652Y281666D2*
G1X107780Y281666D1*
G1X88652Y280586D2*
G1X107780Y280586D1*
G1X88652Y279506D2*
G1X107780Y279506D1*
G1X88652Y278426D2*
G1X107780Y278426D1*
G1X88652Y277346D2*
G1X107780Y277346D1*
G1X88652Y276266D2*
G1X107780Y276266D1*
G1X88652Y275186D2*
G1X107780Y275186D1*
G1X88652Y274106D2*
G1X107780Y274106D1*
G1X88652Y273026D2*
G1X107780Y273026D1*
G1X88652Y271946D2*
G1X107780Y271946D1*
G1X88652Y270866D2*
G1X107780Y270866D1*
G1X88652Y269786D2*
G1X107780Y269786D1*
G1X88652Y268706D2*
G1X107780Y268706D1*
G1X88652Y267626D2*
G1X107780Y267626D1*
G1X88652Y266546D2*
G1X107780Y266546D1*
G1X88652Y265466D2*
G1X107780Y265466D1*
G1X88652Y264386D2*
G1X107780Y264386D1*
G1X88652Y263306D2*
G1X107780Y263306D1*
G1X88652Y262226D2*
G1X107780Y262226D1*
G1X88652Y261146D2*
G1X107780Y261146D1*
G1X88652Y260066D2*
G1X107780Y260066D1*
G1X88652Y258986D2*
G1X107780Y258986D1*
G1X88652Y257906D2*
G1X107780Y257906D1*
G1X88652Y256826D2*
G1X107780Y256826D1*
G1X88652Y255746D2*
G1X107780Y255746D1*
G1X88652Y254666D2*
G1X107780Y254666D1*
G1X88652Y253586D2*
G1X107780Y253586D1*
G1X88652Y252506D2*
G1X107780Y252506D1*
G1X88652Y251426D2*
G1X107780Y251426D1*
G1X88652Y250346D2*
G1X107780Y250346D1*
G1X88652Y249266D2*
G1X107780Y249266D1*
G1X88652Y248186D2*
G1X107780Y248186D1*
G1X88652Y247106D2*
G1X107780Y247106D1*
G1X88652Y246026D2*
G1X107780Y246026D1*
G1X88652Y244946D2*
G1X107780Y244946D1*
G1X88652Y243866D2*
G1X107780Y243866D1*
G1X88652Y242786D2*
G1X107780Y242786D1*
G1X88652Y241706D2*
G1X107780Y241706D1*
G1X88652Y240626D2*
G1X107780Y240626D1*
G1X88652Y239546D2*
G1X107780Y239546D1*
G1X88652Y238466D2*
G1X107780Y238466D1*
G1X88652Y237386D2*
G1X107780Y237386D1*
G1X88652Y236306D2*
G1X107780Y236306D1*
G1X88652Y235226D2*
G1X107780Y235226D1*
G1X88652Y234146D2*
G1X107780Y234146D1*
G1X88652Y233066D2*
G1X107780Y233066D1*
G1X88652Y231986D2*
G1X107780Y231986D1*
G1X88652Y230906D2*
G1X107780Y230906D1*
G1X88652Y229826D2*
G1X107780Y229826D1*
G1X88652Y228746D2*
G1X107780Y228746D1*
G1X88652Y227666D2*
G1X107780Y227666D1*
G1X88652Y226586D2*
G1X107780Y226586D1*
G1X88652Y225506D2*
G1X107780Y225506D1*
G1X88652Y224426D2*
G1X107780Y224426D1*
G1X88652Y223346D2*
G1X107780Y223346D1*
G1X88652Y222266D2*
G1X107780Y222266D1*
G1X88652Y221186D2*
G1X107780Y221186D1*
G1X88652Y220106D2*
G1X107780Y220106D1*
G1X88548Y219026D2*
G1X107780Y219026D1*
G1X87976Y217946D2*
G1X107780Y217946D1*
G1X86909Y216866D2*
G1X107780Y216866D1*
G1X85829Y215786D2*
G1X107780Y215786D1*
G1X84749Y214706D2*
G1X107780Y214706D1*
G1X83669Y213626D2*
G1X107780Y213626D1*
G1X82630Y212546D2*
G1X107780Y212546D1*
G1X82630Y211466D2*
G1X107780Y211466D1*
G1X82630Y210386D2*
G1X107780Y210386D1*
G1X82630Y209306D2*
G1X107780Y209306D1*
G1X82630Y208226D2*
G1X107780Y208226D1*
G1X82630Y207146D2*
G1X107780Y207146D1*
G1X82630Y206066D2*
G1X107780Y206066D1*
G1X82630Y204986D2*
G1X107780Y204986D1*
G1X82630Y203906D2*
G1X107780Y203906D1*
G1X82630Y202826D2*
G1X107780Y202826D1*
G1X82630Y201746D2*
G1X107780Y201746D1*
G1X82630Y200666D2*
G1X107780Y200666D1*
G1X82630Y199586D2*
G1X107780Y199586D1*
G1X82630Y198506D2*
G1X107780Y198506D1*
G1X82630Y197426D2*
G1X107780Y197426D1*
G1X82630Y196346D2*
G1X107780Y196346D1*
G1X82630Y195266D2*
G1X107780Y195266D1*
G1X82630Y194186D2*
G1X107780Y194186D1*
G1X82630Y193106D2*
G1X107780Y193106D1*
G1X82630Y192026D2*
G1X107780Y192026D1*
G1X82630Y190946D2*
G1X107780Y190946D1*
G1X82630Y189866D2*
G1X107780Y189866D1*
G1X82630Y188786D2*
G1X107780Y188786D1*
G1X82630Y187706D2*
G1X107780Y187706D1*
G1X82630Y186626D2*
G1X107780Y186626D1*
G1X82630Y185546D2*
G1X107780Y185546D1*
G1X82630Y184466D2*
G1X107780Y184466D1*
G1X82630Y183386D2*
G1X107780Y183386D1*
G1X82630Y182306D2*
G1X107780Y182306D1*
G1X82630Y181226D2*
G1X107780Y181226D1*
G1X82630Y180146D2*
G1X107780Y180146D1*
G1X82630Y179066D2*
G1X107780Y179066D1*
G1X82630Y177986D2*
G1X107780Y177986D1*
G1X82630Y176906D2*
G1X107780Y176906D1*
G1X82630Y175826D2*
G1X107780Y175826D1*
G1X82630Y174746D2*
G1X107780Y174746D1*
G1X82630Y173666D2*
G1X107780Y173666D1*
G1X82630Y172586D2*
G1X107780Y172586D1*
G1X82630Y171506D2*
G1X107780Y171506D1*
G1X82630Y170426D2*
G1X107780Y170426D1*
G1X82630Y169346D2*
G1X107780Y169346D1*
G1X82630Y168266D2*
G1X107780Y168266D1*
G1X82630Y167186D2*
G1X107780Y167186D1*
G1X82630Y166106D2*
G1X107780Y166106D1*
G1X82630Y165026D2*
G1X107780Y165026D1*
G1X82630Y163946D2*
G1X107780Y163946D1*
G1X82630Y162866D2*
G1X107780Y162866D1*
G1X82630Y161786D2*
G1X107780Y161786D1*
G1X82630Y160706D2*
G1X107780Y160706D1*
G1X82630Y159626D2*
G1X107780Y159626D1*
G1X82630Y158546D2*
G1X107780Y158546D1*
G1X82630Y157466D2*
G1X107780Y157466D1*
G1X82630Y156386D2*
G1X107780Y156386D1*
G1X82630Y155306D2*
G1X107780Y155306D1*
G1X82630Y154226D2*
G1X107780Y154226D1*
G1X82630Y153146D2*
G1X107780Y153146D1*
G1X82630Y152066D2*
G1X107780Y152066D1*
G1X82630Y150986D2*
G1X107780Y150986D1*
G1X82630Y149906D2*
G1X107780Y149906D1*
G1X82630Y148826D2*
G1X107780Y148826D1*
G1X82630Y147746D2*
G1X107780Y147746D1*
G1X82630Y146666D2*
G1X107780Y146666D1*
G1X82630Y145586D2*
G1X107780Y145586D1*
G1X82630Y144506D2*
G1X107780Y144506D1*
G1X82630Y143426D2*
G1X107780Y143426D1*
G1X82630Y142346D2*
G1X107780Y142346D1*
G1X82630Y141266D2*
G1X107780Y141266D1*
G1X82630Y140186D2*
G1X107780Y140186D1*
G1X82630Y139106D2*
G1X107780Y139106D1*
G1X82630Y138026D2*
G1X107780Y138026D1*
G1X86956Y136946D2*
G1X107780Y136946D1*
G1X89103Y135866D2*
G1X107780Y135866D1*
G1X90060Y134786D2*
G1X107780Y134786D1*
G1X90601Y133706D2*
G1X107780Y133706D1*
G1X90861Y132626D2*
G1X107780Y132626D1*
G1X90884Y131546D2*
G1X107780Y131546D1*
G1X90673Y130466D2*
G1X107780Y130466D1*
G1X90194Y129386D2*
G1X107780Y129386D1*
G1X89341Y128306D2*
G1X107780Y128306D1*
G1X87653Y127226D2*
G1X107780Y127226D1*
G1X82630Y126146D2*
G1X107780Y126146D1*
G1X82630Y125066D2*
G1X107780Y125066D1*
G1X82630Y123986D2*
G1X107780Y123986D1*
G1X82630Y122906D2*
G1X107780Y122906D1*
G1X82630Y121826D2*
G1X107780Y121826D1*
G1X82630Y120746D2*
G1X107780Y120746D1*
G1X82630Y119666D2*
G1X107780Y119666D1*
G1X82630Y118586D2*
G1X107780Y118586D1*
G1X82630Y117506D2*
G1X107780Y117506D1*
G1X107756Y116426D2*
G1X107780Y116426D1*
G1X105047Y66746D2*
G1X107780Y66746D1*
G1X94379Y65666D2*
G1X107780Y65666D1*
G1X94379Y64586D2*
G1X107780Y64586D1*
G1X94379Y63506D2*
G1X107780Y63506D1*
G1X94379Y62426D2*
G1X107780Y62426D1*
G1X94379Y61346D2*
G1X107780Y61346D1*
G1X94379Y60266D2*
G1X107780Y60266D1*
G1X94310Y59186D2*
G1X107780Y59186D1*
G1X93622Y58106D2*
G1X107780Y58106D1*
G1X63080Y57026D2*
G1X107780Y57026D1*
G1X63080Y55946D2*
G1X107780Y55946D1*
G1X92010Y54866D2*
G1X107780Y54866D1*
G1X94434Y53786D2*
G1X107780Y53786D1*
G1X96191Y52706D2*
G1X107780Y52706D1*
G1X97587Y51626D2*
G1X107780Y51626D1*
G1X98741Y50546D2*
G1X107780Y50546D1*
G1X99714Y49466D2*
G1X107780Y49466D1*
G1X100543Y48386D2*
G1X107780Y48386D1*
G1X101251Y47306D2*
G1X107780Y47306D1*
G1X101854Y46226D2*
G1X107780Y46226D1*
G1X102364Y45146D2*
G1X107780Y45146D1*
G1X102790Y44066D2*
G1X107780Y44066D1*
G1X103137Y42986D2*
G1X107780Y42986D1*
G1X103410Y41906D2*
G1X107780Y41906D1*
G1X103614Y40826D2*
G1X107780Y40826D1*
G1X103749Y39746D2*
G1X107780Y39746D1*
G1X103818Y38666D2*
G1X107780Y38666D1*
G1X103822Y37586D2*
G1X107780Y37586D1*
G1X103760Y36506D2*
G1X107780Y36506D1*
G1X103632Y35426D2*
G1X107780Y35426D1*
G1X103436Y34346D2*
G1X107780Y34346D1*
G1X103170Y33266D2*
G1X107780Y33266D1*
G1X102831Y32186D2*
G1X107780Y32186D1*
G1X102415Y31106D2*
G1X107780Y31106D1*
G1X101914Y30026D2*
G1X107780Y30026D1*
G1X101321Y28946D2*
G1X107780Y28946D1*
G1X100625Y27866D2*
G1X107780Y27866D1*
G1X99811Y26786D2*
G1X107780Y26786D1*
G1X98854Y25706D2*
G1X107780Y25706D1*
G1X97722Y24626D2*
G1X107780Y24626D1*
G1X96357Y23546D2*
G1X107780Y23546D1*
G1X94649Y22466D2*
G1X107780Y22466D1*
G1X92327Y21386D2*
G1X107780Y21386D1*
G1X87737Y20306D2*
G1X107780Y20306D1*
G1X63080Y19226D2*
G1X107780Y19226D1*
G1X85592Y18146D2*
G1X107780Y18146D1*
G1X86401Y17066D2*
G1X107780Y17066D1*
G1X86505Y15986D2*
G1X107780Y15986D1*
G1X86505Y14906D2*
G1X107780Y14906D1*
G1X101323Y13826D2*
G1X107780Y13826D1*
G1X102415Y12746D2*
G1X107780Y12746D1*
G1X102922Y11666D2*
G1X107780Y11666D1*
G1X103080Y10586D2*
G1X107780Y10586D1*
G1X102933Y9506D2*
G1X107780Y9506D1*
G1X102440Y8426D2*
G1X107780Y8426D1*
G1X101378Y7346D2*
G1X107687Y7346D1*
G1X86505Y6266D2*
G1X107404Y6266D1*
G1X98400Y321626D2*
G1X107373Y321626D1*
G1X86505Y5186D2*
G1X106902Y5186D1*
G1X67803Y364826D2*
G1X106324Y364826D1*
G1X99480Y322706D2*
G1X106293Y322706D1*
G1X65635Y363746D2*
G1X106289Y363746D1*
G1X97121Y362666D2*
G1X106254Y362666D1*
G1X98082Y361586D2*
G1X106219Y361586D1*
G1X98228Y360506D2*
G1X106184Y360506D1*
G1X98228Y359426D2*
G1X106150Y359426D1*
G1X98228Y358346D2*
G1X106115Y358346D1*
G1X86446Y4106D2*
G1X106114Y4106D1*
G1X98228Y357266D2*
G1X106080Y357266D1*
G1X98228Y356186D2*
G1X106045Y356186D1*
G1X98228Y355106D2*
G1X106011Y355106D1*
G1X98207Y354026D2*
G1X105976Y354026D1*
G1X97717Y352946D2*
G1X105941Y352946D1*
G1X86377Y351866D2*
G1X105906Y351866D1*
G1X85973Y350786D2*
G1X105871Y350786D1*
G1X85888Y349706D2*
G1X105837Y349706D1*
G1X85888Y348626D2*
G1X105802Y348626D1*
G1X95212Y347546D2*
G1X105767Y347546D1*
G1X97808Y346466D2*
G1X105732Y346466D1*
G1X100404Y345386D2*
G1X105697Y345386D1*
G1X102999Y344306D2*
G1X105663Y344306D1*
G1X105595Y343226D2*
G1X105628Y343226D1*
G1X100560Y323786D2*
G1X105213Y323786D1*
G1X85792Y3026D2*
G1X104854Y3026D1*
G1X94379Y66746D2*
G1X104513Y66746D1*
G1X101640Y324866D2*
G1X104133Y324866D1*
G1X92932Y80786D2*
G1X101930Y80786D1*
G1X93343Y79706D2*
G1X101930Y79706D1*
G1X93571Y78626D2*
G1X101930Y78626D1*
G1X82630Y116426D2*
G1X101804Y116426D1*
G1X93493Y77546D2*
G1X101698Y77546D1*
G1X94379Y67826D2*
G1X101649Y67826D1*
G1X93085Y76466D2*
G1X101312Y76466D1*
G1X92530Y75386D2*
G1X100925Y75386D1*
G1X92651Y81866D2*
G1X100851Y81866D1*
G1X96326Y115346D2*
G1X100717Y115346D1*
G1X94379Y68906D2*
G1X100632Y68906D1*
G1X92742Y74306D2*
G1X100397Y74306D1*
G1X96645Y109946D2*
G1X100332Y109946D1*
G1X96645Y114266D2*
G1X100108Y114266D1*
G1X94379Y69986D2*
G1X100061Y69986D1*
G1X93520Y73226D2*
G1X99935Y73226D1*
G1X96645Y111026D2*
G1X99902Y111026D1*
G1X96645Y113186D2*
G1X99798Y113186D1*
G1X94379Y71066D2*
G1X99780Y71066D1*
G1X92530Y82946D2*
G1X99771Y82946D1*
G1X94287Y72146D2*
G1X99740Y72146D1*
G1X96645Y112106D2*
G1X99733Y112106D1*
G1X93069Y84026D2*
G1X98691Y84026D1*
G1X94149Y85106D2*
G1X97611Y85106D1*
G1X86505Y13826D2*
G1X97037Y13826D1*
G1X86505Y7346D2*
G1X96982Y7346D1*
G1X96372Y108866D2*
G1X96612Y108866D1*
G1X94974Y86186D2*
G1X96609Y86186D1*
G1X95228Y87266D2*
G1X96174Y87266D1*
G1X95912Y91586D2*
G1X96130Y91586D1*
G1X95587Y90506D2*
G1X96130Y90506D1*
G1X95263Y89426D2*
G1X96130Y89426D1*
G1X95230Y88346D2*
G1X96130Y88346D1*
G1X86505Y12746D2*
G1X95945Y12746D1*
G1X86505Y8426D2*
G1X95920Y8426D1*
G1X86505Y11666D2*
G1X95438Y11666D1*
G1X86505Y9506D2*
G1X95427Y9506D1*
G1X86505Y10586D2*
G1X95280Y10586D1*
G1X78528Y89426D2*
G1X89497Y89426D1*
G1X78443Y88346D2*
G1X89328Y88346D1*
G1X78735Y96986D2*
G1X89270Y96986D1*
G1X78388Y90506D2*
G1X89173Y90506D1*
G1X82623Y103466D2*
G1X89000Y103466D1*
G1X78003Y91586D2*
G1X88848Y91586D1*
G1X82326Y102386D2*
G1X88800Y102386D1*
G1X84651Y362666D2*
G1X88639Y362666D1*
G1X79233Y98066D2*
G1X88613Y98066D1*
G1X78376Y95906D2*
G1X88531Y95906D1*
G1X82630Y107786D2*
G1X88476Y107786D1*
G1X82630Y115346D2*
G1X88434Y115346D1*
G1X82630Y104546D2*
G1X88395Y104546D1*
G1X82630Y108866D2*
G1X88388Y108866D1*
G1X77303Y92666D2*
G1X88351Y92666D1*
G1X81449Y101306D2*
G1X88298Y101306D1*
G1X78122Y87266D2*
G1X88248Y87266D1*
G1X79731Y99146D2*
G1X88215Y99146D1*
G1X77979Y94826D2*
G1X88183Y94826D1*
G1X82630Y106706D2*
G1X88163Y106706D1*
G1X82630Y105626D2*
G1X88138Y105626D1*
G1X77262Y93746D2*
G1X88127Y93746D1*
G1X80369Y100226D2*
G1X88118Y100226D1*
G1X82630Y114266D2*
G1X88115Y114266D1*
G1X82630Y113186D2*
G1X88115Y113186D1*
G1X82630Y112106D2*
G1X88115Y112106D1*
G1X82630Y111026D2*
G1X88115Y111026D1*
G1X82630Y109946D2*
G1X88115Y109946D1*
G1X86780Y352946D2*
G1X88043Y352946D1*
G1X86566Y361586D2*
G1X87678Y361586D1*
G1X87183Y354026D2*
G1X87553Y354026D1*
G1X87506Y360506D2*
G1X87532Y360506D1*
G1X77511Y86186D2*
G1X87268Y86186D1*
G1X77178Y85106D2*
G1X86864Y85106D1*
G1X78060Y84026D2*
G1X86830Y84026D1*
G1X78587Y82946D2*
G1X86830Y82946D1*
G1X73486Y75386D2*
G1X86830Y75386D1*
G1X63080Y74306D2*
G1X86830Y74306D1*
G1X78860Y81866D2*
G1X86709Y81866D1*
G1X78918Y80786D2*
G1X86428Y80786D1*
G1X63080Y73226D2*
G1X86314Y73226D1*
G1X76605Y76466D2*
G1X86275Y76466D1*
G1X63080Y58106D2*
G1X86212Y58106D1*
G1X78767Y79706D2*
G1X86017Y79706D1*
G1X77723Y77546D2*
G1X85867Y77546D1*
G1X78388Y78626D2*
G1X85789Y78626D1*
G1X63080Y72146D2*
G1X85547Y72146D1*
G1X63080Y59186D2*
G1X85524Y59186D1*
G1X63080Y71066D2*
G1X85455Y71066D1*
G1X63080Y69986D2*
G1X85455Y69986D1*
G1X63080Y68906D2*
G1X85455Y68906D1*
G1X63080Y67826D2*
G1X85455Y67826D1*
G1X63080Y66746D2*
G1X85455Y66746D1*
G1X63080Y65666D2*
G1X85455Y65666D1*
G1X63080Y64586D2*
G1X85455Y64586D1*
G1X63080Y63506D2*
G1X85455Y63506D1*
G1X63080Y62426D2*
G1X85455Y62426D1*
G1X63080Y61346D2*
G1X85455Y61346D1*
G1X63080Y60266D2*
G1X85455Y60266D1*
G1X82630Y136946D2*
G1X84648Y136946D1*
G1X63080Y20306D2*
G1X84223Y20306D1*
G1X82630Y127226D2*
G1X83951Y127226D1*
G1X76430Y309746D2*
G1X83477Y309746D1*
G1X76430Y297866D2*
G1X82952Y297866D1*
G1X76430Y296786D2*
G1X82952Y296786D1*
G1X76430Y295706D2*
G1X82952Y295706D1*
G1X76430Y294626D2*
G1X82952Y294626D1*
G1X76430Y293546D2*
G1X82952Y293546D1*
G1X76430Y292466D2*
G1X82952Y292466D1*
G1X76430Y291386D2*
G1X82952Y291386D1*
G1X76430Y290306D2*
G1X82952Y290306D1*
G1X76430Y289226D2*
G1X82952Y289226D1*
G1X76430Y288146D2*
G1X82952Y288146D1*
G1X76430Y287066D2*
G1X82952Y287066D1*
G1X76430Y285986D2*
G1X82952Y285986D1*
G1X76430Y284906D2*
G1X82952Y284906D1*
G1X76430Y283826D2*
G1X82952Y283826D1*
G1X76430Y282746D2*
G1X82952Y282746D1*
G1X76430Y281666D2*
G1X82952Y281666D1*
G1X76430Y280586D2*
G1X82952Y280586D1*
G1X76430Y279506D2*
G1X82952Y279506D1*
G1X76430Y278426D2*
G1X82952Y278426D1*
G1X76430Y277346D2*
G1X82952Y277346D1*
G1X76430Y276266D2*
G1X82952Y276266D1*
G1X76430Y275186D2*
G1X82952Y275186D1*
G1X76430Y274106D2*
G1X82952Y274106D1*
G1X76430Y273026D2*
G1X82952Y273026D1*
G1X76430Y271946D2*
G1X82952Y271946D1*
G1X76430Y270866D2*
G1X82952Y270866D1*
G1X76430Y269786D2*
G1X82952Y269786D1*
G1X76430Y268706D2*
G1X82952Y268706D1*
G1X76430Y267626D2*
G1X82952Y267626D1*
G1X76430Y266546D2*
G1X82952Y266546D1*
G1X76430Y265466D2*
G1X82952Y265466D1*
G1X76430Y264386D2*
G1X82952Y264386D1*
G1X76430Y263306D2*
G1X82952Y263306D1*
G1X76430Y262226D2*
G1X82952Y262226D1*
G1X76430Y261146D2*
G1X82952Y261146D1*
G1X76430Y260066D2*
G1X82952Y260066D1*
G1X76430Y258986D2*
G1X82952Y258986D1*
G1X76430Y257906D2*
G1X82952Y257906D1*
G1X76430Y256826D2*
G1X82952Y256826D1*
G1X76430Y255746D2*
G1X82952Y255746D1*
G1X76430Y254666D2*
G1X82952Y254666D1*
G1X76430Y253586D2*
G1X82952Y253586D1*
G1X76430Y252506D2*
G1X82952Y252506D1*
G1X76430Y251426D2*
G1X82952Y251426D1*
G1X76430Y250346D2*
G1X82952Y250346D1*
G1X76430Y249266D2*
G1X82952Y249266D1*
G1X76430Y248186D2*
G1X82952Y248186D1*
G1X76430Y247106D2*
G1X82952Y247106D1*
G1X76430Y246026D2*
G1X82952Y246026D1*
G1X76430Y244946D2*
G1X82952Y244946D1*
G1X76430Y243866D2*
G1X82952Y243866D1*
G1X76430Y242786D2*
G1X82952Y242786D1*
G1X76430Y241706D2*
G1X82952Y241706D1*
G1X76430Y240626D2*
G1X82952Y240626D1*
G1X76430Y239546D2*
G1X82952Y239546D1*
G1X76430Y238466D2*
G1X82952Y238466D1*
G1X76430Y237386D2*
G1X82952Y237386D1*
G1X76430Y236306D2*
G1X82952Y236306D1*
G1X76430Y235226D2*
G1X82952Y235226D1*
G1X76430Y234146D2*
G1X82952Y234146D1*
G1X76430Y233066D2*
G1X82952Y233066D1*
G1X76430Y231986D2*
G1X82952Y231986D1*
G1X76430Y230906D2*
G1X82952Y230906D1*
G1X76430Y229826D2*
G1X82952Y229826D1*
G1X76430Y228746D2*
G1X82952Y228746D1*
G1X76430Y227666D2*
G1X82952Y227666D1*
G1X76430Y226586D2*
G1X82952Y226586D1*
G1X76430Y225506D2*
G1X82952Y225506D1*
G1X76430Y224426D2*
G1X82952Y224426D1*
G1X76430Y223346D2*
G1X82952Y223346D1*
G1X76430Y222266D2*
G1X82952Y222266D1*
G1X76430Y221186D2*
G1X82952Y221186D1*
G1X76430Y298946D2*
G1X82866Y298946D1*
G1X76430Y300026D2*
G1X82476Y300026D1*
G1X76430Y220106D2*
G1X82088Y220106D1*
G1X76430Y301106D2*
G1X82087Y301106D1*
G1X76430Y308666D2*
G1X82055Y308666D1*
G1X76430Y302186D2*
G1X81693Y302186D1*
G1X76430Y319466D2*
G1X81480Y319466D1*
G1X64522Y362666D2*
G1X81423Y362666D1*
G1X76430Y307586D2*
G1X81291Y307586D1*
G1X76430Y303266D2*
G1X81086Y303266D1*
G1X76430Y219026D2*
G1X81008Y219026D1*
G1X76430Y306506D2*
G1X80870Y306506D1*
G1X76430Y304346D2*
G1X80775Y304346D1*
G1X76430Y305426D2*
G1X80707Y305426D1*
G1X76430Y320546D2*
G1X80400Y320546D1*
G1X63080Y349706D2*
G1X80187Y349706D1*
G1X63080Y350786D2*
G1X80102Y350786D1*
G1X63080Y54866D2*
G1X79950Y54866D1*
G1X76430Y217946D2*
G1X79928Y217946D1*
G1X63080Y351866D2*
G1X79698Y351866D1*
G1X63080Y21386D2*
G1X79633Y21386D1*
G1X63813Y361586D2*
G1X79509Y361586D1*
G1X63080Y348626D2*
G1X79408Y348626D1*
G1X76430Y321626D2*
G1X79320Y321626D1*
G1X63080Y352946D2*
G1X79295Y352946D1*
G1X63080Y354026D2*
G1X78892Y354026D1*
G1X76430Y216866D2*
G1X78848Y216866D1*
G1X63369Y360506D2*
G1X78569Y360506D1*
G1X63080Y18146D2*
G1X78494Y18146D1*
G1X66006Y3026D2*
G1X78294Y3026D1*
G1X63080Y355106D2*
G1X78289Y355106D1*
G1X76430Y322706D2*
G1X78240Y322706D1*
G1X63134Y359426D2*
G1X78023Y359426D1*
G1X63080Y356186D2*
G1X77871Y356186D1*
G1X76430Y215786D2*
G1X77768Y215786D1*
G1X63080Y358346D2*
G1X77746Y358346D1*
G1X63080Y357266D2*
G1X77698Y357266D1*
G1X63080Y17066D2*
G1X77685Y17066D1*
G1X64746Y4106D2*
G1X77640Y4106D1*
G1X63080Y15986D2*
G1X77581Y15986D1*
G1X63080Y14906D2*
G1X77581Y14906D1*
G1X75062Y13826D2*
G1X77581Y13826D1*
G1X76245Y12746D2*
G1X77581Y12746D1*
G1X76791Y11666D2*
G1X77581Y11666D1*
G1X76978Y10586D2*
G1X77581Y10586D1*
G1X76860Y9506D2*
G1X77581Y9506D1*
G1X76403Y8426D2*
G1X77581Y8426D1*
G1X75418Y7346D2*
G1X77581Y7346D1*
G1X63456Y6266D2*
G1X77581Y6266D1*
G1X63958Y5186D2*
G1X77581Y5186D1*
G1X63080Y53786D2*
G1X77526Y53786D1*
G1X63080Y347546D2*
G1X77492Y347546D1*
G1X63080Y22466D2*
G1X77311Y22466D1*
G1X76430Y323786D2*
G1X77160Y323786D1*
G1X76430Y214706D2*
G1X77089Y214706D1*
G1X76430Y213626D2*
G1X76930Y213626D1*
G1X76430Y212546D2*
G1X76930Y212546D1*
G1X76430Y211466D2*
G1X76930Y211466D1*
G1X76430Y210386D2*
G1X76930Y210386D1*
G1X76430Y209306D2*
G1X76930Y209306D1*
G1X76430Y208226D2*
G1X76930Y208226D1*
G1X76430Y207146D2*
G1X76930Y207146D1*
G1X76430Y206066D2*
G1X76930Y206066D1*
G1X76430Y204986D2*
G1X76930Y204986D1*
G1X76430Y203906D2*
G1X76930Y203906D1*
G1X76430Y202826D2*
G1X76930Y202826D1*
G1X76430Y201746D2*
G1X76930Y201746D1*
G1X76430Y200666D2*
G1X76930Y200666D1*
G1X76430Y199586D2*
G1X76930Y199586D1*
G1X76430Y198506D2*
G1X76930Y198506D1*
G1X76430Y197426D2*
G1X76930Y197426D1*
G1X76430Y196346D2*
G1X76930Y196346D1*
G1X76430Y195266D2*
G1X76930Y195266D1*
G1X76430Y194186D2*
G1X76930Y194186D1*
G1X76430Y193106D2*
G1X76930Y193106D1*
G1X76430Y192026D2*
G1X76930Y192026D1*
G1X76430Y190946D2*
G1X76930Y190946D1*
G1X76430Y189866D2*
G1X76930Y189866D1*
G1X76430Y188786D2*
G1X76930Y188786D1*
G1X76430Y187706D2*
G1X76930Y187706D1*
G1X76430Y186626D2*
G1X76930Y186626D1*
G1X76430Y185546D2*
G1X76930Y185546D1*
G1X76430Y184466D2*
G1X76930Y184466D1*
G1X76430Y183386D2*
G1X76930Y183386D1*
G1X76430Y182306D2*
G1X76930Y182306D1*
G1X76430Y181226D2*
G1X76930Y181226D1*
G1X76430Y180146D2*
G1X76930Y180146D1*
G1X76430Y179066D2*
G1X76930Y179066D1*
G1X76430Y177986D2*
G1X76930Y177986D1*
G1X76430Y176906D2*
G1X76930Y176906D1*
G1X76430Y175826D2*
G1X76930Y175826D1*
G1X76430Y174746D2*
G1X76930Y174746D1*
G1X76430Y173666D2*
G1X76930Y173666D1*
G1X76430Y172586D2*
G1X76930Y172586D1*
G1X76430Y171506D2*
G1X76930Y171506D1*
G1X76430Y170426D2*
G1X76930Y170426D1*
G1X76430Y169346D2*
G1X76930Y169346D1*
G1X76430Y168266D2*
G1X76930Y168266D1*
G1X76430Y167186D2*
G1X76930Y167186D1*
G1X76430Y166106D2*
G1X76930Y166106D1*
G1X76430Y165026D2*
G1X76930Y165026D1*
G1X76430Y163946D2*
G1X76930Y163946D1*
G1X76430Y162866D2*
G1X76930Y162866D1*
G1X76430Y161786D2*
G1X76930Y161786D1*
G1X76430Y160706D2*
G1X76930Y160706D1*
G1X76430Y159626D2*
G1X76930Y159626D1*
G1X76430Y158546D2*
G1X76930Y158546D1*
G1X76430Y157466D2*
G1X76930Y157466D1*
G1X76430Y156386D2*
G1X76930Y156386D1*
G1X76430Y155306D2*
G1X76930Y155306D1*
G1X76430Y154226D2*
G1X76930Y154226D1*
G1X76430Y153146D2*
G1X76930Y153146D1*
G1X76430Y152066D2*
G1X76930Y152066D1*
G1X76430Y150986D2*
G1X76930Y150986D1*
G1X76430Y149906D2*
G1X76930Y149906D1*
G1X76430Y148826D2*
G1X76930Y148826D1*
G1X76430Y147746D2*
G1X76930Y147746D1*
G1X76430Y146666D2*
G1X76930Y146666D1*
G1X76430Y145586D2*
G1X76930Y145586D1*
G1X76430Y144506D2*
G1X76930Y144506D1*
G1X76430Y143426D2*
G1X76930Y143426D1*
G1X76430Y142346D2*
G1X76930Y142346D1*
G1X76430Y141266D2*
G1X76930Y141266D1*
G1X76430Y140186D2*
G1X76930Y140186D1*
G1X76430Y139106D2*
G1X76930Y139106D1*
G1X76430Y138026D2*
G1X76930Y138026D1*
G1X76430Y136946D2*
G1X76930Y136946D1*
G1X76430Y135866D2*
G1X76930Y135866D1*
G1X76430Y134786D2*
G1X76930Y134786D1*
G1X76430Y133706D2*
G1X76930Y133706D1*
G1X76430Y132626D2*
G1X76930Y132626D1*
G1X76430Y131546D2*
G1X76930Y131546D1*
G1X76430Y130466D2*
G1X76930Y130466D1*
G1X76430Y129386D2*
G1X76930Y129386D1*
G1X76430Y128306D2*
G1X76930Y128306D1*
G1X76430Y127226D2*
G1X76930Y127226D1*
G1X76530Y126146D2*
G1X76930Y126146D1*
G1X76811Y125066D2*
G1X76930Y125066D1*
G1X63080Y346466D2*
G1X76710Y346466D1*
G1X63080Y345386D2*
G1X75928Y345386D1*
G1X63080Y52706D2*
G1X75769Y52706D1*
G1X63080Y23546D2*
G1X75603Y23546D1*
G1X63080Y344306D2*
G1X75088Y344306D1*
G1X63080Y51626D2*
G1X74373Y51626D1*
G1X63080Y24626D2*
G1X74238Y24626D1*
G1X63080Y343226D2*
G1X74008Y343226D1*
G1X63080Y50546D2*
G1X73219Y50546D1*
G1X63080Y25706D2*
G1X73106Y25706D1*
G1X63080Y75386D2*
G1X73074Y75386D1*
G1X63080Y342146D2*
G1X72928Y342146D1*
G1X63080Y49466D2*
G1X72246Y49466D1*
G1X63080Y26786D2*
G1X72149Y26786D1*
G1X63080Y341066D2*
G1X71848Y341066D1*
G1X63080Y48386D2*
G1X71417Y48386D1*
G1X63080Y27866D2*
G1X71335Y27866D1*
G1X63080Y118586D2*
G1X71280Y118586D1*
G1X63080Y13826D2*
G1X71098Y13826D1*
G1X63080Y339986D2*
G1X71004Y339986D1*
G1X63080Y119666D2*
G1X70974Y119666D1*
G1X63173Y7346D2*
G1X70742Y7346D1*
G1X63080Y338906D2*
G1X70733Y338906D1*
G1X63080Y337826D2*
G1X70730Y337826D1*
G1X63080Y336746D2*
G1X70730Y336746D1*
G1X63080Y335666D2*
G1X70730Y335666D1*
G1X63080Y334586D2*
G1X70730Y334586D1*
G1X63080Y333506D2*
G1X70730Y333506D1*
G1X63080Y332426D2*
G1X70730Y332426D1*
G1X63080Y331346D2*
G1X70730Y331346D1*
G1X63080Y330266D2*
G1X70730Y330266D1*
G1X63080Y329186D2*
G1X70730Y329186D1*
G1X63080Y328106D2*
G1X70730Y328106D1*
G1X63080Y327026D2*
G1X70730Y327026D1*
G1X63080Y325946D2*
G1X70730Y325946D1*
G1X63080Y324866D2*
G1X70730Y324866D1*
G1X63080Y323786D2*
G1X70730Y323786D1*
G1X63080Y322706D2*
G1X70730Y322706D1*
G1X63080Y321626D2*
G1X70730Y321626D1*
G1X63080Y320546D2*
G1X70730Y320546D1*
G1X63080Y319466D2*
G1X70730Y319466D1*
G1X63080Y318386D2*
G1X70730Y318386D1*
G1X63080Y317306D2*
G1X70730Y317306D1*
G1X63080Y316226D2*
G1X70730Y316226D1*
G1X63080Y315146D2*
G1X70730Y315146D1*
G1X63080Y314066D2*
G1X70730Y314066D1*
G1X63080Y312986D2*
G1X70730Y312986D1*
G1X63080Y311906D2*
G1X70730Y311906D1*
G1X63080Y310826D2*
G1X70730Y310826D1*
G1X63080Y309746D2*
G1X70730Y309746D1*
G1X63080Y308666D2*
G1X70730Y308666D1*
G1X63080Y307586D2*
G1X70730Y307586D1*
G1X63080Y306506D2*
G1X70730Y306506D1*
G1X63080Y305426D2*
G1X70730Y305426D1*
G1X63080Y304346D2*
G1X70730Y304346D1*
G1X63080Y303266D2*
G1X70730Y303266D1*
G1X63080Y302186D2*
G1X70730Y302186D1*
G1X63080Y301106D2*
G1X70730Y301106D1*
G1X63080Y300026D2*
G1X70730Y300026D1*
G1X63080Y298946D2*
G1X70730Y298946D1*
G1X63080Y297866D2*
G1X70730Y297866D1*
G1X63080Y296786D2*
G1X70730Y296786D1*
G1X63080Y295706D2*
G1X70730Y295706D1*
G1X63080Y294626D2*
G1X70730Y294626D1*
G1X63080Y293546D2*
G1X70730Y293546D1*
G1X63080Y292466D2*
G1X70730Y292466D1*
G1X63080Y291386D2*
G1X70730Y291386D1*
G1X63080Y290306D2*
G1X70730Y290306D1*
G1X63080Y289226D2*
G1X70730Y289226D1*
G1X63080Y288146D2*
G1X70730Y288146D1*
G1X63080Y287066D2*
G1X70730Y287066D1*
G1X63080Y285986D2*
G1X70730Y285986D1*
G1X63080Y284906D2*
G1X70730Y284906D1*
G1X63080Y283826D2*
G1X70730Y283826D1*
G1X63080Y282746D2*
G1X70730Y282746D1*
G1X63080Y281666D2*
G1X70730Y281666D1*
G1X63080Y280586D2*
G1X70730Y280586D1*
G1X63080Y279506D2*
G1X70730Y279506D1*
G1X63080Y278426D2*
G1X70730Y278426D1*
G1X63080Y277346D2*
G1X70730Y277346D1*
G1X63080Y276266D2*
G1X70730Y276266D1*
G1X63080Y275186D2*
G1X70730Y275186D1*
G1X63080Y274106D2*
G1X70730Y274106D1*
G1X63080Y273026D2*
G1X70730Y273026D1*
G1X63080Y271946D2*
G1X70730Y271946D1*
G1X63080Y270866D2*
G1X70730Y270866D1*
G1X63080Y269786D2*
G1X70730Y269786D1*
G1X63080Y268706D2*
G1X70730Y268706D1*
G1X63080Y267626D2*
G1X70730Y267626D1*
G1X63080Y266546D2*
G1X70730Y266546D1*
G1X63080Y265466D2*
G1X70730Y265466D1*
G1X63080Y264386D2*
G1X70730Y264386D1*
G1X63080Y263306D2*
G1X70730Y263306D1*
G1X63080Y262226D2*
G1X70730Y262226D1*
G1X63080Y261146D2*
G1X70730Y261146D1*
G1X63080Y260066D2*
G1X70730Y260066D1*
G1X63080Y258986D2*
G1X70730Y258986D1*
G1X63080Y257906D2*
G1X70730Y257906D1*
G1X63080Y256826D2*
G1X70730Y256826D1*
G1X63080Y255746D2*
G1X70730Y255746D1*
G1X63080Y254666D2*
G1X70730Y254666D1*
G1X63080Y253586D2*
G1X70730Y253586D1*
G1X63080Y252506D2*
G1X70730Y252506D1*
G1X63080Y251426D2*
G1X70730Y251426D1*
G1X63080Y250346D2*
G1X70730Y250346D1*
G1X63080Y249266D2*
G1X70730Y249266D1*
G1X63080Y248186D2*
G1X70730Y248186D1*
G1X63080Y247106D2*
G1X70730Y247106D1*
G1X63080Y246026D2*
G1X70730Y246026D1*
G1X63080Y244946D2*
G1X70730Y244946D1*
G1X63080Y243866D2*
G1X70730Y243866D1*
G1X63080Y242786D2*
G1X70730Y242786D1*
G1X63080Y241706D2*
G1X70730Y241706D1*
G1X63080Y240626D2*
G1X70730Y240626D1*
G1X63080Y239546D2*
G1X70730Y239546D1*
G1X63080Y238466D2*
G1X70730Y238466D1*
G1X63080Y237386D2*
G1X70730Y237386D1*
G1X63080Y236306D2*
G1X70730Y236306D1*
G1X63080Y235226D2*
G1X70730Y235226D1*
G1X63080Y234146D2*
G1X70730Y234146D1*
G1X63080Y233066D2*
G1X70730Y233066D1*
G1X63080Y231986D2*
G1X70730Y231986D1*
G1X63080Y230906D2*
G1X70730Y230906D1*
G1X63080Y229826D2*
G1X70730Y229826D1*
G1X63080Y228746D2*
G1X70730Y228746D1*
G1X63080Y227666D2*
G1X70730Y227666D1*
G1X63080Y226586D2*
G1X70730Y226586D1*
G1X63080Y225506D2*
G1X70730Y225506D1*
G1X63080Y224426D2*
G1X70730Y224426D1*
G1X63080Y223346D2*
G1X70730Y223346D1*
G1X63080Y222266D2*
G1X70730Y222266D1*
G1X63080Y221186D2*
G1X70730Y221186D1*
G1X63080Y220106D2*
G1X70730Y220106D1*
G1X63080Y219026D2*
G1X70730Y219026D1*
G1X63080Y217946D2*
G1X70730Y217946D1*
G1X63080Y216866D2*
G1X70730Y216866D1*
G1X63080Y215786D2*
G1X70730Y215786D1*
G1X63080Y214706D2*
G1X70730Y214706D1*
G1X63080Y213626D2*
G1X70730Y213626D1*
G1X63080Y212546D2*
G1X70730Y212546D1*
G1X63080Y211466D2*
G1X70730Y211466D1*
G1X63080Y210386D2*
G1X70730Y210386D1*
G1X63080Y209306D2*
G1X70730Y209306D1*
G1X63080Y208226D2*
G1X70730Y208226D1*
G1X63080Y207146D2*
G1X70730Y207146D1*
G1X63080Y206066D2*
G1X70730Y206066D1*
G1X63080Y204986D2*
G1X70730Y204986D1*
G1X63080Y203906D2*
G1X70730Y203906D1*
G1X63080Y202826D2*
G1X70730Y202826D1*
G1X63080Y201746D2*
G1X70730Y201746D1*
G1X63080Y200666D2*
G1X70730Y200666D1*
G1X63080Y199586D2*
G1X70730Y199586D1*
G1X63080Y198506D2*
G1X70730Y198506D1*
G1X63080Y197426D2*
G1X70730Y197426D1*
G1X63080Y196346D2*
G1X70730Y196346D1*
G1X63080Y195266D2*
G1X70730Y195266D1*
G1X63080Y194186D2*
G1X70730Y194186D1*
G1X63080Y193106D2*
G1X70730Y193106D1*
G1X63080Y192026D2*
G1X70730Y192026D1*
G1X63080Y190946D2*
G1X70730Y190946D1*
G1X63080Y189866D2*
G1X70730Y189866D1*
G1X63080Y188786D2*
G1X70730Y188786D1*
G1X63080Y187706D2*
G1X70730Y187706D1*
G1X63080Y186626D2*
G1X70730Y186626D1*
G1X63080Y185546D2*
G1X70730Y185546D1*
G1X63080Y184466D2*
G1X70730Y184466D1*
G1X63080Y183386D2*
G1X70730Y183386D1*
G1X63080Y182306D2*
G1X70730Y182306D1*
G1X63080Y181226D2*
G1X70730Y181226D1*
G1X63080Y180146D2*
G1X70730Y180146D1*
G1X63080Y179066D2*
G1X70730Y179066D1*
G1X63080Y177986D2*
G1X70730Y177986D1*
G1X63080Y176906D2*
G1X70730Y176906D1*
G1X63080Y175826D2*
G1X70730Y175826D1*
G1X63080Y174746D2*
G1X70730Y174746D1*
G1X63080Y173666D2*
G1X70730Y173666D1*
G1X63080Y172586D2*
G1X70730Y172586D1*
G1X63080Y171506D2*
G1X70730Y171506D1*
G1X63080Y170426D2*
G1X70730Y170426D1*
G1X63080Y169346D2*
G1X70730Y169346D1*
G1X63080Y168266D2*
G1X70730Y168266D1*
G1X63080Y167186D2*
G1X70730Y167186D1*
G1X63080Y166106D2*
G1X70730Y166106D1*
G1X63080Y165026D2*
G1X70730Y165026D1*
G1X63080Y163946D2*
G1X70730Y163946D1*
G1X63080Y162866D2*
G1X70730Y162866D1*
G1X63080Y161786D2*
G1X70730Y161786D1*
G1X63080Y160706D2*
G1X70730Y160706D1*
G1X63080Y159626D2*
G1X70730Y159626D1*
G1X63080Y158546D2*
G1X70730Y158546D1*
G1X63080Y157466D2*
G1X70730Y157466D1*
G1X63080Y156386D2*
G1X70730Y156386D1*
G1X63080Y155306D2*
G1X70730Y155306D1*
G1X63080Y154226D2*
G1X70730Y154226D1*
G1X63080Y153146D2*
G1X70730Y153146D1*
G1X63080Y152066D2*
G1X70730Y152066D1*
G1X63080Y150986D2*
G1X70730Y150986D1*
G1X63080Y149906D2*
G1X70730Y149906D1*
G1X63080Y148826D2*
G1X70730Y148826D1*
G1X63080Y147746D2*
G1X70730Y147746D1*
G1X63080Y146666D2*
G1X70730Y146666D1*
G1X63080Y145586D2*
G1X70730Y145586D1*
G1X63080Y144506D2*
G1X70730Y144506D1*
G1X63080Y143426D2*
G1X70730Y143426D1*
G1X63080Y142346D2*
G1X70730Y142346D1*
G1X63080Y141266D2*
G1X70730Y141266D1*
G1X63080Y140186D2*
G1X70730Y140186D1*
G1X63080Y139106D2*
G1X70730Y139106D1*
G1X63080Y138026D2*
G1X70730Y138026D1*
G1X63080Y136946D2*
G1X70730Y136946D1*
G1X63080Y135866D2*
G1X70730Y135866D1*
G1X63080Y134786D2*
G1X70730Y134786D1*
G1X63080Y133706D2*
G1X70730Y133706D1*
G1X63080Y132626D2*
G1X70730Y132626D1*
G1X63080Y131546D2*
G1X70730Y131546D1*
G1X63080Y130466D2*
G1X70730Y130466D1*
G1X63080Y129386D2*
G1X70730Y129386D1*
G1X63080Y128306D2*
G1X70730Y128306D1*
G1X63080Y127226D2*
G1X70730Y127226D1*
G1X63080Y47306D2*
G1X70709Y47306D1*
G1X63080Y28946D2*
G1X70639Y28946D1*
G1X63080Y126146D2*
G1X70630Y126146D1*
G1X63080Y125066D2*
G1X70349Y125066D1*
G1X63080Y120746D2*
G1X70131Y120746D1*
G1X63080Y46226D2*
G1X70106Y46226D1*
G1X63080Y30026D2*
G1X70046Y30026D1*
G1X63080Y76466D2*
G1X69955Y76466D1*
G1X63080Y123986D2*
G1X69947Y123986D1*
G1X63080Y12746D2*
G1X69915Y12746D1*
G1X63080Y8426D2*
G1X69757Y8426D1*
G1X63080Y121826D2*
G1X69751Y121826D1*
G1X63080Y122906D2*
G1X69695Y122906D1*
G1X63080Y108866D2*
G1X69684Y108866D1*
G1X63080Y45146D2*
G1X69596Y45146D1*
G1X63080Y101306D2*
G1X69591Y101306D1*
G1X63080Y31106D2*
G1X69545Y31106D1*
G1X63080Y117506D2*
G1X69507Y117506D1*
G1X63080Y85106D2*
G1X69382Y85106D1*
G1X63080Y11666D2*
G1X69369Y11666D1*
G1X63080Y9506D2*
G1X69300Y9506D1*
G1X63080Y93746D2*
G1X69298Y93746D1*
G1X63080Y92666D2*
G1X69257Y92666D1*
G1X63080Y10586D2*
G1X69182Y10586D1*
G1X63080Y44066D2*
G1X69170Y44066D1*
G1X63080Y32186D2*
G1X69129Y32186D1*
G1X63080Y86186D2*
G1X69049Y86186D1*
G1X63080Y100226D2*
G1X69014Y100226D1*
G1X63080Y77546D2*
G1X68837Y77546D1*
G1X63080Y42986D2*
G1X68823Y42986D1*
G1X63080Y107786D2*
G1X68805Y107786D1*
G1X63080Y33266D2*
G1X68790Y33266D1*
G1X63080Y102386D2*
G1X68751Y102386D1*
G1X63080Y109946D2*
G1X68748Y109946D1*
G1X63080Y94826D2*
G1X68581Y94826D1*
G1X63080Y116426D2*
G1X68576Y116426D1*
G1X63080Y91586D2*
G1X68557Y91586D1*
G1X63080Y41906D2*
G1X68550Y41906D1*
G1X63080Y34346D2*
G1X68524Y34346D1*
G1X63080Y84026D2*
G1X68500Y84026D1*
G1X63080Y87266D2*
G1X68438Y87266D1*
G1X63080Y99146D2*
G1X68418Y99146D1*
G1X63080Y40826D2*
G1X68346Y40826D1*
G1X63080Y35426D2*
G1X68328Y35426D1*
G1X63080Y106706D2*
G1X68301Y106706D1*
G1X63080Y103466D2*
G1X68272Y103466D1*
G1X63080Y39746D2*
G1X68211Y39746D1*
G1X63080Y36506D2*
G1X68200Y36506D1*
G1X63080Y95906D2*
G1X68184Y95906D1*
G1X63080Y90506D2*
G1X68172Y90506D1*
G1X63080Y78626D2*
G1X68172Y78626D1*
G1X63080Y38666D2*
G1X68142Y38666D1*
G1X63080Y37586D2*
G1X68138Y37586D1*
G1X63080Y111026D2*
G1X68119Y111026D1*
G1X63080Y88346D2*
G1X68117Y88346D1*
G1X63080Y98066D2*
G1X68108Y98066D1*
G1X63080Y105626D2*
G1X68063Y105626D1*
G1X63080Y104546D2*
G1X68054Y104546D1*
G1X63080Y96986D2*
G1X68034Y96986D1*
G1X63080Y89426D2*
G1X68032Y89426D1*
G1X63080Y115346D2*
G1X68017Y115346D1*
G1X63080Y82946D2*
G1X67973Y82946D1*
G1X63080Y79706D2*
G1X67793Y79706D1*
G1X63080Y112106D2*
G1X67766Y112106D1*
G1X63080Y114266D2*
G1X67718Y114266D1*
G1X63080Y81866D2*
G1X67700Y81866D1*
G1X63080Y80786D2*
G1X67642Y80786D1*
G1X63080Y113186D2*
G1X67638Y113186D1*
G1X95960Y102386D2*
G1X95979Y102386D1*
G1X95490Y96986D2*
G1X96130Y96986D1*
G1X104780Y77697D2*
G54D39*
G1X103222Y73349D1*
G1X104780Y75494D1*
G1X106338Y73349D1*
G1X104780Y77697D1*
G1X103444Y73967D2*
G1X103671Y73967D1*
G1X105889Y73967D2*
G1X106116Y73967D1*
G1X103981Y75467D2*
G1X104760Y75467D1*
G1X104800Y75467D2*
G1X105579Y75467D1*
G1X104519Y76967D2*
G1X105041Y76967D1*
G1X104580Y75219D2*
G1X104580Y77139D1*
G1X106080Y73704D2*
G1X106080Y74068D1*
G1X98980Y102167D2*
G1X99722Y105025D1*
G1X98980Y103217D1*
G1X98238Y105025D1*
G1X98980Y102167D1*
G1X98902Y102467D2*
G1X99058Y102467D1*
G1X98512Y103967D2*
G1X98672Y103967D1*
G1X99288Y103967D2*
G1X99448Y103967D1*
G1X98580Y103706D2*
G1X98580Y104191D1*
G1X89680Y81967D2*
G1X88938Y79109D1*
G1X89680Y80917D1*
G1X90422Y79109D1*
G1X89680Y81967D1*
G1X89160Y79967D2*
G1X89290Y79967D1*
G1X90070Y79967D2*
G1X90200Y79967D1*
G1X89550Y81467D2*
G1X89810Y81467D1*
G1X89580Y80674D2*
G1X89580Y81582D1*
G1X92380Y89736D2*
G1X93381Y93066D1*
G1X92380Y91152D1*
G1X91379Y93066D1*
G1X92380Y89736D1*
G1X92160Y90467D2*
G1X92600Y90467D1*
G1X91710Y91967D2*
G1X91954Y91967D1*
G1X92806Y91967D2*
G1X93050Y91967D1*
G1X92580Y90402D2*
G1X92580Y91534D1*
G1X103880Y97567D2*
G1X103138Y94709D1*
G1X103880Y96517D1*
G1X104622Y94709D1*
G1X103880Y97567D1*
G1X103204Y94967D2*
G1X103243Y94967D1*
G1X104517Y94967D2*
G1X104556Y94967D1*
G1X103594Y96467D2*
G1X103859Y96467D1*
G1X103901Y96467D2*
G1X104166Y96467D1*
G1X104580Y94813D2*
G1X104580Y94873D1*
G1X104780Y106437D2*
G1X106338Y110785D1*
G1X104780Y108640D1*
G1X103222Y110785D1*
G1X104780Y106437D1*
G1X104590Y106967D2*
G1X104970Y106967D1*
G1X104053Y108467D2*
G1X105507Y108467D1*
G1X103515Y109967D2*
G1X103816Y109967D1*
G1X105744Y109967D2*
G1X106045Y109967D1*
G1X104580Y106995D2*
G1X104580Y108915D1*
G1X106080Y110066D2*
G1X106080Y110430D1*
G1X77734Y101621D2*
G1X73280Y99567D1*
G1X76037Y99924D1*
G1X75680Y97167D1*
G1X77734Y101621D1*
G1X75783Y97967D2*
G1X76049Y97967D1*
G1X75978Y99467D2*
G1X76741Y99467D1*
G1X76316Y100967D2*
G1X77432Y100967D1*
G1X74580Y99735D2*
G1X74580Y100166D1*
G1X76080Y98035D2*
G1X76080Y100858D1*
G1X77580Y101287D2*
G1X77580Y101550D1*
G1X85802Y299206D2*
G1X87393Y303615D1*
G1X85802Y301456D1*
G1X84211Y303615D1*
G1X85802Y299206D1*
G1X85347Y300467D2*
G1X86257Y300467D1*
G1X84806Y301967D2*
G1X85426Y301967D1*
G1X86178Y301967D2*
G1X86798Y301967D1*
G1X84265Y303467D2*
G1X84320Y303467D1*
G1X87284Y303467D2*
G1X87339Y303467D1*
G1X85080Y301207D2*
G1X85080Y302436D1*
G1X86580Y301362D2*
G1X86580Y302512D1*
G1X73580Y126167D2*
G1X72838Y123309D1*
G1X73580Y125117D1*
G1X74322Y123309D1*
G1X73580Y126167D1*
G1X72878Y123467D2*
G1X72902Y123467D1*
G1X74258Y123467D2*
G1X74282Y123467D1*
G1X73268Y124967D2*
G1X73518Y124967D1*
G1X73642Y124967D2*
G1X73892Y124967D1*
G1X73080Y123900D2*
G1X73080Y124243D1*
G1X83037Y351071D2*
G1X84804Y355801D1*
G1X83037Y353569D1*
G1X81271Y355801D1*
G1X83037Y351071D1*
G1X82890Y351467D2*
G1X83185Y351467D1*
G1X82329Y352967D2*
G1X83746Y352967D1*
G1X81769Y354467D2*
G1X82327Y354467D1*
G1X83748Y354467D2*
G1X84306Y354467D1*
G1X82080Y353635D2*
G1X82080Y354779D1*
G1X83580Y352524D2*
G1X83580Y354254D1*
G1X73080Y10467D2*
G1X73121Y10508D1*
G1X82043Y10508D1*
G1X89917Y65626D2*
G1X89917Y73930D1*
G1X89680Y74167D1*
G1X89680Y78367D1*
G1X104780Y71791D2*
G1X104780Y81967D1*
G1X98980Y87767D1*
G1X98980Y105767D1*
G1X89680Y78367D2*
G1X89680Y84667D1*
G1X92380Y87367D1*
G1X92380Y94067D1*
G1X103880Y93967D2*
G1X103880Y102067D1*
G1X104780Y102967D1*
G1X104780Y112343D1*
G1X73280Y97167D2*
G1X79780Y103667D1*
G1X79780Y213767D1*
G1X85802Y219789D1*
G1X85802Y305206D1*
G1X73580Y122567D2*
G1X73580Y338767D1*
G1X83037Y348224D1*
G1X83037Y357567D1*
G1X95396Y97051D2*
G1X93911Y98536D1*
G1X95396Y103083D2*
G1X93911Y101598D1*
G1X89364Y103083D2*
G1X90849Y101598D1*
G1X89364Y97051D2*
G1X90849Y98536D1*
G1X88147Y352834D2*
G1X90583Y355270D1*
G1X88147Y362300D2*
G1X90583Y359864D1*
G1X97613Y362300D2*
G1X95177Y359864D1*
G1X97613Y352834D2*
G1X95177Y355270D1*
G1X89408Y135584D2*
G1X87923Y134099D1*
G1X89408Y128372D2*
G1X87923Y129857D1*
G1X101938Y13325D2*
G1X100453Y11840D1*
G1X96422Y13325D2*
G1X97907Y11840D1*
G1X96422Y7809D2*
G1X97907Y9294D1*
G1X101938Y7809D2*
G1X100453Y9294D1*
G1X75838Y13225D2*
G1X74353Y11740D1*
G1X70322Y13225D2*
G1X71807Y11740D1*
G1X70322Y7709D2*
G1X71807Y9194D1*
G1X75838Y7709D2*
G1X74353Y9194D1*
G1X85890Y17898D2*
G54D40*
G1X83713Y15722D1*
G1X78196Y17898D2*
G1X80373Y15722D1*
G1X78196Y3118D2*
G1X80373Y5294D1*
G1X85890Y3118D2*
G1X83713Y5294D1*
G1X98600Y50687D2*
G1X97116Y49203D1*
G1X98600Y25447D2*
G1X97116Y26931D1*
G1X73360Y25447D2*
G1X74844Y26931D1*
G1X73360Y50687D2*
G1X74844Y49203D1*
G54D41*
G1X92880Y357567D3*
G54D42*
G1X83037Y357567D3*
G54D61*
G1X104780Y112343D3*
G1X104780Y71791D3*
G54D65*
G1X73280Y89293D3*
G1X73280Y97167D3*
G1X73280Y105041D3*
G54D66*
G1X73080Y10467D3*
G1X99180Y10567D3*
G1X89680Y78367D3*
G1X103880Y93967D3*
G1X98980Y105767D3*
G1X73580Y122567D3*
G54D68*
G1X73280Y113309D3*
G1X73280Y81025D3*
G54D98*
G1X92380Y112067D3*
G54D99*
G1X92380Y106067D3*
G1X92380Y100067D3*
G1X92380Y94067D3*
G54D102*
G1X82043Y10508D3*
G1X89917Y65626D3*
G54D103*
G1X85980Y38067D3*
M2*
