M48
INCH,TZ
FMAT,2
ICI,OFF
T01C.016F095S3
T02C.02362F197S55
T03C.035F197S55
T04C.03543F197S55
T05C.03937F197S55
T06C.05118F107S55
%
T01
G05
X7308Y1047
X7358Y12257
X9918Y1057
X8968Y7837
X10388Y9397
X9898Y10577
T02
X9238Y9407
X9238Y10007
X9238Y10607
X9238Y11207
T03
X8580Y13198
X8580Y30521
T04
X10478Y7179
X10478Y11235
T05
X7328Y8930
X7328Y9717
X7328Y10504
X8304Y35757
X9288Y35757
T06
X7328Y8103
X7328Y11331
M30
