*
%LPD*%
%LNKIMONO2-ST*%
%FSLAX25Y25*%
%MOIN*%
%AD*%
%AD*%
%ADD11C,0.007870079*%
%ADD27C,0.009840157*%
%ADD37C,0.008*%
%ADD38C,0.012*%
%ADD40C,0.01*%
%ADD101C,0.001*%
G54D101*
%SRX1Y1I0.0J0.0*%
G1X107630Y23281D2*
G1X106073Y23281D1*
G1X106023Y23331D1*
G1X106023Y24665D1*
G1X105971Y24924D1*
G1X105869Y25178D1*
G1X105719Y25328D1*
G1X105358Y25586D1*
G1X104945Y25638D1*
G1X104690Y25638D1*
G1X104437Y25537D1*
G1X104231Y25382D1*
G1X104081Y25232D1*
G1X103924Y24763D1*
G1X103873Y24557D1*
G1X103873Y22845D1*
G1X107630Y22845D1*
G1X107630Y23281D1*
G1X105694Y24295D2*
G1X105694Y23331D1*
G1X105644Y23281D1*
G1X104251Y23281D1*
G1X104201Y23331D1*
G1X104201Y24563D1*
G1X104204Y24579D1*
G1X104311Y24900D1*
G1X104323Y24920D1*
G1X104484Y25080D1*
G1X104497Y25090D1*
G1X104711Y25197D1*
G1X104734Y25202D1*
G1X104948Y25202D1*
G1X104958Y25201D1*
G1X105225Y25148D1*
G1X105241Y25142D1*
G1X105509Y24981D1*
G1X105530Y24957D1*
G1X105637Y24689D1*
G1X105640Y24677D1*
G1X105694Y24302D1*
G1X105694Y24295D1*
G1X107630Y29471D2*
G1X103873Y27958D1*
G1X103873Y27436D1*
G1X107630Y25923D1*
G1X107630Y26403D1*
G1X106484Y26820D1*
G1X106451Y26867D1*
G1X106451Y28527D1*
G1X106484Y28574D1*
G1X107630Y28991D1*
G1X107630Y29471D1*
G1X106123Y28367D2*
G1X106123Y27027D1*
G1X106055Y26981D1*
G1X104930Y27409D1*
G1X104233Y27677D1*
G1X104238Y27772D1*
G1X104611Y27878D1*
G1X105037Y28038D1*
G1X106056Y28413D1*
G1X106123Y28367D1*
G1X107630Y30459D2*
G1X106073Y30459D1*
G1X106023Y30509D1*
G1X106023Y31844D1*
G1X105971Y32102D1*
G1X105869Y32356D1*
G1X105719Y32507D1*
G1X105358Y32765D1*
G1X104945Y32817D1*
G1X104690Y32817D1*
G1X104437Y32715D1*
G1X104231Y32561D1*
G1X104081Y32411D1*
G1X103924Y31942D1*
G1X103873Y31735D1*
G1X103873Y30024D1*
G1X107630Y30024D1*
G1X107630Y30459D1*
G1X105694Y31474D2*
G1X105694Y30509D1*
G1X105644Y30459D1*
G1X104251Y30459D1*
G1X104201Y30509D1*
G1X104201Y31742D1*
G1X104204Y31757D1*
G1X104311Y32079D1*
G1X104323Y32098D1*
G1X104484Y32259D1*
G1X104497Y32268D1*
G1X104711Y32376D1*
G1X104734Y32381D1*
G1X104948Y32381D1*
G1X104958Y32380D1*
G1X105225Y32326D1*
G1X105241Y32320D1*
G1X105509Y32159D1*
G1X105530Y32135D1*
G1X105637Y31867D1*
G1X105640Y31856D1*
G1X105694Y31481D1*
G1X105694Y31474D1*
G1X107630Y36406D2*
G1X107301Y36406D1*
G1X107301Y34099D1*
G1X107251Y34049D1*
G1X105912Y34049D1*
G1X105862Y34099D1*
G1X105862Y36138D1*
G1X105534Y36138D1*
G1X105534Y34099D1*
G1X105484Y34049D1*
G1X104251Y34049D1*
G1X104201Y34099D1*
G1X104201Y36299D1*
G1X103873Y36299D1*
G1X103873Y33613D1*
G1X107630Y33613D1*
G1X107630Y36406D1*
G1X107630Y40385D2*
G1X106637Y39790D1*
G1X106374Y39579D1*
G1X106164Y39369D1*
G1X105951Y39103D1*
G1X105864Y39122D1*
G1X105759Y39540D1*
G1X105502Y39849D1*
G1X105249Y40051D1*
G1X104895Y40102D1*
G1X104586Y40050D1*
G1X104330Y39948D1*
G1X104129Y39797D1*
G1X103977Y39545D1*
G1X103926Y39287D1*
G1X103873Y38810D1*
G1X103873Y37202D1*
G1X107630Y37202D1*
G1X107630Y37638D1*
G1X105966Y37638D1*
G1X105916Y37688D1*
G1X105916Y38545D1*
G1X105921Y38567D1*
G1X106028Y38782D1*
G1X106037Y38795D1*
G1X106145Y38902D1*
G1X106152Y38908D1*
G1X106312Y39015D1*
G1X106525Y39174D1*
G1X106527Y39176D1*
G1X106849Y39390D1*
G1X106851Y39392D1*
G1X107630Y39859D1*
G1X107630Y40385D1*
G1X105587Y39027D2*
G1X105587Y37688D1*
G1X105537Y37638D1*
G1X104251Y37638D1*
G1X104201Y37688D1*
G1X104201Y38867D1*
G1X104202Y38875D1*
G1X104256Y39196D1*
G1X104259Y39207D1*
G1X104366Y39474D1*
G1X104390Y39501D1*
G1X104604Y39608D1*
G1X104617Y39612D1*
G1X104884Y39666D1*
G1X104910Y39664D1*
G1X105231Y39557D1*
G1X105251Y39545D1*
G1X105519Y39277D1*
G1X105532Y39254D1*
G1X105586Y39039D1*
G1X105587Y39027D1*
G1X107630Y44189D2*
G1X103873Y45651D1*
G1X103873Y45169D1*
G1X106624Y44111D1*
G1X107264Y43951D1*
G1X107267Y43855D1*
G1X106625Y43641D1*
G1X103873Y42582D1*
G1X103873Y42101D1*
G1X107630Y43615D1*
G1X107630Y44189D1*
G1X107630Y47656D2*
G1X103873Y47656D1*
G1X103873Y47413D1*
G1X104116Y47267D1*
G1X104126Y47259D1*
G1X104394Y46991D1*
G1X104400Y46984D1*
G1X104614Y46662D1*
G1X104616Y46659D1*
G1X104816Y46309D1*
G1X105188Y46309D1*
G1X104959Y46769D1*
G1X104640Y47194D1*
G1X104680Y47274D1*
G1X107630Y47274D1*
G1X107630Y47656D1*
G1X107630Y49584D2*
G1X107248Y49584D1*
G1X107248Y49202D1*
G1X107630Y49202D1*
G1X107630Y49584D1*
G1X107630Y52156D2*
G1X103873Y52156D1*
G1X103873Y51913D1*
G1X104116Y51767D1*
G1X104126Y51759D1*
G1X104394Y51491D1*
G1X104400Y51484D1*
G1X104614Y51162D1*
G1X104616Y51159D1*
G1X104816Y50809D1*
G1X105188Y50809D1*
G1X104959Y51269D1*
G1X104640Y51694D1*
G1X104680Y51774D1*
G1X107630Y51774D1*
G1X107630Y52156D1*
G1X72830Y317417D2*
G1X68430Y317417D1*
G1X68430Y316892D1*
G1X70255Y316892D1*
G1X70305Y316842D1*
G1X70305Y314592D1*
G1X70255Y314542D1*
G1X68430Y314542D1*
G1X68430Y314017D1*
G1X72830Y314017D1*
G1X72830Y314542D1*
G1X70755Y314542D1*
G1X70705Y314592D1*
G1X70705Y316842D1*
G1X70755Y316892D1*
G1X72830Y316892D1*
G1X72830Y317417D1*
G1X72830Y322080D2*
G1X68430Y320308D1*
G1X68430Y319688D1*
G1X72830Y317916D1*
G1X72830Y318494D1*
G1X71488Y318982D1*
G1X71455Y319029D1*
G1X71455Y320967D1*
G1X71488Y321014D1*
G1X72830Y321502D1*
G1X72830Y322080D1*
G1X71055Y320779D2*
G1X71055Y319217D1*
G1X70987Y319170D1*
G1X69675Y319670D1*
G1X68862Y319982D1*
G1X68866Y320077D1*
G1X69302Y320202D1*
G1X69800Y320388D1*
G1X70988Y320826D1*
G1X71055Y320779D1*
G1X72892Y324529D2*
G1X72831Y325139D1*
G1X72528Y325684D1*
G1X72104Y326048D1*
G1X71480Y326275D1*
G1X71375Y325748D1*
G1X71835Y325576D1*
G1X71849Y325568D1*
G1X72161Y325318D1*
G1X72172Y325307D1*
G1X72422Y324932D1*
G1X72429Y324911D1*
G1X72492Y324474D1*
G1X72492Y324467D1*
G1X72492Y324458D1*
G1X72429Y324083D1*
G1X72427Y324076D1*
G1X72302Y323701D1*
G1X72286Y323677D1*
G1X71974Y323427D1*
G1X71968Y323424D1*
G1X71656Y323236D1*
G1X71642Y323231D1*
G1X71142Y323106D1*
G1X71135Y323104D1*
G1X70573Y323042D1*
G1X70559Y323042D1*
G1X70185Y323105D1*
G1X69748Y323167D1*
G1X69733Y323172D1*
G1X69358Y323359D1*
G1X69349Y323365D1*
G1X69036Y323615D1*
G1X69023Y323632D1*
G1X68835Y324007D1*
G1X68830Y324022D1*
G1X68768Y324459D1*
G1X68767Y324467D1*
G1X68768Y324475D1*
G1X68831Y324850D1*
G1X68837Y324867D1*
G1X69025Y325180D1*
G1X69032Y325189D1*
G1X69282Y325439D1*
G1X69298Y325450D1*
G1X69698Y325622D1*
G1X69593Y326145D1*
G1X69096Y325925D1*
G1X68732Y325560D1*
G1X68428Y325075D1*
G1X68368Y324529D1*
G1X68429Y323978D1*
G1X68611Y323492D1*
G1X68976Y323066D1*
G1X69403Y322762D1*
G1X69953Y322578D1*
G1X70630Y322517D1*
G1X71244Y322578D1*
G1X71798Y322763D1*
G1X72284Y323006D1*
G1X72587Y323430D1*
G1X72831Y323918D1*
G1X72892Y324529D1*
G1X72830Y330741D2*
G1X70285Y328802D1*
G1X70220Y328806D1*
G1X68430Y330596D1*
G1X68430Y329862D1*
G1X70478Y327814D1*
G1X70442Y327729D1*
G1X68430Y327729D1*
G1X68430Y327204D1*
G1X72830Y327204D1*
G1X72830Y327729D1*
G1X71317Y327729D1*
G1X71282Y327744D1*
G1X70657Y328369D1*
G1X70662Y328444D1*
G1X72830Y330116D1*
G1X72830Y330741D1*
G1X72830Y334667D2*
G1X72430Y334667D1*
G1X72430Y331967D1*
G1X72380Y331917D1*
G1X70817Y331917D1*
G1X70767Y331967D1*
G1X70767Y334354D1*
G1X70367Y334354D1*
G1X70367Y331967D1*
G1X70317Y331917D1*
G1X68880Y331917D1*
G1X68830Y331967D1*
G1X68830Y334542D1*
G1X68430Y334542D1*
G1X68430Y331392D1*
G1X72830Y331392D1*
G1X72830Y334667D1*
G1X72830Y339316D2*
G1X71659Y338613D1*
G1X71351Y338367D1*
G1X71105Y338121D1*
G1X70856Y337810D1*
G1X70769Y337829D1*
G1X70647Y338318D1*
G1X70345Y338681D1*
G1X70047Y338919D1*
G1X69631Y338978D1*
G1X69268Y338918D1*
G1X68967Y338798D1*
G1X68730Y338620D1*
G1X68552Y338323D1*
G1X68492Y338021D1*
G1X68430Y337464D1*
G1X68430Y335579D1*
G1X72830Y335579D1*
G1X72830Y336104D1*
G1X70880Y336104D1*
G1X70830Y336154D1*
G1X70830Y337154D1*
G1X70835Y337176D1*
G1X70960Y337426D1*
G1X70970Y337439D1*
G1X71095Y337564D1*
G1X71102Y337571D1*
G1X71289Y337695D1*
G1X71537Y337882D1*
G1X71540Y337883D1*
G1X71915Y338133D1*
G1X71917Y338134D1*
G1X72830Y338682D1*
G1X72830Y339316D1*
G1X70430Y337717D2*
G1X70430Y336154D1*
G1X70380Y336104D1*
G1X68880Y336104D1*
G1X68830Y336154D1*
G1X68830Y337529D1*
G1X68831Y337537D1*
G1X68893Y337912D1*
G1X68896Y337923D1*
G1X69021Y338235D1*
G1X69045Y338261D1*
G1X69295Y338386D1*
G1X69308Y338391D1*
G1X69620Y338453D1*
G1X69646Y338451D1*
G1X70021Y338326D1*
G1X70040Y338314D1*
G1X70353Y338002D1*
G1X70366Y337979D1*
G1X70428Y337729D1*
G1X70430Y337717D1*
G1X72830Y340604D2*
G1X70817Y340604D1*
G1X70767Y340654D1*
G1X70767Y342604D1*
G1X70367Y342604D1*
G1X70367Y340654D1*
G1X70317Y340604D1*
G1X68880Y340604D1*
G1X68830Y340654D1*
G1X68830Y342979D1*
G1X68430Y342979D1*
G1X68430Y340079D1*
G1X72830Y340079D1*
G1X72830Y340604D1*
G1X72830Y347455D2*
G1X68430Y345683D1*
G1X68430Y345063D1*
G1X72830Y343291D1*
G1X72830Y343869D1*
G1X71488Y344357D1*
G1X71455Y344404D1*
G1X71455Y346342D1*
G1X71488Y346389D1*
G1X72830Y346877D1*
G1X72830Y347455D1*
G1X71055Y346154D2*
G1X71055Y344592D1*
G1X70987Y344545D1*
G1X69675Y345045D1*
G1X68862Y345357D1*
G1X68866Y345452D1*
G1X69302Y345577D1*
G1X69800Y345763D1*
G1X70988Y346201D1*
G1X71055Y346154D1*
G1X72830Y351816D2*
G1X71659Y351113D1*
G1X71351Y350867D1*
G1X71105Y350621D1*
G1X70856Y350310D1*
G1X70769Y350329D1*
G1X70647Y350818D1*
G1X70345Y351181D1*
G1X70047Y351419D1*
G1X69631Y351478D1*
G1X69268Y351418D1*
G1X68967Y351298D1*
G1X68730Y351120D1*
G1X68552Y350823D1*
G1X68492Y350521D1*
G1X68430Y349964D1*
G1X68430Y348079D1*
G1X72830Y348079D1*
G1X72830Y348604D1*
G1X70880Y348604D1*
G1X70830Y348654D1*
G1X70830Y349654D1*
G1X70835Y349676D1*
G1X70960Y349926D1*
G1X70970Y349939D1*
G1X71095Y350064D1*
G1X71102Y350071D1*
G1X71289Y350195D1*
G1X71537Y350382D1*
G1X71540Y350383D1*
G1X71915Y350633D1*
G1X71917Y350634D1*
G1X72830Y351182D1*
G1X72830Y351816D1*
G1X70430Y350217D2*
G1X70430Y348654D1*
G1X70380Y348604D1*
G1X68880Y348604D1*
G1X68830Y348654D1*
G1X68830Y350029D1*
G1X68831Y350037D1*
G1X68893Y350412D1*
G1X68896Y350423D1*
G1X69021Y350735D1*
G1X69045Y350761D1*
G1X69295Y350886D1*
G1X69308Y350891D1*
G1X69620Y350953D1*
G1X69646Y350951D1*
G1X70021Y350826D1*
G1X70040Y350814D1*
G1X70353Y350502D1*
G1X70366Y350479D1*
G1X70428Y350229D1*
G1X70430Y350217D1*
G1X72830Y356729D2*
G1X68430Y356729D1*
G1X68430Y355878D1*
G1X71519Y354889D1*
G1X71955Y354765D1*
G1X72205Y354703D1*
G1X72215Y354609D1*
G1X71965Y354484D1*
G1X71958Y354482D1*
G1X71582Y354356D1*
G1X68430Y353367D1*
G1X68430Y352517D1*
G1X72830Y352517D1*
G1X72830Y353042D1*
G1X69067Y353042D1*
G1X69053Y353139D1*
G1X72830Y354316D1*
G1X72830Y354868D1*
G1X69052Y356107D1*
G1X69067Y356204D1*
G1X72830Y356204D1*
G1X72830Y356729D1*
G1X68230Y18755D2*
G1X66060Y17102D1*
G1X65995Y17106D1*
G1X64473Y18628D1*
G1X64473Y18019D1*
G1X66226Y16266D1*
G1X66191Y16181D1*
G1X64473Y16181D1*
G1X64473Y15745D1*
G1X68230Y15745D1*
G1X68230Y16181D1*
G1X66941Y16181D1*
G1X66905Y16195D1*
G1X66370Y16731D1*
G1X66374Y16806D1*
G1X68230Y18238D1*
G1X68230Y18755D1*
G1X68230Y19824D2*
G1X64473Y19824D1*
G1X64473Y19388D1*
G1X68230Y19388D1*
G1X68230Y19824D1*
G1X68230Y24377D2*
G1X64473Y24377D1*
G1X64473Y23660D1*
G1X67116Y22814D1*
G1X67489Y22708D1*
G1X67703Y22654D1*
G1X67713Y22561D1*
G1X67499Y22454D1*
G1X67492Y22451D1*
G1X67170Y22344D1*
G1X64473Y21498D1*
G1X64473Y20781D1*
G1X68230Y20781D1*
G1X68230Y21217D1*
G1X65012Y21217D1*
G1X64997Y21314D1*
G1X68230Y22321D1*
G1X68230Y22784D1*
G1X64997Y23844D1*
G1X65012Y23942D1*
G1X68230Y23942D1*
G1X68230Y24377D1*
G1X68283Y26892D2*
G1X68231Y27362D1*
G1X68076Y27776D1*
G1X67762Y28142D1*
G1X67398Y28454D1*
G1X66930Y28610D1*
G1X66352Y28663D1*
G1X65826Y28610D1*
G1X65356Y28454D1*
G1X64993Y28194D1*
G1X64680Y27829D1*
G1X64472Y27360D1*
G1X64420Y26892D1*
G1X64472Y26527D1*
G1X64576Y26162D1*
G1X64732Y25902D1*
G1X64941Y25641D1*
G1X65254Y25380D1*
G1X65563Y25226D1*
G1X66405Y25120D1*
G1X66876Y25173D1*
G1X67346Y25329D1*
G1X67710Y25589D1*
G1X68023Y25954D1*
G1X68231Y26423D1*
G1X68283Y26892D1*
G1X67954Y26881D2*
G1X67847Y26399D1*
G1X67840Y26383D1*
G1X67572Y25954D1*
G1X67554Y25937D1*
G1X67072Y25669D1*
G1X67056Y25664D1*
G1X66413Y25557D1*
G1X66405Y25556D1*
G1X66030Y25556D1*
G1X66016Y25558D1*
G1X65641Y25665D1*
G1X65636Y25667D1*
G1X65369Y25774D1*
G1X65357Y25780D1*
G1X65143Y25941D1*
G1X65130Y25954D1*
G1X64863Y26383D1*
G1X64856Y26399D1*
G1X64749Y26881D1*
G1X64748Y26892D1*
G1X64748Y26899D1*
G1X64802Y27274D1*
G1X64807Y27289D1*
G1X64967Y27610D1*
G1X64973Y27619D1*
G1X65187Y27887D1*
G1X65204Y27901D1*
G1X65525Y28061D1*
G1X65534Y28065D1*
G1X65909Y28172D1*
G1X65917Y28173D1*
G1X66345Y28227D1*
G1X66360Y28227D1*
G1X67002Y28119D1*
G1X67017Y28115D1*
G1X67552Y27847D1*
G1X67571Y27831D1*
G1X67838Y27456D1*
G1X67847Y27437D1*
G1X67954Y26901D1*
G1X67954Y26881D1*
G1X68230Y32359D2*
G1X64473Y32359D1*
G1X64473Y31924D1*
G1X67316Y31924D1*
G1X67343Y31832D1*
G1X64473Y29972D1*
G1X64473Y29459D1*
G1X68230Y29459D1*
G1X68230Y29895D1*
G1X65387Y29895D1*
G1X65360Y29987D1*
G1X68230Y31847D1*
G1X68230Y32359D1*
G1X68283Y34927D2*
G1X68231Y35398D1*
G1X68076Y35812D1*
G1X67762Y36178D1*
G1X67398Y36490D1*
G1X66930Y36646D1*
G1X66352Y36698D1*
G1X65826Y36646D1*
G1X65356Y36489D1*
G1X64993Y36229D1*
G1X64680Y35865D1*
G1X64472Y35396D1*
G1X64420Y34928D1*
G1X64472Y34563D1*
G1X64576Y34197D1*
G1X64732Y33938D1*
G1X64941Y33677D1*
G1X65254Y33416D1*
G1X65563Y33262D1*
G1X66405Y33156D1*
G1X66876Y33209D1*
G1X67346Y33365D1*
G1X67710Y33625D1*
G1X68023Y33990D1*
G1X68231Y34458D1*
G1X68283Y34927D1*
G1X67954Y34916D2*
G1X67847Y34434D1*
G1X67840Y34419D1*
G1X67572Y33990D1*
G1X67554Y33973D1*
G1X67072Y33705D1*
G1X67056Y33699D1*
G1X66413Y33592D1*
G1X66405Y33592D1*
G1X66030Y33592D1*
G1X66016Y33593D1*
G1X65641Y33701D1*
G1X65636Y33702D1*
G1X65369Y33809D1*
G1X65357Y33816D1*
G1X65143Y33977D1*
G1X65130Y33990D1*
G1X64863Y34419D1*
G1X64856Y34434D1*
G1X64749Y34916D1*
G1X64748Y34927D1*
G1X64748Y34934D1*
G1X64802Y35309D1*
G1X64807Y35325D1*
G1X64967Y35646D1*
G1X64973Y35655D1*
G1X65187Y35923D1*
G1X65204Y35936D1*
G1X65525Y36097D1*
G1X65534Y36100D1*
G1X65909Y36207D1*
G1X65917Y36209D1*
G1X66345Y36263D1*
G1X66360Y36262D1*
G1X67002Y36155D1*
G1X67017Y36151D1*
G1X67552Y35883D1*
G1X67571Y35867D1*
G1X67838Y35492D1*
G1X67847Y35473D1*
G1X67954Y34937D1*
G1X67954Y34916D1*
G1X68230Y41306D2*
G1X67901Y41306D1*
G1X67901Y39481D1*
G1X67851Y39431D1*
G1X64473Y39431D1*
G1X64473Y38995D1*
G1X68230Y38995D1*
G1X68230Y41306D1*
G1X68230Y45032D2*
G1X64473Y43518D1*
G1X64473Y42997D1*
G1X68230Y41483D1*
G1X68230Y41964D1*
G1X67084Y42380D1*
G1X67051Y42427D1*
G1X67051Y44088D1*
G1X67084Y44135D1*
G1X68230Y44552D1*
G1X68230Y45032D1*
G1X66723Y43927D2*
G1X66723Y42588D1*
G1X66655Y42541D1*
G1X65530Y42970D1*
G1X64833Y43238D1*
G1X64838Y43332D1*
G1X65211Y43439D1*
G1X65637Y43599D1*
G1X66656Y43974D1*
G1X66723Y43927D1*
G1X68230Y48484D2*
G1X64473Y48484D1*
G1X64473Y48049D1*
G1X67316Y48049D1*
G1X67343Y47957D1*
G1X64473Y46097D1*
G1X64473Y45584D1*
G1X68230Y45584D1*
G1X68230Y46020D1*
G1X65387Y46020D1*
G1X65360Y46112D1*
G1X68230Y47972D1*
G1X68230Y48484D1*
G1X68230Y50842D2*
G1X64851Y50842D1*
G1X64801Y50892D1*
G1X64801Y52127D1*
G1X64473Y52127D1*
G1X64473Y49120D1*
G1X64801Y49120D1*
G1X64801Y50356D1*
G1X64851Y50406D1*
G1X68230Y50406D1*
G1X68230Y50842D1*
G1X68230Y55556D2*
G1X67901Y55556D1*
G1X67901Y53249D1*
G1X67851Y53199D1*
G1X66512Y53199D1*
G1X66462Y53249D1*
G1X66462Y55288D1*
G1X66134Y55288D1*
G1X66134Y53249D1*
G1X66084Y53199D1*
G1X64851Y53199D1*
G1X64801Y53249D1*
G1X64801Y55449D1*
G1X64473Y55449D1*
G1X64473Y52763D1*
G1X68230Y52763D1*
G1X68230Y55556D1*
G1X68230Y59535D2*
G1X67237Y58940D1*
G1X66974Y58729D1*
G1X66764Y58519D1*
G1X66551Y58253D1*
G1X66464Y58272D1*
G1X66359Y58690D1*
G1X66102Y58999D1*
G1X65849Y59201D1*
G1X65495Y59252D1*
G1X65186Y59200D1*
G1X64930Y59098D1*
G1X64729Y58947D1*
G1X64577Y58695D1*
G1X64526Y58437D1*
G1X64473Y57960D1*
G1X64473Y56352D1*
G1X68230Y56352D1*
G1X68230Y56788D1*
G1X66566Y56788D1*
G1X66516Y56838D1*
G1X66516Y57695D1*
G1X66521Y57717D1*
G1X66628Y57932D1*
G1X66637Y57945D1*
G1X66745Y58052D1*
G1X66752Y58058D1*
G1X66912Y58165D1*
G1X67125Y58324D1*
G1X67127Y58326D1*
G1X67449Y58540D1*
G1X67451Y58542D1*
G1X68230Y59009D1*
G1X68230Y59535D1*
G1X66187Y58177D2*
G1X66187Y56838D1*
G1X66137Y56788D1*
G1X64851Y56788D1*
G1X64801Y56838D1*
G1X64801Y58017D1*
G1X64802Y58025D1*
G1X64856Y58346D1*
G1X64859Y58357D1*
G1X64966Y58624D1*
G1X64990Y58651D1*
G1X65204Y58758D1*
G1X65217Y58762D1*
G1X65484Y58816D1*
G1X65510Y58814D1*
G1X65831Y58707D1*
G1X65851Y58695D1*
G1X66119Y58427D1*
G1X66132Y58404D1*
G1X66186Y58189D1*
G1X66187Y58177D1*
G1X68230Y63109D2*
G1X64473Y63109D1*
G1X64473Y62674D1*
G1X67316Y62674D1*
G1X67343Y62582D1*
G1X64473Y60722D1*
G1X64473Y60209D1*
G1X68230Y60209D1*
G1X68230Y60645D1*
G1X65387Y60645D1*
G1X65360Y60737D1*
G1X68230Y62597D1*
G1X68230Y63109D1*
G1X67130Y313067D2*
G1X65488Y313067D1*
G1X65438Y313117D1*
G1X65438Y317092D1*
G1X64780Y317092D1*
G1X64780Y313117D1*
G1X64730Y313067D1*
G1X64088Y313067D1*
G1X64076Y313068D1*
G1X63843Y313126D1*
G1X63806Y313165D1*
G1X63748Y313457D1*
G1X63747Y313467D1*
G1X63747Y317092D1*
G1X63088Y317092D1*
G1X63088Y313470D1*
G1X63145Y313018D1*
G1X63366Y312686D1*
G1X63698Y312464D1*
G1X64092Y312408D1*
G1X67130Y312408D1*
G1X67130Y313067D1*
G1X67130Y322633D2*
G1X66659Y322633D1*
G1X66260Y322576D1*
G1X65991Y322469D1*
G1X65827Y322141D1*
G1X65772Y321919D1*
G1X65772Y319825D1*
G1X65770Y319813D1*
G1X65712Y319579D1*
G1X65675Y319543D1*
G1X65442Y319485D1*
G1X65418Y319485D1*
G1X65184Y319543D1*
G1X65148Y319579D1*
G1X65090Y319813D1*
G1X65088Y319825D1*
G1X65088Y321630D1*
G1X65031Y322142D1*
G1X64867Y322416D1*
G1X64593Y322635D1*
G1X64144Y322692D1*
G1X63975Y322692D1*
G1X63584Y322636D1*
G1X63310Y322416D1*
G1X63145Y322142D1*
G1X63088Y321630D1*
G1X63088Y317658D1*
G1X67130Y317658D1*
G1X67130Y318317D1*
G1X63797Y318317D1*
G1X63747Y318367D1*
G1X63747Y321633D1*
G1X63748Y321645D1*
G1X63806Y321879D1*
G1X63843Y321915D1*
G1X64076Y321973D1*
G1X64100Y321973D1*
G1X64334Y321915D1*
G1X64370Y321879D1*
G1X64428Y321645D1*
G1X64430Y321633D1*
G1X64430Y319711D1*
G1X64487Y319258D1*
G1X64650Y318986D1*
G1X64922Y318823D1*
G1X65317Y318767D1*
G1X65485Y318767D1*
G1X65882Y318823D1*
G1X66211Y318988D1*
G1X66373Y319258D1*
G1X66430Y319711D1*
G1X66430Y321633D1*
G1X66431Y321645D1*
G1X66490Y321879D1*
G1X66526Y321915D1*
G1X66759Y321973D1*
G1X66772Y321975D1*
G1X67130Y321975D1*
G1X67130Y322633D1*
G1X67130Y327942D2*
G1X66472Y327942D1*
G1X66472Y324083D1*
G1X66457Y324048D1*
G1X66340Y323931D1*
G1X66305Y323917D1*
G1X65372Y323917D1*
G1X65322Y323967D1*
G1X65322Y327942D1*
G1X64663Y327942D1*
G1X64663Y323967D1*
G1X64613Y323917D1*
G1X64088Y323917D1*
G1X64076Y323918D1*
G1X63843Y323976D1*
G1X63806Y324013D1*
G1X63748Y324246D1*
G1X63747Y324258D1*
G1X63747Y327942D1*
G1X63088Y327942D1*
G1X63088Y324261D1*
G1X63145Y323809D1*
G1X63365Y323479D1*
G1X63641Y323313D1*
G1X64094Y323200D1*
G1X66124Y323200D1*
G1X66579Y323314D1*
G1X66909Y323479D1*
G1X67073Y323806D1*
G1X67130Y324261D1*
G1X67130Y327942D1*
G1X67130Y333352D2*
G1X64162Y332610D1*
G1X63705Y332439D1*
G1X63368Y332158D1*
G1X63145Y331823D1*
G1X63088Y331430D1*
G1X63088Y330212D1*
G1X63145Y329818D1*
G1X63366Y329486D1*
G1X63703Y329261D1*
G1X64162Y329089D1*
G1X67130Y328347D1*
G1X67130Y329061D1*
G1X64134Y329810D1*
G1X64121Y329815D1*
G1X63829Y329990D1*
G1X63806Y330021D1*
G1X63748Y330254D1*
G1X63747Y330267D1*
G1X63747Y331375D1*
G1X63748Y331385D1*
G1X63806Y331676D1*
G1X63836Y331713D1*
G1X64128Y331830D1*
G1X64132Y331831D1*
G1X64716Y332006D1*
G1X64780Y331958D1*
G1X64780Y330073D1*
G1X65438Y329921D1*
G1X65438Y332192D1*
G1X65477Y332240D1*
G1X67130Y332639D1*
G1X67130Y333352D1*
G1X67130Y338792D2*
G1X66134Y338792D1*
G1X65789Y338734D1*
G1X65513Y338679D1*
G1X65293Y338459D1*
G1X65120Y338228D1*
G1X65035Y338236D1*
G1X64924Y338459D1*
G1X64705Y338623D1*
G1X64429Y338733D1*
G1X63088Y338733D1*
G1X63088Y338075D1*
G1X64322Y338075D1*
G1X64344Y338070D1*
G1X64577Y337953D1*
G1X64590Y337944D1*
G1X64765Y337769D1*
G1X64780Y337733D1*
G1X64780Y334583D1*
G1X64730Y334533D1*
G1X63088Y334533D1*
G1X63088Y333875D1*
G1X67130Y333875D1*
G1X67130Y334533D1*
G1X65488Y334533D1*
G1X65438Y334583D1*
G1X65438Y337383D1*
G1X65439Y337391D1*
G1X65497Y337741D1*
G1X65505Y337761D1*
G1X65622Y337936D1*
G1X65641Y337953D1*
G1X65874Y338070D1*
G1X65888Y338074D1*
G1X66238Y338133D1*
G1X66247Y338133D1*
G1X67130Y338133D1*
G1X67130Y338792D1*
G1X67130Y343575D2*
G1X66472Y343575D1*
G1X66472Y340533D1*
G1X66471Y340523D1*
G1X66412Y340232D1*
G1X66382Y340195D1*
G1X66090Y340078D1*
G1X66072Y340075D1*
G1X63088Y340075D1*
G1X63088Y339417D1*
G1X66069Y339417D1*
G1X66520Y339473D1*
G1X66852Y339694D1*
G1X67073Y340026D1*
G1X67130Y340536D1*
G1X67130Y343575D1*
G1X67130Y348927D2*
G1X64162Y348185D1*
G1X63705Y348014D1*
G1X63368Y347733D1*
G1X63145Y347398D1*
G1X63088Y347005D1*
G1X63088Y345787D1*
G1X63145Y345393D1*
G1X63366Y345061D1*
G1X63703Y344836D1*
G1X64162Y344664D1*
G1X67130Y343922D1*
G1X67130Y344636D1*
G1X64134Y345385D1*
G1X64121Y345390D1*
G1X63829Y345565D1*
G1X63806Y345596D1*
G1X63748Y345829D1*
G1X63747Y345842D1*
G1X63747Y346950D1*
G1X63748Y346960D1*
G1X63806Y347251D1*
G1X63836Y347288D1*
G1X64128Y347405D1*
G1X64132Y347406D1*
G1X64716Y347581D1*
G1X64780Y347533D1*
G1X64780Y345648D1*
G1X65438Y345496D1*
G1X65438Y347767D1*
G1X65477Y347815D1*
G1X67130Y348214D1*
G1X67130Y348927D1*
G1X67130Y353480D2*
G1X67074Y353874D1*
G1X66909Y354149D1*
G1X66693Y354311D1*
G1X66359Y354367D1*
G1X66076Y354367D1*
G1X65739Y354310D1*
G1X65470Y354149D1*
G1X65362Y353879D1*
G1X65305Y353480D1*
G1X65305Y351325D1*
G1X65255Y351275D1*
G1X65022Y351275D1*
G1X64977Y351303D1*
G1X64919Y351419D1*
G1X64913Y351442D1*
G1X64913Y353480D1*
G1X64856Y353879D1*
G1X64748Y354149D1*
G1X64479Y354310D1*
G1X64142Y354367D1*
G1X63859Y354367D1*
G1X63525Y354311D1*
G1X63309Y354149D1*
G1X63145Y353874D1*
G1X63088Y353480D1*
G1X63088Y349450D1*
G1X67130Y349450D1*
G1X67130Y353480D1*
G1X66472Y353600D2*
G1X66472Y350158D1*
G1X66422Y350108D1*
G1X63797Y350108D1*
G1X63747Y350158D1*
G1X63747Y353600D1*
G1X63774Y353645D1*
G1X63891Y353703D1*
G1X63913Y353708D1*
G1X64088Y353708D1*
G1X64111Y353703D1*
G1X64227Y353645D1*
G1X64255Y353600D1*
G1X64255Y351445D1*
G1X64311Y351050D1*
G1X64476Y350776D1*
G1X64692Y350614D1*
G1X65026Y350558D1*
G1X65192Y350558D1*
G1X65529Y350614D1*
G1X65798Y350776D1*
G1X65906Y351046D1*
G1X65963Y351445D1*
G1X65963Y353600D1*
G1X65997Y353647D1*
G1X66172Y353706D1*
G1X66188Y353708D1*
G1X66305Y353708D1*
G1X66327Y353703D1*
G1X66444Y353645D1*
G1X66472Y353600D1*
G1X67130Y358497D2*
G1X67073Y359009D1*
G1X66851Y359398D1*
G1X66520Y359618D1*
G1X66069Y359675D1*
G1X65842Y359675D1*
G1X65448Y359619D1*
G1X65118Y359398D1*
G1X64894Y359007D1*
G1X64780Y358494D1*
G1X64780Y356108D1*
G1X64777Y356092D1*
G1X64661Y355742D1*
G1X64636Y355713D1*
G1X64402Y355597D1*
G1X64380Y355592D1*
G1X64147Y355592D1*
G1X64124Y355597D1*
G1X64008Y355655D1*
G1X63995Y355665D1*
G1X63761Y355898D1*
G1X63747Y355933D1*
G1X63747Y359617D1*
G1X63088Y359617D1*
G1X63088Y356114D1*
G1X63202Y355601D1*
G1X63426Y355210D1*
G1X63757Y354989D1*
G1X64150Y354933D1*
G1X64376Y354933D1*
G1X64770Y354989D1*
G1X65102Y355211D1*
G1X65325Y355544D1*
G1X65438Y356113D1*
G1X65438Y358500D1*
G1X65439Y358508D1*
G1X65497Y358858D1*
G1X65528Y358896D1*
G1X65820Y359013D1*
G1X65838Y359017D1*
G1X66072Y359017D1*
G1X66094Y359011D1*
G1X66211Y358953D1*
G1X66224Y358944D1*
G1X66457Y358710D1*
G1X66472Y358675D1*
G1X66472Y354992D1*
G1X67130Y354992D1*
G1X67130Y358497D1*
G1X63102Y313360D2*
G1X63102Y317092D1*
G1X63102Y317658D2*
G1X63102Y321754D1*
G1X63102Y324152D2*
G1X63102Y327942D1*
G1X63102Y330116D2*
G1X63102Y331526D1*
G1X63102Y333875D2*
G1X63102Y334533D1*
G1X63102Y338075D2*
G1X63102Y338733D1*
G1X63102Y339417D2*
G1X63102Y340075D1*
G1X63102Y345691D2*
G1X63102Y347101D1*
G1X63102Y349450D2*
G1X63102Y353576D1*
G1X63102Y356052D2*
G1X63102Y359617D1*
G1X63202Y312932D2*
G1X63202Y317092D1*
G1X63202Y317658D2*
G1X63202Y322237D1*
G1X63202Y323724D2*
G1X63202Y327942D1*
G1X63202Y329732D2*
G1X63202Y331909D1*
G1X63202Y333875D2*
G1X63202Y334533D1*
G1X63202Y338075D2*
G1X63202Y338733D1*
G1X63202Y339417D2*
G1X63202Y340075D1*
G1X63202Y345307D2*
G1X63202Y347484D1*
G1X63202Y349450D2*
G1X63202Y353970D1*
G1X63202Y355602D2*
G1X63202Y359617D1*
G1X63302Y312782D2*
G1X63302Y317092D1*
G1X63302Y317658D2*
G1X63302Y322403D1*
G1X63302Y323574D2*
G1X63302Y327942D1*
G1X63302Y329582D2*
G1X63302Y332059D1*
G1X63302Y333875D2*
G1X63302Y334533D1*
G1X63302Y338075D2*
G1X63302Y338733D1*
G1X63302Y339417D2*
G1X63302Y340075D1*
G1X63302Y345157D2*
G1X63302Y347634D1*
G1X63302Y349450D2*
G1X63302Y354137D1*
G1X63302Y355427D2*
G1X63302Y359617D1*
G1X63402Y312662D2*
G1X63402Y317092D1*
G1X63402Y317658D2*
G1X63402Y322490D1*
G1X63402Y323457D2*
G1X63402Y327942D1*
G1X63402Y329462D2*
G1X63402Y332186D1*
G1X63402Y333875D2*
G1X63402Y334533D1*
G1X63402Y338075D2*
G1X63402Y338733D1*
G1X63402Y339417D2*
G1X63402Y340075D1*
G1X63402Y345037D2*
G1X63402Y347761D1*
G1X63402Y349450D2*
G1X63402Y354218D1*
G1X63402Y355252D2*
G1X63402Y359617D1*
G1X63502Y312595D2*
G1X63502Y317092D1*
G1X63502Y317658D2*
G1X63502Y322570D1*
G1X63502Y323397D2*
G1X63502Y327942D1*
G1X63502Y329395D2*
G1X63502Y332270D1*
G1X63502Y333875D2*
G1X63502Y334533D1*
G1X63502Y338075D2*
G1X63502Y338733D1*
G1X63502Y339417D2*
G1X63502Y340075D1*
G1X63502Y344970D2*
G1X63502Y347845D1*
G1X63502Y349450D2*
G1X63502Y354293D1*
G1X63502Y355159D2*
G1X63502Y359617D1*
G1X63602Y312529D2*
G1X63602Y317092D1*
G1X63602Y317658D2*
G1X63602Y322638D1*
G1X63602Y323337D2*
G1X63602Y327942D1*
G1X63602Y329329D2*
G1X63602Y332353D1*
G1X63602Y333875D2*
G1X63602Y334533D1*
G1X63602Y338075D2*
G1X63602Y338733D1*
G1X63602Y339417D2*
G1X63602Y340075D1*
G1X63602Y344904D2*
G1X63602Y347928D1*
G1X63602Y349450D2*
G1X63602Y354324D1*
G1X63602Y355092D2*
G1X63602Y359617D1*
G1X63702Y312464D2*
G1X63702Y317092D1*
G1X63702Y317658D2*
G1X63702Y322653D1*
G1X63702Y323298D2*
G1X63702Y327942D1*
G1X63702Y329262D2*
G1X63702Y332436D1*
G1X63702Y333875D2*
G1X63702Y334533D1*
G1X63702Y338075D2*
G1X63702Y338733D1*
G1X63702Y339417D2*
G1X63702Y340075D1*
G1X63702Y344837D2*
G1X63702Y348011D1*
G1X63702Y349450D2*
G1X63702Y354340D1*
G1X63702Y355026D2*
G1X63702Y359617D1*
G1X63802Y312450D2*
G1X63802Y313185D1*
G1X63802Y317658D2*
G1X63802Y318317D1*
G1X63802Y321861D2*
G1X63802Y322667D1*
G1X63802Y323273D2*
G1X63802Y324031D1*
G1X63802Y329224D2*
G1X63802Y330039D1*
G1X63802Y331657D2*
G1X63802Y332476D1*
G1X63802Y333875D2*
G1X63802Y334533D1*
G1X63802Y338075D2*
G1X63802Y338733D1*
G1X63802Y339417D2*
G1X63802Y340075D1*
G1X63802Y344799D2*
G1X63802Y345614D1*
G1X63802Y347232D2*
G1X63802Y348051D1*
G1X63802Y349450D2*
G1X63802Y350108D1*
G1X63802Y353658D2*
G1X63802Y354357D1*
G1X63802Y354983D2*
G1X63802Y355857D1*
G1X63902Y312435D2*
G1X63902Y313112D1*
G1X63902Y317658D2*
G1X63902Y318317D1*
G1X63902Y321930D2*
G1X63902Y322681D1*
G1X63902Y323248D2*
G1X63902Y323962D1*
G1X63902Y329187D2*
G1X63902Y329947D1*
G1X63902Y331739D2*
G1X63902Y332513D1*
G1X63902Y333875D2*
G1X63902Y334533D1*
G1X63902Y338075D2*
G1X63902Y338733D1*
G1X63902Y339417D2*
G1X63902Y340075D1*
G1X63902Y344762D2*
G1X63902Y345522D1*
G1X63902Y347314D2*
G1X63902Y348088D1*
G1X63902Y349450D2*
G1X63902Y350108D1*
G1X63902Y353707D2*
G1X63902Y354367D1*
G1X63902Y354969D2*
G1X63902Y355757D1*
G1X64002Y312421D2*
G1X64002Y313087D1*
G1X64002Y317658D2*
G1X64002Y318317D1*
G1X64002Y321955D2*
G1X64002Y322692D1*
G1X64002Y323223D2*
G1X64002Y323937D1*
G1X64002Y329149D2*
G1X64002Y329887D1*
G1X64002Y331779D2*
G1X64002Y332551D1*
G1X64002Y333875D2*
G1X64002Y334533D1*
G1X64002Y338075D2*
G1X64002Y338733D1*
G1X64002Y339417D2*
G1X64002Y340075D1*
G1X64002Y344724D2*
G1X64002Y345462D1*
G1X64002Y347354D2*
G1X64002Y348126D1*
G1X64002Y349450D2*
G1X64002Y350108D1*
G1X64002Y353708D2*
G1X64002Y354367D1*
G1X64002Y354954D2*
G1X64002Y355658D1*
G1X64102Y312408D2*
G1X64102Y313067D1*
G1X64102Y317658D2*
G1X64102Y318317D1*
G1X64102Y321973D2*
G1X64102Y322692D1*
G1X64102Y323200D2*
G1X64102Y323917D1*
G1X64102Y329112D2*
G1X64102Y329827D1*
G1X64102Y331819D2*
G1X64102Y332588D1*
G1X64102Y333875D2*
G1X64102Y334533D1*
G1X64102Y338075D2*
G1X64102Y338733D1*
G1X64102Y339417D2*
G1X64102Y340075D1*
G1X64102Y344687D2*
G1X64102Y345402D1*
G1X64102Y347394D2*
G1X64102Y348163D1*
G1X64102Y349450D2*
G1X64102Y350108D1*
G1X64102Y353706D2*
G1X64102Y354367D1*
G1X64102Y354940D2*
G1X64102Y355608D1*
G1X64202Y312408D2*
G1X64202Y313067D1*
G1X64202Y317658D2*
G1X64202Y318317D1*
G1X64202Y321948D2*
G1X64202Y322684D1*
G1X64202Y323200D2*
G1X64202Y323917D1*
G1X64202Y329079D2*
G1X64202Y329793D1*
G1X64202Y331852D2*
G1X64202Y332621D1*
G1X64202Y333875D2*
G1X64202Y334533D1*
G1X64202Y338075D2*
G1X64202Y338733D1*
G1X64202Y339417D2*
G1X64202Y340075D1*
G1X64202Y344654D2*
G1X64202Y345368D1*
G1X64202Y347427D2*
G1X64202Y348196D1*
G1X64202Y349450D2*
G1X64202Y350108D1*
G1X64202Y353657D2*
G1X64202Y354357D1*
G1X64202Y354933D2*
G1X64202Y355592D1*
G1X64302Y312408D2*
G1X64302Y313067D1*
G1X64302Y317658D2*
G1X64302Y318317D1*
G1X64302Y321923D2*
G1X64302Y322672D1*
G1X64302Y323200D2*
G1X64302Y323917D1*
G1X64302Y329054D2*
G1X64302Y329768D1*
G1X64302Y331882D2*
G1X64302Y332646D1*
G1X64302Y333875D2*
G1X64302Y334533D1*
G1X64302Y338075D2*
G1X64302Y338733D1*
G1X64302Y339417D2*
G1X64302Y340075D1*
G1X64302Y344629D2*
G1X64302Y345343D1*
G1X64302Y347457D2*
G1X64302Y348221D1*
G1X64302Y349450D2*
G1X64302Y350108D1*
G1X64302Y351116D2*
G1X64302Y354340D1*
G1X64302Y354933D2*
G1X64302Y355592D1*
G1X64402Y312408D2*
G1X64402Y313067D1*
G1X64402Y317658D2*
G1X64402Y318317D1*
G1X64402Y321751D2*
G1X64402Y322659D1*
G1X64402Y323200D2*
G1X64402Y323917D1*
G1X64402Y329029D2*
G1X64402Y329743D1*
G1X64402Y331912D2*
G1X64402Y332671D1*
G1X64402Y333875D2*
G1X64402Y334533D1*
G1X64402Y338041D2*
G1X64402Y338733D1*
G1X64402Y339417D2*
G1X64402Y340075D1*
G1X64402Y344604D2*
G1X64402Y345318D1*
G1X64402Y347487D2*
G1X64402Y348246D1*
G1X64402Y349450D2*
G1X64402Y350108D1*
G1X64402Y350899D2*
G1X64402Y354323D1*
G1X64402Y354937D2*
G1X64402Y355597D1*
G1X64502Y15745D2*
G1X64502Y16181D1*
G1X64502Y17990D2*
G1X64502Y18599D1*
G1X64502Y19388D2*
G1X64502Y19824D1*
G1X64502Y20781D2*
G1X64502Y21507D1*
G1X64502Y23651D2*
G1X64502Y24377D1*
G1X64502Y26421D2*
G1X64502Y27429D1*
G1X64502Y29459D2*
G1X64502Y29990D1*
G1X64502Y31924D2*
G1X64502Y32359D1*
G1X64502Y34457D2*
G1X64502Y35464D1*
G1X64502Y38995D2*
G1X64502Y39431D1*
G1X64502Y42985D2*
G1X64502Y43530D1*
G1X64502Y45584D2*
G1X64502Y46115D1*
G1X64502Y48049D2*
G1X64502Y48484D1*
G1X64502Y49120D2*
G1X64502Y52127D1*
G1X64502Y52763D2*
G1X64502Y55449D1*
G1X64502Y56352D2*
G1X64502Y58223D1*
G1X64502Y60209D2*
G1X64502Y60740D1*
G1X64502Y62674D2*
G1X64502Y63109D1*
G1X64502Y312408D2*
G1X64502Y313067D1*
G1X64502Y317658D2*
G1X64502Y318317D1*
G1X64502Y319233D2*
G1X64502Y322647D1*
G1X64502Y323200D2*
G1X64502Y323917D1*
G1X64502Y329004D2*
G1X64502Y329718D1*
G1X64502Y331942D2*
G1X64502Y332696D1*
G1X64502Y333875D2*
G1X64502Y334533D1*
G1X64502Y337991D2*
G1X64502Y338704D1*
G1X64502Y339417D2*
G1X64502Y340075D1*
G1X64502Y344579D2*
G1X64502Y345293D1*
G1X64502Y347517D2*
G1X64502Y348271D1*
G1X64502Y349450D2*
G1X64502Y350108D1*
G1X64502Y350756D2*
G1X64502Y354297D1*
G1X64502Y354951D2*
G1X64502Y355647D1*
G1X64602Y15745D2*
G1X64602Y16181D1*
G1X64602Y17890D2*
G1X64602Y18499D1*
G1X64602Y19388D2*
G1X64602Y19824D1*
G1X64602Y20781D2*
G1X64602Y21538D1*
G1X64602Y23619D2*
G1X64602Y24377D1*
G1X64602Y26119D2*
G1X64602Y27654D1*
G1X64602Y29459D2*
G1X64602Y30055D1*
G1X64602Y31924D2*
G1X64602Y32359D1*
G1X64602Y34154D2*
G1X64602Y35689D1*
G1X64602Y38995D2*
G1X64602Y39431D1*
G1X64602Y42945D2*
G1X64602Y43571D1*
G1X64602Y45584D2*
G1X64602Y46180D1*
G1X64602Y48049D2*
G1X64602Y48484D1*
G1X64602Y49120D2*
G1X64602Y52127D1*
G1X64602Y52763D2*
G1X64602Y55449D1*
G1X64602Y56352D2*
G1X64602Y58736D1*
G1X64602Y60209D2*
G1X64602Y60805D1*
G1X64602Y62674D2*
G1X64602Y63109D1*
G1X64602Y312408D2*
G1X64602Y313067D1*
G1X64602Y317658D2*
G1X64602Y318317D1*
G1X64602Y319066D2*
G1X64602Y322628D1*
G1X64602Y323200D2*
G1X64602Y323917D1*
G1X64602Y328979D2*
G1X64602Y329693D1*
G1X64602Y331972D2*
G1X64602Y332721D1*
G1X64602Y333875D2*
G1X64602Y334533D1*
G1X64602Y337932D2*
G1X64602Y338664D1*
G1X64602Y339417D2*
G1X64602Y340075D1*
G1X64602Y344554D2*
G1X64602Y345268D1*
G1X64602Y347547D2*
G1X64602Y348296D1*
G1X64602Y349450D2*
G1X64602Y350108D1*
G1X64602Y350681D2*
G1X64602Y354237D1*
G1X64602Y354965D2*
G1X64602Y355697D1*
G1X64702Y15745D2*
G1X64702Y16181D1*
G1X64702Y17790D2*
G1X64702Y18399D1*
G1X64702Y19388D2*
G1X64702Y19824D1*
G1X64702Y20781D2*
G1X64702Y21570D1*
G1X64702Y23587D2*
G1X64702Y24377D1*
G1X64702Y25952D2*
G1X64702Y27855D1*
G1X64702Y29459D2*
G1X64702Y30120D1*
G1X64702Y31924D2*
G1X64702Y32359D1*
G1X64702Y33988D2*
G1X64702Y35890D1*
G1X64702Y38995D2*
G1X64702Y39431D1*
G1X64702Y42904D2*
G1X64702Y43611D1*
G1X64702Y45584D2*
G1X64702Y46245D1*
G1X64702Y48049D2*
G1X64702Y48484D1*
G1X64702Y49120D2*
G1X64702Y52127D1*
G1X64702Y52763D2*
G1X64702Y55449D1*
G1X64702Y56352D2*
G1X64702Y58903D1*
G1X64702Y60209D2*
G1X64702Y60870D1*
G1X64702Y62674D2*
G1X64702Y63109D1*
G1X64702Y312408D2*
G1X64702Y313067D1*
G1X64702Y317658D2*
G1X64702Y318317D1*
G1X64702Y318955D2*
G1X64702Y322548D1*
G1X64702Y323200D2*
G1X64702Y327942D1*
G1X64702Y328954D2*
G1X64702Y329668D1*
G1X64702Y332002D2*
G1X64702Y332746D1*
G1X64702Y333875D2*
G1X64702Y334533D1*
G1X64702Y337832D2*
G1X64702Y338624D1*
G1X64702Y339417D2*
G1X64702Y340075D1*
G1X64702Y344529D2*
G1X64702Y345243D1*
G1X64702Y347577D2*
G1X64702Y348321D1*
G1X64702Y349450D2*
G1X64702Y350108D1*
G1X64702Y350612D2*
G1X64702Y354177D1*
G1X64702Y354980D2*
G1X64702Y355866D1*
G1X64802Y15745D2*
G1X64802Y16181D1*
G1X64802Y17690D2*
G1X64802Y18299D1*
G1X64802Y19388D2*
G1X64802Y19824D1*
G1X64802Y20781D2*
G1X64802Y21601D1*
G1X64802Y23555D2*
G1X64802Y24377D1*
G1X64802Y25815D2*
G1X64802Y26642D1*
G1X64802Y27274D2*
G1X64802Y27971D1*
G1X64802Y29459D2*
G1X64802Y30185D1*
G1X64802Y31924D2*
G1X64802Y32359D1*
G1X64802Y33850D2*
G1X64802Y34678D1*
G1X64802Y35310D2*
G1X64802Y36007D1*
G1X64802Y38995D2*
G1X64802Y39431D1*
G1X64802Y42864D2*
G1X64802Y43277D1*
G1X64802Y43292D2*
G1X64802Y43651D1*
G1X64802Y45584D2*
G1X64802Y46310D1*
G1X64802Y48049D2*
G1X64802Y48484D1*
G1X64802Y50364D2*
G1X64802Y50884D1*
G1X64802Y52763D2*
G1X64802Y53241D1*
G1X64802Y56352D2*
G1X64802Y56830D1*
G1X64802Y58024D2*
G1X64802Y59002D1*
G1X64802Y60209D2*
G1X64802Y60935D1*
G1X64802Y62674D2*
G1X64802Y63109D1*
G1X64802Y312408D2*
G1X64802Y317092D1*
G1X64802Y317658D2*
G1X64802Y318317D1*
G1X64802Y318895D2*
G1X64802Y322468D1*
G1X64802Y323200D2*
G1X64802Y327942D1*
G1X64802Y328929D2*
G1X64802Y329643D1*
G1X64802Y330068D2*
G1X64802Y332771D1*
G1X64802Y333875D2*
G1X64802Y338550D1*
G1X64802Y339417D2*
G1X64802Y340075D1*
G1X64802Y344504D2*
G1X64802Y345218D1*
G1X64802Y345643D2*
G1X64802Y348346D1*
G1X64802Y349450D2*
G1X64802Y350108D1*
G1X64802Y350595D2*
G1X64802Y354014D1*
G1X64802Y355011D2*
G1X64802Y358594D1*
G1X64902Y15745D2*
G1X64902Y16181D1*
G1X64902Y17590D2*
G1X64902Y18199D1*
G1X64902Y19388D2*
G1X64902Y19824D1*
G1X64902Y20781D2*
G1X64902Y21632D1*
G1X64902Y23523D2*
G1X64902Y24377D1*
G1X64902Y25690D2*
G1X64902Y26320D1*
G1X64902Y27480D2*
G1X64902Y28088D1*
G1X64902Y29459D2*
G1X64902Y30250D1*
G1X64902Y31924D2*
G1X64902Y32359D1*
G1X64902Y33725D2*
G1X64902Y34355D1*
G1X64902Y35515D2*
G1X64902Y36124D1*
G1X64902Y38995D2*
G1X64902Y39431D1*
G1X64902Y42824D2*
G1X64902Y43211D1*
G1X64902Y43351D2*
G1X64902Y43691D1*
G1X64902Y45584D2*
G1X64902Y46375D1*
G1X64902Y48049D2*
G1X64902Y48484D1*
G1X64902Y50406D2*
G1X64902Y50842D1*
G1X64902Y52763D2*
G1X64902Y53199D1*
G1X64902Y56352D2*
G1X64902Y56788D1*
G1X64902Y58465D2*
G1X64902Y59077D1*
G1X64902Y60209D2*
G1X64902Y61000D1*
G1X64902Y62674D2*
G1X64902Y63109D1*
G1X64902Y312408D2*
G1X64902Y317092D1*
G1X64902Y317658D2*
G1X64902Y318317D1*
G1X64902Y318835D2*
G1X64902Y322358D1*
G1X64902Y323200D2*
G1X64902Y327942D1*
G1X64902Y328904D2*
G1X64902Y329618D1*
G1X64902Y330045D2*
G1X64902Y332796D1*
G1X64902Y333875D2*
G1X64902Y338475D1*
G1X64902Y339417D2*
G1X64902Y340075D1*
G1X64902Y344479D2*
G1X64902Y345193D1*
G1X64902Y345620D2*
G1X64902Y348371D1*
G1X64902Y349450D2*
G1X64902Y350108D1*
G1X64902Y350579D2*
G1X64902Y353559D1*
G1X64902Y355077D2*
G1X64902Y359021D1*
G1X65002Y15745D2*
G1X65002Y16181D1*
G1X65002Y17490D2*
G1X65002Y18099D1*
G1X65002Y19388D2*
G1X65002Y19824D1*
G1X65002Y20781D2*
G1X65002Y21218D1*
G1X65002Y21316D2*
G1X65002Y21664D1*
G1X65002Y23491D2*
G1X65002Y23842D1*
G1X65002Y23941D2*
G1X65002Y24377D1*
G1X65002Y25590D2*
G1X65002Y26160D1*
G1X65002Y27655D2*
G1X65002Y28200D1*
G1X65002Y29459D2*
G1X65002Y30314D1*
G1X65002Y31924D2*
G1X65002Y32359D1*
G1X65002Y33626D2*
G1X65002Y34195D1*
G1X65002Y35691D2*
G1X65002Y36236D1*
G1X65002Y38995D2*
G1X65002Y39431D1*
G1X65002Y42784D2*
G1X65002Y43173D1*
G1X65002Y43379D2*
G1X65002Y43732D1*
G1X65002Y45584D2*
G1X65002Y46439D1*
G1X65002Y48049D2*
G1X65002Y48484D1*
G1X65002Y50406D2*
G1X65002Y50842D1*
G1X65002Y52763D2*
G1X65002Y53199D1*
G1X65002Y56352D2*
G1X65002Y56788D1*
G1X65002Y58657D2*
G1X65002Y59127D1*
G1X65002Y60209D2*
G1X65002Y61064D1*
G1X65002Y62674D2*
G1X65002Y63109D1*
G1X65002Y312408D2*
G1X65002Y317092D1*
G1X65002Y317658D2*
G1X65002Y318317D1*
G1X65002Y318812D2*
G1X65002Y322191D1*
G1X65002Y323200D2*
G1X65002Y327942D1*
G1X65002Y328879D2*
G1X65002Y329593D1*
G1X65002Y330022D2*
G1X65002Y332821D1*
G1X65002Y333875D2*
G1X65002Y338302D1*
G1X65002Y339417D2*
G1X65002Y340075D1*
G1X65002Y344454D2*
G1X65002Y345168D1*
G1X65002Y345597D2*
G1X65002Y348396D1*
G1X65002Y349450D2*
G1X65002Y350108D1*
G1X65002Y350562D2*
G1X65002Y351279D1*
G1X65002Y355144D2*
G1X65002Y359196D1*
G1X65102Y15745D2*
G1X65102Y16181D1*
G1X65102Y17390D2*
G1X65102Y17999D1*
G1X65102Y19388D2*
G1X65102Y19824D1*
G1X65102Y20781D2*
G1X65102Y21217D1*
G1X65102Y21347D2*
G1X65102Y21695D1*
G1X65102Y23459D2*
G1X65102Y23809D1*
G1X65102Y23942D2*
G1X65102Y24377D1*
G1X65102Y25507D2*
G1X65102Y26000D1*
G1X65102Y27780D2*
G1X65102Y28272D1*
G1X65102Y29459D2*
G1X65102Y30379D1*
G1X65102Y31924D2*
G1X65102Y32359D1*
G1X65102Y33542D2*
G1X65102Y34035D1*
G1X65102Y35816D2*
G1X65102Y36308D1*
G1X65102Y38995D2*
G1X65102Y39431D1*
G1X65102Y42743D2*
G1X65102Y43134D1*
G1X65102Y43408D2*
G1X65102Y43772D1*
G1X65102Y45584D2*
G1X65102Y46504D1*
G1X65102Y48049D2*
G1X65102Y48484D1*
G1X65102Y50406D2*
G1X65102Y50842D1*
G1X65102Y52763D2*
G1X65102Y53199D1*
G1X65102Y56352D2*
G1X65102Y56788D1*
G1X65102Y58707D2*
G1X65102Y59167D1*
G1X65102Y60209D2*
G1X65102Y61129D1*
G1X65102Y62674D2*
G1X65102Y63109D1*
G1X65102Y312408D2*
G1X65102Y317092D1*
G1X65102Y317658D2*
G1X65102Y318317D1*
G1X65102Y318797D2*
G1X65102Y319764D1*
G1X65102Y323200D2*
G1X65102Y327942D1*
G1X65102Y328854D2*
G1X65102Y329568D1*
G1X65102Y329999D2*
G1X65102Y332846D1*
G1X65102Y333875D2*
G1X65102Y338213D1*
G1X65102Y339417D2*
G1X65102Y340075D1*
G1X65102Y344429D2*
G1X65102Y345143D1*
G1X65102Y345574D2*
G1X65102Y348421D1*
G1X65102Y349450D2*
G1X65102Y350108D1*
G1X65102Y350558D2*
G1X65102Y351275D1*
G1X65102Y355211D2*
G1X65102Y359371D1*
G1X65202Y15745D2*
G1X65202Y16181D1*
G1X65202Y17290D2*
G1X65202Y17899D1*
G1X65202Y19388D2*
G1X65202Y19824D1*
G1X65202Y20781D2*
G1X65202Y21217D1*
G1X65202Y21378D2*
G1X65202Y21726D1*
G1X65202Y23427D2*
G1X65202Y23777D1*
G1X65202Y23942D2*
G1X65202Y24377D1*
G1X65202Y25423D2*
G1X65202Y25896D1*
G1X65202Y27899D2*
G1X65202Y28343D1*
G1X65202Y29459D2*
G1X65202Y30444D1*
G1X65202Y31924D2*
G1X65202Y32359D1*
G1X65202Y33459D2*
G1X65202Y33932D1*
G1X65202Y35935D2*
G1X65202Y36379D1*
G1X65202Y38995D2*
G1X65202Y39431D1*
G1X65202Y42703D2*
G1X65202Y43096D1*
G1X65202Y43437D2*
G1X65202Y43812D1*
G1X65202Y45584D2*
G1X65202Y46569D1*
G1X65202Y48049D2*
G1X65202Y48484D1*
G1X65202Y50406D2*
G1X65202Y50842D1*
G1X65202Y52763D2*
G1X65202Y53199D1*
G1X65202Y56352D2*
G1X65202Y56788D1*
G1X65202Y58757D2*
G1X65202Y59203D1*
G1X65202Y60209D2*
G1X65202Y61194D1*
G1X65202Y62674D2*
G1X65202Y63109D1*
G1X65202Y312408D2*
G1X65202Y317092D1*
G1X65202Y317658D2*
G1X65202Y318317D1*
G1X65202Y318783D2*
G1X65202Y319539D1*
G1X65202Y323200D2*
G1X65202Y327942D1*
G1X65202Y328829D2*
G1X65202Y329543D1*
G1X65202Y329976D2*
G1X65202Y332871D1*
G1X65202Y333875D2*
G1X65202Y338338D1*
G1X65202Y339417D2*
G1X65202Y340075D1*
G1X65202Y344404D2*
G1X65202Y345118D1*
G1X65202Y345551D2*
G1X65202Y348446D1*
G1X65202Y349450D2*
G1X65202Y350108D1*
G1X65202Y350560D2*
G1X65202Y351275D1*
G1X65202Y355361D2*
G1X65202Y359454D1*
G1X65302Y15745D2*
G1X65302Y16181D1*
G1X65302Y17190D2*
G1X65302Y17799D1*
G1X65302Y19388D2*
G1X65302Y19824D1*
G1X65302Y20781D2*
G1X65302Y21217D1*
G1X65302Y21409D2*
G1X65302Y21758D1*
G1X65302Y23395D2*
G1X65302Y23744D1*
G1X65302Y23942D2*
G1X65302Y24377D1*
G1X65302Y25356D2*
G1X65302Y25821D1*
G1X65302Y27950D2*
G1X65302Y28415D1*
G1X65302Y29459D2*
G1X65302Y30509D1*
G1X65302Y31924D2*
G1X65302Y32359D1*
G1X65302Y33392D2*
G1X65302Y33857D1*
G1X65302Y35985D2*
G1X65302Y36450D1*
G1X65302Y38995D2*
G1X65302Y39431D1*
G1X65302Y42663D2*
G1X65302Y43058D1*
G1X65302Y43473D2*
G1X65302Y43852D1*
G1X65302Y45584D2*
G1X65302Y46634D1*
G1X65302Y48049D2*
G1X65302Y48484D1*
G1X65302Y50406D2*
G1X65302Y50842D1*
G1X65302Y52763D2*
G1X65302Y53199D1*
G1X65302Y56352D2*
G1X65302Y56788D1*
G1X65302Y58779D2*
G1X65302Y59220D1*
G1X65302Y60209D2*
G1X65302Y61259D1*
G1X65302Y62674D2*
G1X65302Y63109D1*
G1X65302Y312408D2*
G1X65302Y317092D1*
G1X65302Y317658D2*
G1X65302Y318317D1*
G1X65302Y318769D2*
G1X65302Y319514D1*
G1X65302Y323200D2*
G1X65302Y327942D1*
G1X65302Y328804D2*
G1X65302Y329518D1*
G1X65302Y329953D2*
G1X65302Y332896D1*
G1X65302Y333875D2*
G1X65302Y338468D1*
G1X65302Y339417D2*
G1X65302Y340075D1*
G1X65302Y344379D2*
G1X65302Y345093D1*
G1X65302Y345528D2*
G1X65302Y348471D1*
G1X65302Y349450D2*
G1X65302Y350108D1*
G1X65302Y350576D2*
G1X65302Y351308D1*
G1X65302Y355511D2*
G1X65302Y359521D1*
G1X65402Y15745D2*
G1X65402Y16181D1*
G1X65402Y17090D2*
G1X65402Y17699D1*
G1X65402Y19388D2*
G1X65402Y19824D1*
G1X65402Y20781D2*
G1X65402Y21217D1*
G1X65402Y21440D2*
G1X65402Y21789D1*
G1X65402Y23363D2*
G1X65402Y23711D1*
G1X65402Y23942D2*
G1X65402Y24377D1*
G1X65402Y25306D2*
G1X65402Y25760D1*
G1X65402Y28000D2*
G1X65402Y28469D1*
G1X65402Y29459D2*
G1X65402Y29895D1*
G1X65402Y30014D2*
G1X65402Y30574D1*
G1X65402Y31924D2*
G1X65402Y32359D1*
G1X65402Y33342D2*
G1X65402Y33796D1*
G1X65402Y36035D2*
G1X65402Y36505D1*
G1X65402Y38995D2*
G1X65402Y39431D1*
G1X65402Y42622D2*
G1X65402Y43019D1*
G1X65402Y43511D2*
G1X65402Y43893D1*
G1X65402Y45584D2*
G1X65402Y46020D1*
G1X65402Y46139D2*
G1X65402Y46699D1*
G1X65402Y48049D2*
G1X65402Y48484D1*
G1X65402Y50406D2*
G1X65402Y50842D1*
G1X65402Y52763D2*
G1X65402Y53199D1*
G1X65402Y56352D2*
G1X65402Y56788D1*
G1X65402Y58799D2*
G1X65402Y59236D1*
G1X65402Y60209D2*
G1X65402Y60645D1*
G1X65402Y60764D2*
G1X65402Y61324D1*
G1X65402Y62674D2*
G1X65402Y63109D1*
G1X65402Y312408D2*
G1X65402Y317092D1*
G1X65402Y317658D2*
G1X65402Y318317D1*
G1X65402Y318767D2*
G1X65402Y319489D1*
G1X65402Y323200D2*
G1X65402Y323917D1*
G1X65402Y328779D2*
G1X65402Y329493D1*
G1X65402Y329929D2*
G1X65402Y332921D1*
G1X65402Y333875D2*
G1X65402Y338568D1*
G1X65402Y339417D2*
G1X65402Y340075D1*
G1X65402Y344354D2*
G1X65402Y345068D1*
G1X65402Y345504D2*
G1X65402Y348496D1*
G1X65402Y349450D2*
G1X65402Y350108D1*
G1X65402Y350593D2*
G1X65402Y353979D1*
G1X65402Y355932D2*
G1X65402Y359588D1*
G1X65502Y15745D2*
G1X65502Y16181D1*
G1X65502Y16990D2*
G1X65502Y17599D1*
G1X65502Y19388D2*
G1X65502Y19824D1*
G1X65502Y20781D2*
G1X65502Y21217D1*
G1X65502Y21471D2*
G1X65502Y21821D1*
G1X65502Y23331D2*
G1X65502Y23678D1*
G1X65502Y23942D2*
G1X65502Y24377D1*
G1X65502Y25256D2*
G1X65502Y25720D1*
G1X65502Y28050D2*
G1X65502Y28502D1*
G1X65502Y29459D2*
G1X65502Y29895D1*
G1X65502Y30079D2*
G1X65502Y30639D1*
G1X65502Y31924D2*
G1X65502Y32359D1*
G1X65502Y33292D2*
G1X65502Y33756D1*
G1X65502Y36085D2*
G1X65502Y36538D1*
G1X65502Y38995D2*
G1X65502Y39431D1*
G1X65502Y42582D2*
G1X65502Y42981D1*
G1X65502Y43548D2*
G1X65502Y43933D1*
G1X65502Y45584D2*
G1X65502Y46020D1*
G1X65502Y46204D2*
G1X65502Y46764D1*
G1X65502Y48049D2*
G1X65502Y48484D1*
G1X65502Y50406D2*
G1X65502Y50842D1*
G1X65502Y52763D2*
G1X65502Y53199D1*
G1X65502Y56352D2*
G1X65502Y56788D1*
G1X65502Y58816D2*
G1X65502Y59251D1*
G1X65502Y60209D2*
G1X65502Y60645D1*
G1X65502Y60829D2*
G1X65502Y61389D1*
G1X65502Y62674D2*
G1X65502Y63109D1*
G1X65502Y312408D2*
G1X65502Y313067D1*
G1X65502Y317658D2*
G1X65502Y318317D1*
G1X65502Y318769D2*
G1X65502Y319500D1*
G1X65502Y323200D2*
G1X65502Y323917D1*
G1X65502Y328754D2*
G1X65502Y329468D1*
G1X65502Y332246D2*
G1X65502Y332946D1*
G1X65502Y333875D2*
G1X65502Y334533D1*
G1X65502Y337756D2*
G1X65502Y338668D1*
G1X65502Y339417D2*
G1X65502Y340075D1*
G1X65502Y344329D2*
G1X65502Y345043D1*
G1X65502Y347821D2*
G1X65502Y348521D1*
G1X65502Y349450D2*
G1X65502Y350108D1*
G1X65502Y350610D2*
G1X65502Y354168D1*
G1X65502Y358872D2*
G1X65502Y359626D1*
G1X65602Y15745D2*
G1X65602Y16181D1*
G1X65602Y16890D2*
G1X65602Y17499D1*
G1X65602Y19388D2*
G1X65602Y19824D1*
G1X65602Y20781D2*
G1X65602Y21217D1*
G1X65602Y21503D2*
G1X65602Y21852D1*
G1X65602Y23299D2*
G1X65602Y23646D1*
G1X65602Y23942D2*
G1X65602Y24377D1*
G1X65602Y25221D2*
G1X65602Y25680D1*
G1X65602Y28084D2*
G1X65602Y28535D1*
G1X65602Y29459D2*
G1X65602Y29895D1*
G1X65602Y30144D2*
G1X65602Y30703D1*
G1X65602Y31924D2*
G1X65602Y32359D1*
G1X65602Y33257D2*
G1X65602Y33716D1*
G1X65602Y36120D2*
G1X65602Y36571D1*
G1X65602Y38995D2*
G1X65602Y39431D1*
G1X65602Y42542D2*
G1X65602Y42942D1*
G1X65602Y43586D2*
G1X65602Y43973D1*
G1X65602Y45584D2*
G1X65602Y46020D1*
G1X65602Y46269D2*
G1X65602Y46828D1*
G1X65602Y48049D2*
G1X65602Y48484D1*
G1X65602Y50406D2*
G1X65602Y50842D1*
G1X65602Y52763D2*
G1X65602Y53199D1*
G1X65602Y56352D2*
G1X65602Y56788D1*
G1X65602Y58783D2*
G1X65602Y59236D1*
G1X65602Y60209D2*
G1X65602Y60645D1*
G1X65602Y60894D2*
G1X65602Y61453D1*
G1X65602Y62674D2*
G1X65602Y63109D1*
G1X65602Y312408D2*
G1X65602Y313067D1*
G1X65602Y317658D2*
G1X65602Y318317D1*
G1X65602Y318783D2*
G1X65602Y319525D1*
G1X65602Y323200D2*
G1X65602Y323917D1*
G1X65602Y328729D2*
G1X65602Y329443D1*
G1X65602Y332270D2*
G1X65602Y332971D1*
G1X65602Y333875D2*
G1X65602Y334533D1*
G1X65602Y337906D2*
G1X65602Y338697D1*
G1X65602Y339417D2*
G1X65602Y340075D1*
G1X65602Y344304D2*
G1X65602Y345018D1*
G1X65602Y347845D2*
G1X65602Y348546D1*
G1X65602Y349450D2*
G1X65602Y350108D1*
G1X65602Y350658D2*
G1X65602Y354228D1*
G1X65602Y358926D2*
G1X65602Y359641D1*
G1X65702Y15745D2*
G1X65702Y16181D1*
G1X65702Y16790D2*
G1X65702Y17399D1*
G1X65702Y19388D2*
G1X65702Y19824D1*
G1X65702Y20781D2*
G1X65702Y21217D1*
G1X65702Y21534D2*
G1X65702Y21883D1*
G1X65702Y23267D2*
G1X65702Y23613D1*
G1X65702Y23942D2*
G1X65702Y24377D1*
G1X65702Y25208D2*
G1X65702Y25648D1*
G1X65702Y28113D2*
G1X65702Y28569D1*
G1X65702Y29459D2*
G1X65702Y29895D1*
G1X65702Y30209D2*
G1X65702Y30768D1*
G1X65702Y31924D2*
G1X65702Y32359D1*
G1X65702Y33244D2*
G1X65702Y33683D1*
G1X65702Y36148D2*
G1X65702Y36605D1*
G1X65702Y38995D2*
G1X65702Y39431D1*
G1X65702Y42502D2*
G1X65702Y42904D1*
G1X65702Y43623D2*
G1X65702Y44014D1*
G1X65702Y45584D2*
G1X65702Y46020D1*
G1X65702Y46334D2*
G1X65702Y46893D1*
G1X65702Y48049D2*
G1X65702Y48484D1*
G1X65702Y50406D2*
G1X65702Y50842D1*
G1X65702Y52763D2*
G1X65702Y53199D1*
G1X65702Y56352D2*
G1X65702Y56788D1*
G1X65702Y58750D2*
G1X65702Y59222D1*
G1X65702Y60209D2*
G1X65702Y60645D1*
G1X65702Y60959D2*
G1X65702Y61518D1*
G1X65702Y62674D2*
G1X65702Y63109D1*
G1X65702Y312408D2*
G1X65702Y313067D1*
G1X65702Y317658D2*
G1X65702Y318317D1*
G1X65702Y318798D2*
G1X65702Y319560D1*
G1X65702Y323200D2*
G1X65702Y323917D1*
G1X65702Y328704D2*
G1X65702Y329418D1*
G1X65702Y332295D2*
G1X65702Y332996D1*
G1X65702Y333875D2*
G1X65702Y334533D1*
G1X65702Y337983D2*
G1X65702Y338717D1*
G1X65702Y339417D2*
G1X65702Y340075D1*
G1X65702Y344279D2*
G1X65702Y344993D1*
G1X65702Y347870D2*
G1X65702Y348571D1*
G1X65702Y349450D2*
G1X65702Y350108D1*
G1X65702Y350718D2*
G1X65702Y354288D1*
G1X65702Y358966D2*
G1X65702Y359655D1*
G1X65802Y15745D2*
G1X65802Y16181D1*
G1X65802Y16690D2*
G1X65802Y17299D1*
G1X65802Y19388D2*
G1X65802Y19824D1*
G1X65802Y20781D2*
G1X65802Y21217D1*
G1X65802Y21565D2*
G1X65802Y21915D1*
G1X65802Y23235D2*
G1X65802Y23580D1*
G1X65802Y23942D2*
G1X65802Y24377D1*
G1X65802Y25196D2*
G1X65802Y25619D1*
G1X65802Y28141D2*
G1X65802Y28602D1*
G1X65802Y29459D2*
G1X65802Y29895D1*
G1X65802Y30274D2*
G1X65802Y30833D1*
G1X65802Y31924D2*
G1X65802Y32359D1*
G1X65802Y33232D2*
G1X65802Y33655D1*
G1X65802Y36177D2*
G1X65802Y36638D1*
G1X65802Y38995D2*
G1X65802Y39431D1*
G1X65802Y42461D2*
G1X65802Y42866D1*
G1X65802Y43660D2*
G1X65802Y44054D1*
G1X65802Y45584D2*
G1X65802Y46020D1*
G1X65802Y46399D2*
G1X65802Y46958D1*
G1X65802Y48049D2*
G1X65802Y48484D1*
G1X65802Y50406D2*
G1X65802Y50842D1*
G1X65802Y52763D2*
G1X65802Y53199D1*
G1X65802Y56352D2*
G1X65802Y56788D1*
G1X65802Y58717D2*
G1X65802Y59208D1*
G1X65802Y60209D2*
G1X65802Y60645D1*
G1X65802Y61024D2*
G1X65802Y61583D1*
G1X65802Y62674D2*
G1X65802Y63109D1*
G1X65802Y312408D2*
G1X65802Y313067D1*
G1X65802Y317658D2*
G1X65802Y318317D1*
G1X65802Y318812D2*
G1X65802Y322040D1*
G1X65802Y323200D2*
G1X65802Y323917D1*
G1X65802Y328679D2*
G1X65802Y329393D1*
G1X65802Y332319D2*
G1X65802Y333021D1*
G1X65802Y333875D2*
G1X65802Y334533D1*
G1X65802Y338033D2*
G1X65802Y338736D1*
G1X65802Y339417D2*
G1X65802Y340075D1*
G1X65802Y344254D2*
G1X65802Y344968D1*
G1X65802Y347894D2*
G1X65802Y348596D1*
G1X65802Y349450D2*
G1X65802Y350108D1*
G1X65802Y350785D2*
G1X65802Y354321D1*
G1X65802Y359006D2*
G1X65802Y359669D1*
G1X65902Y15745D2*
G1X65902Y16181D1*
G1X65902Y16590D2*
G1X65902Y17199D1*
G1X65902Y19388D2*
G1X65902Y19824D1*
G1X65902Y20781D2*
G1X65902Y21217D1*
G1X65902Y21596D2*
G1X65902Y21946D1*
G1X65902Y23203D2*
G1X65902Y23547D1*
G1X65902Y23942D2*
G1X65902Y24377D1*
G1X65902Y25183D2*
G1X65902Y25590D1*
G1X65902Y28170D2*
G1X65902Y28618D1*
G1X65902Y29459D2*
G1X65902Y29895D1*
G1X65902Y30338D2*
G1X65902Y30898D1*
G1X65902Y31924D2*
G1X65902Y32359D1*
G1X65902Y33219D2*
G1X65902Y33626D1*
G1X65902Y36205D2*
G1X65902Y36653D1*
G1X65902Y38995D2*
G1X65902Y39431D1*
G1X65902Y42421D2*
G1X65902Y42828D1*
G1X65902Y43697D2*
G1X65902Y44094D1*
G1X65902Y45584D2*
G1X65902Y46020D1*
G1X65902Y46463D2*
G1X65902Y47023D1*
G1X65902Y48049D2*
G1X65902Y48484D1*
G1X65902Y50406D2*
G1X65902Y50842D1*
G1X65902Y52763D2*
G1X65902Y53199D1*
G1X65902Y56352D2*
G1X65902Y56788D1*
G1X65902Y58644D2*
G1X65902Y59158D1*
G1X65902Y60209D2*
G1X65902Y60645D1*
G1X65902Y61088D2*
G1X65902Y61648D1*
G1X65902Y62674D2*
G1X65902Y63109D1*
G1X65902Y312408D2*
G1X65902Y313067D1*
G1X65902Y317658D2*
G1X65902Y318317D1*
G1X65902Y318833D2*
G1X65902Y322290D1*
G1X65902Y323200D2*
G1X65902Y323917D1*
G1X65902Y328654D2*
G1X65902Y329368D1*
G1X65902Y332343D2*
G1X65902Y333046D1*
G1X65902Y333875D2*
G1X65902Y334533D1*
G1X65902Y338076D2*
G1X65902Y338753D1*
G1X65902Y339417D2*
G1X65902Y340075D1*
G1X65902Y344229D2*
G1X65902Y344943D1*
G1X65902Y347918D2*
G1X65902Y348621D1*
G1X65902Y349450D2*
G1X65902Y350108D1*
G1X65902Y351035D2*
G1X65902Y354338D1*
G1X65902Y359017D2*
G1X65902Y359675D1*
G1X66002Y15745D2*
G1X66002Y16181D1*
G1X66002Y16490D2*
G1X66002Y17100D1*
G1X66002Y19388D2*
G1X66002Y19824D1*
G1X66002Y20781D2*
G1X66002Y21217D1*
G1X66002Y21627D2*
G1X66002Y21977D1*
G1X66002Y23171D2*
G1X66002Y23514D1*
G1X66002Y23942D2*
G1X66002Y24377D1*
G1X66002Y25171D2*
G1X66002Y25562D1*
G1X66002Y28184D2*
G1X66002Y28628D1*
G1X66002Y29459D2*
G1X66002Y29895D1*
G1X66002Y30403D2*
G1X66002Y30963D1*
G1X66002Y31924D2*
G1X66002Y32359D1*
G1X66002Y33207D2*
G1X66002Y33598D1*
G1X66002Y36220D2*
G1X66002Y36663D1*
G1X66002Y38995D2*
G1X66002Y39431D1*
G1X66002Y42381D2*
G1X66002Y42790D1*
G1X66002Y43733D2*
G1X66002Y44134D1*
G1X66002Y45584D2*
G1X66002Y46020D1*
G1X66002Y46528D2*
G1X66002Y47088D1*
G1X66002Y48049D2*
G1X66002Y48484D1*
G1X66002Y50406D2*
G1X66002Y50842D1*
G1X66002Y52763D2*
G1X66002Y53199D1*
G1X66002Y56352D2*
G1X66002Y56788D1*
G1X66002Y58544D2*
G1X66002Y59078D1*
G1X66002Y60209D2*
G1X66002Y60645D1*
G1X66002Y61153D2*
G1X66002Y61713D1*
G1X66002Y62674D2*
G1X66002Y63109D1*
G1X66002Y312408D2*
G1X66002Y313067D1*
G1X66002Y317658D2*
G1X66002Y318317D1*
G1X66002Y318883D2*
G1X66002Y322473D1*
G1X66002Y323200D2*
G1X66002Y323917D1*
G1X66002Y328629D2*
G1X66002Y329343D1*
G1X66002Y332367D2*
G1X66002Y333071D1*
G1X66002Y333875D2*
G1X66002Y334533D1*
G1X66002Y338093D2*
G1X66002Y338770D1*
G1X66002Y339417D2*
G1X66002Y340075D1*
G1X66002Y344204D2*
G1X66002Y344918D1*
G1X66002Y347942D2*
G1X66002Y348646D1*
G1X66002Y349450D2*
G1X66002Y350108D1*
G1X66002Y353649D2*
G1X66002Y354354D1*
G1X66002Y359017D2*
G1X66002Y359675D1*
G1X66102Y15745D2*
G1X66102Y16181D1*
G1X66102Y16390D2*
G1X66102Y17134D1*
G1X66102Y19388D2*
G1X66102Y19824D1*
G1X66102Y20781D2*
G1X66102Y21217D1*
G1X66102Y21658D2*
G1X66102Y22009D1*
G1X66102Y23139D2*
G1X66102Y23482D1*
G1X66102Y23942D2*
G1X66102Y24377D1*
G1X66102Y25158D2*
G1X66102Y25556D1*
G1X66102Y28196D2*
G1X66102Y28638D1*
G1X66102Y29459D2*
G1X66102Y29895D1*
G1X66102Y30468D2*
G1X66102Y31027D1*
G1X66102Y31924D2*
G1X66102Y32359D1*
G1X66102Y33194D2*
G1X66102Y33592D1*
G1X66102Y36232D2*
G1X66102Y36673D1*
G1X66102Y38995D2*
G1X66102Y39431D1*
G1X66102Y42341D2*
G1X66102Y42752D1*
G1X66102Y43770D2*
G1X66102Y44175D1*
G1X66102Y45584D2*
G1X66102Y46020D1*
G1X66102Y46593D2*
G1X66102Y47152D1*
G1X66102Y48049D2*
G1X66102Y48484D1*
G1X66102Y50406D2*
G1X66102Y50842D1*
G1X66102Y52763D2*
G1X66102Y53202D1*
G1X66102Y56352D2*
G1X66102Y56788D1*
G1X66102Y58444D2*
G1X66102Y58998D1*
G1X66102Y60209D2*
G1X66102Y60645D1*
G1X66102Y61218D2*
G1X66102Y61777D1*
G1X66102Y62674D2*
G1X66102Y63109D1*
G1X66102Y312408D2*
G1X66102Y313067D1*
G1X66102Y317658D2*
G1X66102Y318317D1*
G1X66102Y318933D2*
G1X66102Y322513D1*
G1X66102Y323200D2*
G1X66102Y323917D1*
G1X66102Y328604D2*
G1X66102Y329318D1*
G1X66102Y332391D2*
G1X66102Y333096D1*
G1X66102Y333875D2*
G1X66102Y334533D1*
G1X66102Y338110D2*
G1X66102Y338786D1*
G1X66102Y339421D2*
G1X66102Y340083D1*
G1X66102Y344179D2*
G1X66102Y344893D1*
G1X66102Y347966D2*
G1X66102Y348671D1*
G1X66102Y349450D2*
G1X66102Y350108D1*
G1X66102Y353682D2*
G1X66102Y354367D1*
G1X66102Y359007D2*
G1X66102Y359671D1*
G1X66202Y15745D2*
G1X66202Y16182D1*
G1X66202Y16290D2*
G1X66202Y17210D1*
G1X66202Y19388D2*
G1X66202Y19824D1*
G1X66202Y20781D2*
G1X66202Y21217D1*
G1X66202Y21690D2*
G1X66202Y22040D1*
G1X66202Y23107D2*
G1X66202Y23449D1*
G1X66202Y23942D2*
G1X66202Y24377D1*
G1X66202Y25146D2*
G1X66202Y25556D1*
G1X66202Y28209D2*
G1X66202Y28648D1*
G1X66202Y29459D2*
G1X66202Y29895D1*
G1X66202Y30533D2*
G1X66202Y31092D1*
G1X66202Y31924D2*
G1X66202Y32359D1*
G1X66202Y33182D2*
G1X66202Y33592D1*
G1X66202Y36245D2*
G1X66202Y36683D1*
G1X66202Y38995D2*
G1X66202Y39431D1*
G1X66202Y42300D2*
G1X66202Y42714D1*
G1X66202Y43807D2*
G1X66202Y44215D1*
G1X66202Y45584D2*
G1X66202Y46020D1*
G1X66202Y46658D2*
G1X66202Y47217D1*
G1X66202Y48049D2*
G1X66202Y48484D1*
G1X66202Y50406D2*
G1X66202Y50842D1*
G1X66202Y52763D2*
G1X66202Y55288D1*
G1X66202Y56352D2*
G1X66202Y58878D1*
G1X66202Y60209D2*
G1X66202Y60645D1*
G1X66202Y61283D2*
G1X66202Y61842D1*
G1X66202Y62674D2*
G1X66202Y63109D1*
G1X66202Y312408D2*
G1X66202Y313067D1*
G1X66202Y317658D2*
G1X66202Y318317D1*
G1X66202Y318983D2*
G1X66202Y322553D1*
G1X66202Y323219D2*
G1X66202Y323917D1*
G1X66202Y328579D2*
G1X66202Y329293D1*
G1X66202Y332415D2*
G1X66202Y333121D1*
G1X66202Y333875D2*
G1X66202Y334533D1*
G1X66202Y338126D2*
G1X66202Y338792D1*
G1X66202Y339433D2*
G1X66202Y340123D1*
G1X66202Y344154D2*
G1X66202Y344868D1*
G1X66202Y347990D2*
G1X66202Y348696D1*
G1X66202Y349450D2*
G1X66202Y350108D1*
G1X66202Y353708D2*
G1X66202Y354367D1*
G1X66202Y358957D2*
G1X66202Y359658D1*
G1X66302Y15745D2*
G1X66302Y17286D1*
G1X66302Y19388D2*
G1X66302Y19824D1*
G1X66302Y20781D2*
G1X66302Y21217D1*
G1X66302Y21721D2*
G1X66302Y22072D1*
G1X66302Y23075D2*
G1X66302Y23416D1*
G1X66302Y23942D2*
G1X66302Y24377D1*
G1X66302Y25133D2*
G1X66302Y25556D1*
G1X66302Y28221D2*
G1X66302Y28658D1*
G1X66302Y29459D2*
G1X66302Y29895D1*
G1X66302Y30598D2*
G1X66302Y31157D1*
G1X66302Y31924D2*
G1X66302Y32359D1*
G1X66302Y33169D2*
G1X66302Y33592D1*
G1X66302Y36257D2*
G1X66302Y36693D1*
G1X66302Y38995D2*
G1X66302Y39431D1*
G1X66302Y42260D2*
G1X66302Y42676D1*
G1X66302Y43844D2*
G1X66302Y44255D1*
G1X66302Y45584D2*
G1X66302Y46020D1*
G1X66302Y46723D2*
G1X66302Y47282D1*
G1X66302Y48049D2*
G1X66302Y48484D1*
G1X66302Y50406D2*
G1X66302Y50842D1*
G1X66302Y52763D2*
G1X66302Y55288D1*
G1X66302Y56352D2*
G1X66302Y58758D1*
G1X66302Y60209D2*
G1X66302Y60645D1*
G1X66302Y61348D2*
G1X66302Y61907D1*
G1X66302Y62674D2*
G1X66302Y63109D1*
G1X66302Y312408D2*
G1X66302Y313067D1*
G1X66302Y317658D2*
G1X66302Y318317D1*
G1X66302Y319139D2*
G1X66302Y322582D1*
G1X66302Y323244D2*
G1X66302Y323917D1*
G1X66302Y328554D2*
G1X66302Y329268D1*
G1X66302Y332439D2*
G1X66302Y333146D1*
G1X66302Y333875D2*
G1X66302Y334533D1*
G1X66302Y338133D2*
G1X66302Y338792D1*
G1X66302Y339446D2*
G1X66302Y340163D1*
G1X66302Y344129D2*
G1X66302Y344843D1*
G1X66302Y348014D2*
G1X66302Y348721D1*
G1X66302Y349450D2*
G1X66302Y350108D1*
G1X66302Y353708D2*
G1X66302Y354367D1*
G1X66302Y358865D2*
G1X66302Y359646D1*
G1X66402Y15745D2*
G1X66402Y16699D1*
G1X66402Y16827D2*
G1X66402Y17362D1*
G1X66402Y19388D2*
G1X66402Y19824D1*
G1X66402Y20781D2*
G1X66402Y21217D1*
G1X66402Y21752D2*
G1X66402Y22103D1*
G1X66402Y23043D2*
G1X66402Y23383D1*
G1X66402Y23942D2*
G1X66402Y24377D1*
G1X66402Y25121D2*
G1X66402Y25556D1*
G1X66402Y28220D2*
G1X66402Y28658D1*
G1X66402Y29459D2*
G1X66402Y29895D1*
G1X66402Y30663D2*
G1X66402Y31222D1*
G1X66402Y31924D2*
G1X66402Y32359D1*
G1X66402Y33157D2*
G1X66402Y33592D1*
G1X66402Y36255D2*
G1X66402Y36694D1*
G1X66402Y38995D2*
G1X66402Y39431D1*
G1X66402Y42220D2*
G1X66402Y42638D1*
G1X66402Y43881D2*
G1X66402Y44296D1*
G1X66402Y45584D2*
G1X66402Y46020D1*
G1X66402Y46788D2*
G1X66402Y47347D1*
G1X66402Y48049D2*
G1X66402Y48484D1*
G1X66402Y50406D2*
G1X66402Y50842D1*
G1X66402Y52763D2*
G1X66402Y55288D1*
G1X66402Y56352D2*
G1X66402Y58519D1*
G1X66402Y60209D2*
G1X66402Y60645D1*
G1X66402Y61413D2*
G1X66402Y61972D1*
G1X66402Y62674D2*
G1X66402Y63109D1*
G1X66402Y312408D2*
G1X66402Y313067D1*
G1X66402Y317658D2*
G1X66402Y318317D1*
G1X66402Y319488D2*
G1X66402Y322597D1*
G1X66402Y323269D2*
G1X66402Y323993D1*
G1X66402Y328529D2*
G1X66402Y329243D1*
G1X66402Y332464D2*
G1X66402Y333171D1*
G1X66402Y333875D2*
G1X66402Y334533D1*
G1X66402Y338133D2*
G1X66402Y338792D1*
G1X66402Y339458D2*
G1X66402Y340210D1*
G1X66402Y344104D2*
G1X66402Y344818D1*
G1X66402Y348039D2*
G1X66402Y348746D1*
G1X66402Y349450D2*
G1X66402Y350108D1*
G1X66402Y353666D2*
G1X66402Y354359D1*
G1X66402Y358765D2*
G1X66402Y359633D1*
G1X66502Y15745D2*
G1X66502Y16599D1*
G1X66502Y16905D2*
G1X66502Y17438D1*
G1X66502Y19388D2*
G1X66502Y19824D1*
G1X66502Y20781D2*
G1X66502Y21217D1*
G1X66502Y21783D2*
G1X66502Y22134D1*
G1X66502Y23011D2*
G1X66502Y23350D1*
G1X66502Y23942D2*
G1X66502Y24377D1*
G1X66502Y25131D2*
G1X66502Y25571D1*
G1X66502Y28203D2*
G1X66502Y28649D1*
G1X66502Y29459D2*
G1X66502Y29895D1*
G1X66502Y30727D2*
G1X66502Y31287D1*
G1X66502Y31924D2*
G1X66502Y32359D1*
G1X66502Y33167D2*
G1X66502Y33607D1*
G1X66502Y36239D2*
G1X66502Y36685D1*
G1X66502Y38995D2*
G1X66502Y39431D1*
G1X66502Y42179D2*
G1X66502Y42600D1*
G1X66502Y43918D2*
G1X66502Y44336D1*
G1X66502Y45584D2*
G1X66502Y46020D1*
G1X66502Y46852D2*
G1X66502Y47412D1*
G1X66502Y48049D2*
G1X66502Y48484D1*
G1X66502Y50406D2*
G1X66502Y50842D1*
G1X66502Y52763D2*
G1X66502Y53200D1*
G1X66502Y56352D2*
G1X66502Y58235D1*
G1X66502Y60209D2*
G1X66502Y60645D1*
G1X66502Y61477D2*
G1X66502Y62037D1*
G1X66502Y62674D2*
G1X66502Y63109D1*
G1X66502Y312408D2*
G1X66502Y313067D1*
G1X66502Y317658D2*
G1X66502Y318317D1*
G1X66502Y321901D2*
G1X66502Y322611D1*
G1X66502Y323294D2*
G1X66502Y327942D1*
G1X66502Y328504D2*
G1X66502Y329218D1*
G1X66502Y332488D2*
G1X66502Y333196D1*
G1X66502Y333875D2*
G1X66502Y334533D1*
G1X66502Y338133D2*
G1X66502Y338792D1*
G1X66502Y339471D2*
G1X66502Y343575D1*
G1X66502Y344079D2*
G1X66502Y344793D1*
G1X66502Y348063D2*
G1X66502Y348771D1*
G1X66502Y349450D2*
G1X66502Y354343D1*
G1X66502Y354992D2*
G1X66502Y359621D1*
G1X66602Y15745D2*
G1X66602Y16499D1*
G1X66602Y16982D2*
G1X66602Y17515D1*
G1X66602Y19388D2*
G1X66602Y19824D1*
G1X66602Y20781D2*
G1X66602Y21217D1*
G1X66602Y21814D2*
G1X66602Y22166D1*
G1X66602Y22979D2*
G1X66602Y23318D1*
G1X66602Y23942D2*
G1X66602Y24377D1*
G1X66602Y25142D2*
G1X66602Y25588D1*
G1X66602Y28186D2*
G1X66602Y28640D1*
G1X66602Y29459D2*
G1X66602Y29895D1*
G1X66602Y30792D2*
G1X66602Y31352D1*
G1X66602Y31924D2*
G1X66602Y32359D1*
G1X66602Y33178D2*
G1X66602Y33624D1*
G1X66602Y36222D2*
G1X66602Y36676D1*
G1X66602Y38995D2*
G1X66602Y39431D1*
G1X66602Y42139D2*
G1X66602Y42561D1*
G1X66602Y43954D2*
G1X66602Y44376D1*
G1X66602Y45584D2*
G1X66602Y46020D1*
G1X66602Y46917D2*
G1X66602Y47477D1*
G1X66602Y48049D2*
G1X66602Y48484D1*
G1X66602Y50406D2*
G1X66602Y50842D1*
G1X66602Y52763D2*
G1X66602Y53199D1*
G1X66602Y56352D2*
G1X66602Y56788D1*
G1X66602Y57880D2*
G1X66602Y58317D1*
G1X66602Y60209D2*
G1X66602Y60645D1*
G1X66602Y61542D2*
G1X66602Y62102D1*
G1X66602Y62674D2*
G1X66602Y63109D1*
G1X66602Y312408D2*
G1X66602Y313067D1*
G1X66602Y317658D2*
G1X66602Y318317D1*
G1X66602Y321934D2*
G1X66602Y322625D1*
G1X66602Y323325D2*
G1X66602Y327942D1*
G1X66602Y328479D2*
G1X66602Y329193D1*
G1X66602Y332512D2*
G1X66602Y333221D1*
G1X66602Y333875D2*
G1X66602Y334533D1*
G1X66602Y338133D2*
G1X66602Y338792D1*
G1X66602Y339527D2*
G1X66602Y343575D1*
G1X66602Y344054D2*
G1X66602Y344768D1*
G1X66602Y348087D2*
G1X66602Y348796D1*
G1X66602Y349450D2*
G1X66602Y354326D1*
G1X66602Y354992D2*
G1X66602Y359564D1*
G1X66702Y15745D2*
G1X66702Y16399D1*
G1X66702Y17059D2*
G1X66702Y17591D1*
G1X66702Y19388D2*
G1X66702Y19824D1*
G1X66702Y20781D2*
G1X66702Y21217D1*
G1X66702Y21845D2*
G1X66702Y22197D1*
G1X66702Y22947D2*
G1X66702Y23285D1*
G1X66702Y23942D2*
G1X66702Y24377D1*
G1X66702Y25153D2*
G1X66702Y25605D1*
G1X66702Y28170D2*
G1X66702Y28631D1*
G1X66702Y29459D2*
G1X66702Y29895D1*
G1X66702Y30857D2*
G1X66702Y31416D1*
G1X66702Y31924D2*
G1X66702Y32359D1*
G1X66702Y33189D2*
G1X66702Y33640D1*
G1X66702Y36205D2*
G1X66702Y36667D1*
G1X66702Y38995D2*
G1X66702Y39431D1*
G1X66702Y42099D2*
G1X66702Y42547D1*
G1X66702Y43968D2*
G1X66702Y44416D1*
G1X66702Y45584D2*
G1X66702Y46020D1*
G1X66702Y46982D2*
G1X66702Y47541D1*
G1X66702Y48049D2*
G1X66702Y48484D1*
G1X66702Y50406D2*
G1X66702Y50842D1*
G1X66702Y52763D2*
G1X66702Y53199D1*
G1X66702Y56352D2*
G1X66702Y56788D1*
G1X66702Y58009D2*
G1X66702Y58442D1*
G1X66702Y60209D2*
G1X66702Y60645D1*
G1X66702Y61607D2*
G1X66702Y62166D1*
G1X66702Y62674D2*
G1X66702Y63109D1*
G1X66702Y312408D2*
G1X66702Y313067D1*
G1X66702Y317658D2*
G1X66702Y318317D1*
G1X66702Y321959D2*
G1X66702Y322633D1*
G1X66702Y323375D2*
G1X66702Y327942D1*
G1X66702Y328454D2*
G1X66702Y329168D1*
G1X66702Y332536D2*
G1X66702Y333246D1*
G1X66702Y333875D2*
G1X66702Y334533D1*
G1X66702Y338133D2*
G1X66702Y338792D1*
G1X66702Y339594D2*
G1X66702Y343575D1*
G1X66702Y344029D2*
G1X66702Y344743D1*
G1X66702Y348111D2*
G1X66702Y348821D1*
G1X66702Y349450D2*
G1X66702Y354304D1*
G1X66702Y354992D2*
G1X66702Y359497D1*
G1X66802Y15745D2*
G1X66802Y16299D1*
G1X66802Y17136D2*
G1X66802Y17667D1*
G1X66802Y19388D2*
G1X66802Y19824D1*
G1X66802Y20781D2*
G1X66802Y21217D1*
G1X66802Y21876D2*
G1X66802Y22228D1*
G1X66802Y22915D2*
G1X66802Y23252D1*
G1X66802Y23942D2*
G1X66802Y24377D1*
G1X66802Y25165D2*
G1X66802Y25621D1*
G1X66802Y28153D2*
G1X66802Y28622D1*
G1X66802Y29459D2*
G1X66802Y29895D1*
G1X66802Y30922D2*
G1X66802Y31481D1*
G1X66802Y31924D2*
G1X66802Y32359D1*
G1X66802Y33200D2*
G1X66802Y33657D1*
G1X66802Y36189D2*
G1X66802Y36658D1*
G1X66802Y38995D2*
G1X66802Y39431D1*
G1X66802Y42059D2*
G1X66802Y44457D1*
G1X66802Y45584D2*
G1X66802Y46020D1*
G1X66802Y47047D2*
G1X66802Y47606D1*
G1X66802Y48049D2*
G1X66802Y48484D1*
G1X66802Y50406D2*
G1X66802Y50842D1*
G1X66802Y52763D2*
G1X66802Y53199D1*
G1X66802Y56352D2*
G1X66802Y56788D1*
G1X66802Y58091D2*
G1X66802Y58557D1*
G1X66802Y60209D2*
G1X66802Y60645D1*
G1X66802Y61672D2*
G1X66802Y62231D1*
G1X66802Y62674D2*
G1X66802Y63109D1*
G1X66802Y312408D2*
G1X66802Y313067D1*
G1X66802Y317658D2*
G1X66802Y318317D1*
G1X66802Y321975D2*
G1X66802Y322633D1*
G1X66802Y323425D2*
G1X66802Y327942D1*
G1X66802Y328429D2*
G1X66802Y329143D1*
G1X66802Y332560D2*
G1X66802Y333271D1*
G1X66802Y333875D2*
G1X66802Y334533D1*
G1X66802Y338133D2*
G1X66802Y338792D1*
G1X66802Y339661D2*
G1X66802Y343575D1*
G1X66802Y344004D2*
G1X66802Y344718D1*
G1X66802Y348135D2*
G1X66802Y348846D1*
G1X66802Y349450D2*
G1X66802Y354229D1*
G1X66802Y354992D2*
G1X66802Y359431D1*
G1X66902Y15745D2*
G1X66902Y16199D1*
G1X66902Y17213D2*
G1X66902Y17743D1*
G1X66902Y19388D2*
G1X66902Y19824D1*
G1X66902Y20781D2*
G1X66902Y21217D1*
G1X66902Y21908D2*
G1X66902Y22260D1*
G1X66902Y22883D2*
G1X66902Y23219D1*
G1X66902Y23942D2*
G1X66902Y24377D1*
G1X66902Y25181D2*
G1X66902Y25638D1*
G1X66902Y28136D2*
G1X66902Y28613D1*
G1X66902Y29459D2*
G1X66902Y29895D1*
G1X66902Y30987D2*
G1X66902Y31546D1*
G1X66902Y31924D2*
G1X66902Y32359D1*
G1X66902Y33217D2*
G1X66902Y33674D1*
G1X66902Y36172D2*
G1X66902Y36648D1*
G1X66902Y38995D2*
G1X66902Y39431D1*
G1X66902Y42018D2*
G1X66902Y44497D1*
G1X66902Y45584D2*
G1X66902Y46020D1*
G1X66902Y47112D2*
G1X66902Y47671D1*
G1X66902Y48049D2*
G1X66902Y48484D1*
G1X66902Y50406D2*
G1X66902Y50842D1*
G1X66902Y52763D2*
G1X66902Y53199D1*
G1X66902Y56352D2*
G1X66902Y56788D1*
G1X66902Y58158D2*
G1X66902Y58657D1*
G1X66902Y60209D2*
G1X66902Y60645D1*
G1X66902Y61737D2*
G1X66902Y62296D1*
G1X66902Y62674D2*
G1X66902Y63109D1*
G1X66902Y312408D2*
G1X66902Y313067D1*
G1X66902Y317658D2*
G1X66902Y318317D1*
G1X66902Y321975D2*
G1X66902Y322633D1*
G1X66902Y323475D2*
G1X66902Y327942D1*
G1X66902Y328404D2*
G1X66902Y329118D1*
G1X66902Y332584D2*
G1X66902Y333296D1*
G1X66902Y333875D2*
G1X66902Y334533D1*
G1X66902Y338133D2*
G1X66902Y338792D1*
G1X66902Y339769D2*
G1X66902Y343575D1*
G1X66902Y343979D2*
G1X66902Y344693D1*
G1X66902Y348159D2*
G1X66902Y348871D1*
G1X66902Y349450D2*
G1X66902Y354154D1*
G1X66902Y354992D2*
G1X66902Y359308D1*
G1X67002Y15745D2*
G1X67002Y16181D1*
G1X67002Y17290D2*
G1X67002Y17819D1*
G1X67002Y19388D2*
G1X67002Y19824D1*
G1X67002Y20781D2*
G1X67002Y21217D1*
G1X67002Y21939D2*
G1X67002Y22291D1*
G1X67002Y22851D2*
G1X67002Y23186D1*
G1X67002Y23942D2*
G1X67002Y24377D1*
G1X67002Y25215D2*
G1X67002Y25655D1*
G1X67002Y28120D2*
G1X67002Y28586D1*
G1X67002Y29459D2*
G1X67002Y29895D1*
G1X67002Y31051D2*
G1X67002Y31611D1*
G1X67002Y31924D2*
G1X67002Y32359D1*
G1X67002Y33250D2*
G1X67002Y33690D1*
G1X67002Y36155D2*
G1X67002Y36622D1*
G1X67002Y38995D2*
G1X67002Y39431D1*
G1X67002Y41978D2*
G1X67002Y44537D1*
G1X67002Y45584D2*
G1X67002Y46020D1*
G1X67002Y47176D2*
G1X67002Y47736D1*
G1X67002Y48049D2*
G1X67002Y48484D1*
G1X67002Y50406D2*
G1X67002Y50842D1*
G1X67002Y52763D2*
G1X67002Y53199D1*
G1X67002Y56352D2*
G1X67002Y56788D1*
G1X67002Y58232D2*
G1X67002Y58752D1*
G1X67002Y60209D2*
G1X67002Y60645D1*
G1X67002Y61801D2*
G1X67002Y62361D1*
G1X67002Y62674D2*
G1X67002Y63109D1*
G1X67002Y312408D2*
G1X67002Y313067D1*
G1X67002Y317658D2*
G1X67002Y318317D1*
G1X67002Y321975D2*
G1X67002Y322633D1*
G1X67002Y323664D2*
G1X67002Y327942D1*
G1X67002Y328379D2*
G1X67002Y329093D1*
G1X67002Y332608D2*
G1X67002Y333321D1*
G1X67002Y333875D2*
G1X67002Y334533D1*
G1X67002Y338133D2*
G1X67002Y338792D1*
G1X67002Y339919D2*
G1X67002Y343575D1*
G1X67002Y343954D2*
G1X67002Y344668D1*
G1X67002Y348183D2*
G1X67002Y348896D1*
G1X67002Y349450D2*
G1X67002Y353994D1*
G1X67002Y354992D2*
G1X67002Y359133D1*
G1X67102Y15745D2*
G1X67102Y16181D1*
G1X67102Y17367D2*
G1X67102Y17895D1*
G1X67102Y19388D2*
G1X67102Y19824D1*
G1X67102Y20781D2*
G1X67102Y21217D1*
G1X67102Y21970D2*
G1X67102Y22323D1*
G1X67102Y22819D2*
G1X67102Y23154D1*
G1X67102Y23942D2*
G1X67102Y24377D1*
G1X67102Y25248D2*
G1X67102Y25686D1*
G1X67102Y28072D2*
G1X67102Y28553D1*
G1X67102Y29459D2*
G1X67102Y29895D1*
G1X67102Y31116D2*
G1X67102Y31676D1*
G1X67102Y31924D2*
G1X67102Y32359D1*
G1X67102Y33284D2*
G1X67102Y33722D1*
G1X67102Y36108D2*
G1X67102Y36589D1*
G1X67102Y38995D2*
G1X67102Y39431D1*
G1X67102Y41938D2*
G1X67102Y42374D1*
G1X67102Y44141D2*
G1X67102Y44577D1*
G1X67102Y45584D2*
G1X67102Y46020D1*
G1X67102Y47241D2*
G1X67102Y47801D1*
G1X67102Y48049D2*
G1X67102Y48484D1*
G1X67102Y50406D2*
G1X67102Y50842D1*
G1X67102Y52763D2*
G1X67102Y53199D1*
G1X67102Y56352D2*
G1X67102Y56788D1*
G1X67102Y58307D2*
G1X67102Y58832D1*
G1X67102Y60209D2*
G1X67102Y60645D1*
G1X67102Y61866D2*
G1X67102Y62426D1*
G1X67102Y62674D2*
G1X67102Y63109D1*
G1X67102Y312408D2*
G1X67102Y313067D1*
G1X67102Y317658D2*
G1X67102Y318317D1*
G1X67102Y321975D2*
G1X67102Y322633D1*
G1X67102Y324038D2*
G1X67102Y327942D1*
G1X67102Y328354D2*
G1X67102Y329068D1*
G1X67102Y332632D2*
G1X67102Y333346D1*
G1X67102Y333875D2*
G1X67102Y334533D1*
G1X67102Y338133D2*
G1X67102Y338792D1*
G1X67102Y340284D2*
G1X67102Y343575D1*
G1X67102Y343929D2*
G1X67102Y344643D1*
G1X67102Y348207D2*
G1X67102Y348921D1*
G1X67102Y349450D2*
G1X67102Y353675D1*
G1X67102Y354992D2*
G1X67102Y358749D1*
G1X67202Y15745D2*
G1X67202Y16181D1*
G1X67202Y17445D2*
G1X67202Y17972D1*
G1X67202Y19388D2*
G1X67202Y19824D1*
G1X67202Y20781D2*
G1X67202Y21217D1*
G1X67202Y22001D2*
G1X67202Y22355D1*
G1X67202Y22790D2*
G1X67202Y23121D1*
G1X67202Y23942D2*
G1X67202Y24377D1*
G1X67202Y25281D2*
G1X67202Y25741D1*
G1X67202Y28022D2*
G1X67202Y28520D1*
G1X67202Y29459D2*
G1X67202Y29895D1*
G1X67202Y31181D2*
G1X67202Y31740D1*
G1X67202Y31924D2*
G1X67202Y32359D1*
G1X67202Y33317D2*
G1X67202Y33777D1*
G1X67202Y36058D2*
G1X67202Y36555D1*
G1X67202Y38995D2*
G1X67202Y39431D1*
G1X67202Y41897D2*
G1X67202Y42337D1*
G1X67202Y44178D2*
G1X67202Y44618D1*
G1X67202Y45584D2*
G1X67202Y46020D1*
G1X67202Y47306D2*
G1X67202Y47865D1*
G1X67202Y48049D2*
G1X67202Y48484D1*
G1X67202Y50406D2*
G1X67202Y50842D1*
G1X67202Y52763D2*
G1X67202Y53199D1*
G1X67202Y56352D2*
G1X67202Y56788D1*
G1X67202Y58376D2*
G1X67202Y58912D1*
G1X67202Y60209D2*
G1X67202Y60645D1*
G1X67202Y61931D2*
G1X67202Y62490D1*
G1X67202Y62674D2*
G1X67202Y63109D1*
G1X67302Y15745D2*
G1X67302Y16181D1*
G1X67302Y17522D2*
G1X67302Y18048D1*
G1X67302Y19388D2*
G1X67302Y19824D1*
G1X67302Y20781D2*
G1X67302Y21217D1*
G1X67302Y22032D2*
G1X67302Y22388D1*
G1X67302Y22761D2*
G1X67302Y23088D1*
G1X67302Y23942D2*
G1X67302Y24377D1*
G1X67302Y25315D2*
G1X67302Y25797D1*
G1X67302Y27972D2*
G1X67302Y28486D1*
G1X67302Y29459D2*
G1X67302Y29895D1*
G1X67302Y31246D2*
G1X67302Y31805D1*
G1X67302Y31924D2*
G1X67302Y32359D1*
G1X67302Y33350D2*
G1X67302Y33833D1*
G1X67302Y36008D2*
G1X67302Y36522D1*
G1X67302Y38995D2*
G1X67302Y39431D1*
G1X67302Y41857D2*
G1X67302Y42301D1*
G1X67302Y44214D2*
G1X67302Y44658D1*
G1X67302Y45584D2*
G1X67302Y46020D1*
G1X67302Y47371D2*
G1X67302Y47930D1*
G1X67302Y48049D2*
G1X67302Y48484D1*
G1X67302Y50406D2*
G1X67302Y50842D1*
G1X67302Y52763D2*
G1X67302Y53199D1*
G1X67302Y56352D2*
G1X67302Y56788D1*
G1X67302Y58443D2*
G1X67302Y58979D1*
G1X67302Y60209D2*
G1X67302Y60645D1*
G1X67302Y61996D2*
G1X67302Y62555D1*
G1X67302Y62674D2*
G1X67302Y63109D1*
G1X67402Y15745D2*
G1X67402Y16181D1*
G1X67402Y17599D2*
G1X67402Y18124D1*
G1X67402Y19388D2*
G1X67402Y19824D1*
G1X67402Y20781D2*
G1X67402Y21217D1*
G1X67402Y22063D2*
G1X67402Y22421D1*
G1X67402Y22733D2*
G1X67402Y23055D1*
G1X67402Y23942D2*
G1X67402Y24377D1*
G1X67402Y25369D2*
G1X67402Y25853D1*
G1X67402Y27922D2*
G1X67402Y28451D1*
G1X67402Y29459D2*
G1X67402Y29895D1*
G1X67402Y31311D2*
G1X67402Y32359D1*
G1X67402Y33405D2*
G1X67402Y33888D1*
G1X67402Y35958D2*
G1X67402Y36486D1*
G1X67402Y38995D2*
G1X67402Y39431D1*
G1X67402Y41817D2*
G1X67402Y42265D1*
G1X67402Y44250D2*
G1X67402Y44698D1*
G1X67402Y45584D2*
G1X67402Y46020D1*
G1X67402Y47436D2*
G1X67402Y48484D1*
G1X67402Y50406D2*
G1X67402Y50842D1*
G1X67402Y52763D2*
G1X67402Y53199D1*
G1X67402Y56352D2*
G1X67402Y56788D1*
G1X67402Y58509D2*
G1X67402Y59039D1*
G1X67402Y60209D2*
G1X67402Y60645D1*
G1X67402Y62061D2*
G1X67402Y63109D1*
G1X67502Y15745D2*
G1X67502Y16181D1*
G1X67502Y17676D2*
G1X67502Y18200D1*
G1X67502Y19388D2*
G1X67502Y19824D1*
G1X67502Y20781D2*
G1X67502Y21217D1*
G1X67502Y22094D2*
G1X67502Y22456D1*
G1X67502Y22705D2*
G1X67502Y23023D1*
G1X67502Y23942D2*
G1X67502Y24377D1*
G1X67502Y25441D2*
G1X67502Y25908D1*
G1X67502Y27872D2*
G1X67502Y28365D1*
G1X67502Y29459D2*
G1X67502Y29895D1*
G1X67502Y31375D2*
G1X67502Y32359D1*
G1X67502Y33476D2*
G1X67502Y33944D1*
G1X67502Y35908D2*
G1X67502Y36401D1*
G1X67502Y38995D2*
G1X67502Y39431D1*
G1X67502Y41777D2*
G1X67502Y42228D1*
G1X67502Y44287D2*
G1X67502Y44739D1*
G1X67502Y45584D2*
G1X67502Y46020D1*
G1X67502Y47500D2*
G1X67502Y48484D1*
G1X67502Y50406D2*
G1X67502Y50842D1*
G1X67502Y52763D2*
G1X67502Y53199D1*
G1X67502Y56352D2*
G1X67502Y56788D1*
G1X67502Y58572D2*
G1X67502Y59099D1*
G1X67502Y60209D2*
G1X67502Y60645D1*
G1X67502Y62125D2*
G1X67502Y63109D1*
G1X67602Y15745D2*
G1X67602Y16181D1*
G1X67602Y17753D2*
G1X67602Y18276D1*
G1X67602Y19388D2*
G1X67602Y19824D1*
G1X67602Y20781D2*
G1X67602Y21217D1*
G1X67602Y22126D2*
G1X67602Y22506D1*
G1X67602Y22680D2*
G1X67602Y22990D1*
G1X67602Y23942D2*
G1X67602Y24377D1*
G1X67602Y25512D2*
G1X67602Y26002D1*
G1X67602Y27787D2*
G1X67602Y28279D1*
G1X67602Y29459D2*
G1X67602Y29895D1*
G1X67602Y31440D2*
G1X67602Y32359D1*
G1X67602Y33548D2*
G1X67602Y34037D1*
G1X67602Y35823D2*
G1X67602Y36315D1*
G1X67602Y38995D2*
G1X67602Y39431D1*
G1X67602Y41736D2*
G1X67602Y42192D1*
G1X67602Y44323D2*
G1X67602Y44779D1*
G1X67602Y45584D2*
G1X67602Y46020D1*
G1X67602Y47565D2*
G1X67602Y48484D1*
G1X67602Y50406D2*
G1X67602Y50842D1*
G1X67602Y52763D2*
G1X67602Y53199D1*
G1X67602Y56352D2*
G1X67602Y56788D1*
G1X67602Y58632D2*
G1X67602Y59159D1*
G1X67602Y60209D2*
G1X67602Y60645D1*
G1X67602Y62190D2*
G1X67602Y63109D1*
G1X67702Y15745D2*
G1X67702Y16181D1*
G1X67702Y17830D2*
G1X67702Y18353D1*
G1X67702Y19388D2*
G1X67702Y19824D1*
G1X67702Y20781D2*
G1X67702Y21217D1*
G1X67702Y22157D2*
G1X67702Y22556D1*
G1X67702Y22655D2*
G1X67702Y22957D1*
G1X67702Y23942D2*
G1X67702Y24377D1*
G1X67702Y25584D2*
G1X67702Y26162D1*
G1X67702Y27647D2*
G1X67702Y28194D1*
G1X67702Y29459D2*
G1X67702Y29895D1*
G1X67702Y31505D2*
G1X67702Y32359D1*
G1X67702Y33619D2*
G1X67702Y34197D1*
G1X67702Y35683D2*
G1X67702Y36229D1*
G1X67702Y38995D2*
G1X67702Y39431D1*
G1X67702Y41696D2*
G1X67702Y42156D1*
G1X67702Y44360D2*
G1X67702Y44819D1*
G1X67702Y45584D2*
G1X67702Y46020D1*
G1X67702Y47630D2*
G1X67702Y48484D1*
G1X67702Y50406D2*
G1X67702Y50842D1*
G1X67702Y52763D2*
G1X67702Y53199D1*
G1X67702Y56352D2*
G1X67702Y56788D1*
G1X67702Y58692D2*
G1X67702Y59219D1*
G1X67702Y60209D2*
G1X67702Y60645D1*
G1X67702Y62255D2*
G1X67702Y63109D1*
G1X67802Y15745D2*
G1X67802Y16181D1*
G1X67802Y17907D2*
G1X67802Y18429D1*
G1X67802Y19388D2*
G1X67802Y19824D1*
G1X67802Y20781D2*
G1X67802Y21217D1*
G1X67802Y22188D2*
G1X67802Y22924D1*
G1X67802Y23942D2*
G1X67802Y24377D1*
G1X67802Y25696D2*
G1X67802Y26322D1*
G1X67802Y27507D2*
G1X67802Y28096D1*
G1X67802Y29459D2*
G1X67802Y29895D1*
G1X67802Y31570D2*
G1X67802Y32359D1*
G1X67802Y33732D2*
G1X67802Y34357D1*
G1X67802Y35543D2*
G1X67802Y36131D1*
G1X67802Y38995D2*
G1X67802Y39431D1*
G1X67802Y41656D2*
G1X67802Y42119D1*
G1X67802Y44396D2*
G1X67802Y44859D1*
G1X67802Y45584D2*
G1X67802Y46020D1*
G1X67802Y47695D2*
G1X67802Y48484D1*
G1X67802Y50406D2*
G1X67802Y50842D1*
G1X67802Y52763D2*
G1X67802Y53199D1*
G1X67802Y56352D2*
G1X67802Y56788D1*
G1X67802Y58752D2*
G1X67802Y59279D1*
G1X67802Y60209D2*
G1X67802Y60645D1*
G1X67802Y62320D2*
G1X67802Y63109D1*
G1X67902Y15745D2*
G1X67902Y16181D1*
G1X67902Y17985D2*
G1X67902Y18505D1*
G1X67902Y19388D2*
G1X67902Y19824D1*
G1X67902Y20781D2*
G1X67902Y21217D1*
G1X67902Y22219D2*
G1X67902Y22891D1*
G1X67902Y23942D2*
G1X67902Y24377D1*
G1X67902Y25813D2*
G1X67902Y26648D1*
G1X67902Y27161D2*
G1X67902Y27979D1*
G1X67902Y29459D2*
G1X67902Y29895D1*
G1X67902Y31635D2*
G1X67902Y32359D1*
G1X67902Y33849D2*
G1X67902Y34683D1*
G1X67902Y35197D2*
G1X67902Y36015D1*
G1X67902Y38995D2*
G1X67902Y41306D1*
G1X67902Y41616D2*
G1X67902Y42083D1*
G1X67902Y44432D2*
G1X67902Y44900D1*
G1X67902Y45584D2*
G1X67902Y46020D1*
G1X67902Y47760D2*
G1X67902Y48484D1*
G1X67902Y50406D2*
G1X67902Y50842D1*
G1X67902Y52763D2*
G1X67902Y55556D1*
G1X67902Y56352D2*
G1X67902Y56788D1*
G1X67902Y58812D2*
G1X67902Y59339D1*
G1X67902Y60209D2*
G1X67902Y60645D1*
G1X67902Y62385D2*
G1X67902Y63109D1*
G1X68002Y15745D2*
G1X68002Y16181D1*
G1X68002Y18062D2*
G1X68002Y18581D1*
G1X68002Y19388D2*
G1X68002Y19824D1*
G1X68002Y20781D2*
G1X68002Y21217D1*
G1X68002Y22250D2*
G1X68002Y22859D1*
G1X68002Y23942D2*
G1X68002Y24377D1*
G1X68002Y25930D2*
G1X68002Y27862D1*
G1X68002Y29459D2*
G1X68002Y29895D1*
G1X68002Y31700D2*
G1X68002Y32359D1*
G1X68002Y33966D2*
G1X68002Y35898D1*
G1X68002Y38995D2*
G1X68002Y41306D1*
G1X68002Y41575D2*
G1X68002Y42047D1*
G1X68002Y44469D2*
G1X68002Y44940D1*
G1X68002Y45584D2*
G1X68002Y46020D1*
G1X68002Y47825D2*
G1X68002Y48484D1*
G1X68002Y50406D2*
G1X68002Y50842D1*
G1X68002Y52763D2*
G1X68002Y55556D1*
G1X68002Y56352D2*
G1X68002Y56788D1*
G1X68002Y58872D2*
G1X68002Y59399D1*
G1X68002Y60209D2*
G1X68002Y60645D1*
G1X68002Y62450D2*
G1X68002Y63109D1*
G1X68102Y15745D2*
G1X68102Y16181D1*
G1X68102Y18139D2*
G1X68102Y18657D1*
G1X68102Y19388D2*
G1X68102Y19824D1*
G1X68102Y20781D2*
G1X68102Y21217D1*
G1X68102Y22281D2*
G1X68102Y22826D1*
G1X68102Y23942D2*
G1X68102Y24377D1*
G1X68102Y26132D2*
G1X68102Y27706D1*
G1X68102Y29459D2*
G1X68102Y29895D1*
G1X68102Y31764D2*
G1X68102Y32359D1*
G1X68102Y34168D2*
G1X68102Y35742D1*
G1X68102Y38995D2*
G1X68102Y41306D1*
G1X68102Y41535D2*
G1X68102Y42010D1*
G1X68102Y44505D2*
G1X68102Y44980D1*
G1X68102Y45584D2*
G1X68102Y46020D1*
G1X68102Y47889D2*
G1X68102Y48484D1*
G1X68102Y50406D2*
G1X68102Y50842D1*
G1X68102Y52763D2*
G1X68102Y55556D1*
G1X68102Y56352D2*
G1X68102Y56788D1*
G1X68102Y58932D2*
G1X68102Y59459D1*
G1X68102Y60209D2*
G1X68102Y60645D1*
G1X68102Y62514D2*
G1X68102Y63109D1*
G1X68202Y15745D2*
G1X68202Y16181D1*
G1X68202Y18216D2*
G1X68202Y18734D1*
G1X68202Y19388D2*
G1X68202Y19824D1*
G1X68202Y20781D2*
G1X68202Y21217D1*
G1X68202Y22312D2*
G1X68202Y22793D1*
G1X68202Y23942D2*
G1X68202Y24377D1*
G1X68202Y26357D2*
G1X68202Y27439D1*
G1X68202Y29459D2*
G1X68202Y29895D1*
G1X68202Y31829D2*
G1X68202Y32359D1*
G1X68202Y34393D2*
G1X68202Y35475D1*
G1X68202Y38995D2*
G1X68202Y41306D1*
G1X68202Y41495D2*
G1X68202Y41974D1*
G1X68202Y44541D2*
G1X68202Y45021D1*
G1X68202Y45584D2*
G1X68202Y46020D1*
G1X68202Y47954D2*
G1X68202Y48484D1*
G1X68202Y50406D2*
G1X68202Y50842D1*
G1X68202Y52763D2*
G1X68202Y55556D1*
G1X68202Y56352D2*
G1X68202Y56788D1*
G1X68202Y58992D2*
G1X68202Y59519D1*
G1X68202Y60209D2*
G1X68202Y60645D1*
G1X68202Y62579D2*
G1X68202Y63109D1*
G1X68402Y324221D2*
G1X68402Y324837D1*
G1X68502Y314017D2*
G1X68502Y314542D1*
G1X68502Y316892D2*
G1X68502Y317417D1*
G1X68502Y319659D2*
G1X68502Y320337D1*
G1X68502Y323783D2*
G1X68502Y325192D1*
G1X68502Y327204D2*
G1X68502Y327729D1*
G1X68502Y329790D2*
G1X68502Y330524D1*
G1X68502Y331392D2*
G1X68502Y334542D1*
G1X68502Y335579D2*
G1X68502Y338072D1*
G1X68502Y340079D2*
G1X68502Y342979D1*
G1X68502Y345034D2*
G1X68502Y345712D1*
G1X68502Y348079D2*
G1X68502Y350572D1*
G1X68502Y352517D2*
G1X68502Y353390D1*
G1X68502Y355855D2*
G1X68502Y356729D1*
G1X68602Y314017D2*
G1X68602Y314542D1*
G1X68602Y316892D2*
G1X68602Y317417D1*
G1X68602Y319619D2*
G1X68602Y320377D1*
G1X68602Y323517D2*
G1X68602Y325352D1*
G1X68602Y327204D2*
G1X68602Y327729D1*
G1X68602Y329690D2*
G1X68602Y330424D1*
G1X68602Y331392D2*
G1X68602Y334542D1*
G1X68602Y335579D2*
G1X68602Y338406D1*
G1X68602Y340079D2*
G1X68602Y342979D1*
G1X68602Y344994D2*
G1X68602Y345752D1*
G1X68602Y348079D2*
G1X68602Y350906D1*
G1X68602Y352517D2*
G1X68602Y353421D1*
G1X68602Y355823D2*
G1X68602Y356729D1*
G1X68702Y314017D2*
G1X68702Y314542D1*
G1X68702Y316892D2*
G1X68702Y317417D1*
G1X68702Y319578D2*
G1X68702Y320417D1*
G1X68702Y323386D2*
G1X68702Y325512D1*
G1X68702Y327204D2*
G1X68702Y327729D1*
G1X68702Y329590D2*
G1X68702Y330324D1*
G1X68702Y331392D2*
G1X68702Y334542D1*
G1X68702Y335579D2*
G1X68702Y338573D1*
G1X68702Y340079D2*
G1X68702Y342979D1*
G1X68702Y344953D2*
G1X68702Y345792D1*
G1X68702Y348079D2*
G1X68702Y351073D1*
G1X68702Y352517D2*
G1X68702Y353453D1*
G1X68702Y355791D2*
G1X68702Y356729D1*
G1X68802Y314017D2*
G1X68802Y314542D1*
G1X68802Y316892D2*
G1X68802Y317417D1*
G1X68802Y319538D2*
G1X68802Y320458D1*
G1X68802Y323270D2*
G1X68802Y324221D1*
G1X68802Y324678D2*
G1X68802Y325630D1*
G1X68802Y327204D2*
G1X68802Y327729D1*
G1X68802Y329490D2*
G1X68802Y330224D1*
G1X68802Y331392D2*
G1X68802Y334542D1*
G1X68802Y335579D2*
G1X68802Y338674D1*
G1X68802Y340079D2*
G1X68802Y342979D1*
G1X68802Y344913D2*
G1X68802Y345833D1*
G1X68802Y348079D2*
G1X68802Y351174D1*
G1X68802Y352517D2*
G1X68802Y353484D1*
G1X68802Y355759D2*
G1X68802Y356729D1*
G1X68902Y314017D2*
G1X68902Y314542D1*
G1X68902Y316892D2*
G1X68902Y317417D1*
G1X68902Y319498D2*
G1X68902Y319967D1*
G1X68902Y320087D2*
G1X68902Y320498D1*
G1X68902Y323153D2*
G1X68902Y323873D1*
G1X68902Y324975D2*
G1X68902Y325730D1*
G1X68902Y327204D2*
G1X68902Y327729D1*
G1X68902Y329390D2*
G1X68902Y330124D1*
G1X68902Y331392D2*
G1X68902Y331917D1*
G1X68902Y335579D2*
G1X68902Y336104D1*
G1X68902Y337938D2*
G1X68902Y338749D1*
G1X68902Y340079D2*
G1X68902Y340604D1*
G1X68902Y344873D2*
G1X68902Y345342D1*
G1X68902Y345462D2*
G1X68902Y345873D1*
G1X68902Y348079D2*
G1X68902Y348604D1*
G1X68902Y350438D2*
G1X68902Y351249D1*
G1X68902Y352517D2*
G1X68902Y353515D1*
G1X68902Y355727D2*
G1X68902Y356729D1*
G1X69002Y314017D2*
G1X69002Y314542D1*
G1X69002Y316892D2*
G1X69002Y317417D1*
G1X69002Y319457D2*
G1X69002Y319929D1*
G1X69002Y320116D2*
G1X69002Y320538D1*
G1X69002Y323048D2*
G1X69002Y323673D1*
G1X69002Y325142D2*
G1X69002Y325830D1*
G1X69002Y327204D2*
G1X69002Y327729D1*
G1X69002Y329290D2*
G1X69002Y330024D1*
G1X69002Y331392D2*
G1X69002Y331917D1*
G1X69002Y335579D2*
G1X69002Y336104D1*
G1X69002Y338188D2*
G1X69002Y338812D1*
G1X69002Y340079D2*
G1X69002Y340604D1*
G1X69002Y344832D2*
G1X69002Y345304D1*
G1X69002Y345491D2*
G1X69002Y345913D1*
G1X69002Y348079D2*
G1X69002Y348604D1*
G1X69002Y350688D2*
G1X69002Y351312D1*
G1X69002Y352517D2*
G1X69002Y353547D1*
G1X69002Y355695D2*
G1X69002Y356729D1*
G1X69102Y314017D2*
G1X69102Y314542D1*
G1X69102Y316892D2*
G1X69102Y317417D1*
G1X69102Y319417D2*
G1X69102Y319890D1*
G1X69102Y320144D2*
G1X69102Y320578D1*
G1X69102Y322977D2*
G1X69102Y323562D1*
G1X69102Y325259D2*
G1X69102Y325927D1*
G1X69102Y327204D2*
G1X69102Y327729D1*
G1X69102Y329190D2*
G1X69102Y329924D1*
G1X69102Y331392D2*
G1X69102Y331917D1*
G1X69102Y335579D2*
G1X69102Y336104D1*
G1X69102Y338290D2*
G1X69102Y338852D1*
G1X69102Y340079D2*
G1X69102Y340604D1*
G1X69102Y344792D2*
G1X69102Y345265D1*
G1X69102Y345519D2*
G1X69102Y345953D1*
G1X69102Y348079D2*
G1X69102Y348604D1*
G1X69102Y350790D2*
G1X69102Y351352D1*
G1X69102Y352517D2*
G1X69102Y353042D1*
G1X69102Y353155D2*
G1X69102Y353578D1*
G1X69102Y355663D2*
G1X69102Y356090D1*
G1X69102Y356204D2*
G1X69102Y356729D1*
G1X69202Y314017D2*
G1X69202Y314542D1*
G1X69202Y316892D2*
G1X69202Y317417D1*
G1X69202Y319377D2*
G1X69202Y319852D1*
G1X69202Y320173D2*
G1X69202Y320619D1*
G1X69202Y322905D2*
G1X69202Y323482D1*
G1X69202Y325359D2*
G1X69202Y325972D1*
G1X69202Y327204D2*
G1X69202Y327729D1*
G1X69202Y329090D2*
G1X69202Y329824D1*
G1X69202Y331392D2*
G1X69202Y331917D1*
G1X69202Y335579D2*
G1X69202Y336104D1*
G1X69202Y338340D2*
G1X69202Y338892D1*
G1X69202Y340079D2*
G1X69202Y340604D1*
G1X69202Y344752D2*
G1X69202Y345227D1*
G1X69202Y345548D2*
G1X69202Y345994D1*
G1X69202Y348079D2*
G1X69202Y348604D1*
G1X69202Y350840D2*
G1X69202Y351392D1*
G1X69202Y352517D2*
G1X69202Y353042D1*
G1X69202Y353186D2*
G1X69202Y353610D1*
G1X69202Y355631D2*
G1X69202Y356057D1*
G1X69202Y356204D2*
G1X69202Y356729D1*
G1X69302Y314017D2*
G1X69302Y314542D1*
G1X69302Y316892D2*
G1X69302Y317417D1*
G1X69302Y319337D2*
G1X69302Y319813D1*
G1X69302Y320202D2*
G1X69302Y320659D1*
G1X69302Y322834D2*
G1X69302Y323402D1*
G1X69302Y325452D2*
G1X69302Y326016D1*
G1X69302Y327204D2*
G1X69302Y327729D1*
G1X69302Y328990D2*
G1X69302Y329724D1*
G1X69302Y331392D2*
G1X69302Y331917D1*
G1X69302Y335579D2*
G1X69302Y336104D1*
G1X69302Y338389D2*
G1X69302Y338924D1*
G1X69302Y340079D2*
G1X69302Y340604D1*
G1X69302Y344712D2*
G1X69302Y345188D1*
G1X69302Y345577D2*
G1X69302Y346034D1*
G1X69302Y348079D2*
G1X69302Y348604D1*
G1X69302Y350889D2*
G1X69302Y351424D1*
G1X69302Y352517D2*
G1X69302Y353042D1*
G1X69302Y353217D2*
G1X69302Y353641D1*
G1X69302Y355599D2*
G1X69302Y356025D1*
G1X69302Y356204D2*
G1X69302Y356729D1*
G1X69402Y314017D2*
G1X69402Y314542D1*
G1X69402Y316892D2*
G1X69402Y317417D1*
G1X69402Y319296D2*
G1X69402Y319775D1*
G1X69402Y320239D2*
G1X69402Y320699D1*
G1X69402Y322762D2*
G1X69402Y323337D1*
G1X69402Y325495D2*
G1X69402Y326061D1*
G1X69402Y327204D2*
G1X69402Y327729D1*
G1X69402Y328890D2*
G1X69402Y329624D1*
G1X69402Y331392D2*
G1X69402Y331917D1*
G1X69402Y335579D2*
G1X69402Y336104D1*
G1X69402Y338409D2*
G1X69402Y338940D1*
G1X69402Y340079D2*
G1X69402Y340604D1*
G1X69402Y344671D2*
G1X69402Y345150D1*
G1X69402Y345614D2*
G1X69402Y346074D1*
G1X69402Y348079D2*
G1X69402Y348604D1*
G1X69402Y350909D2*
G1X69402Y351440D1*
G1X69402Y352517D2*
G1X69402Y353042D1*
G1X69402Y353248D2*
G1X69402Y353672D1*
G1X69402Y355567D2*
G1X69402Y355992D1*
G1X69402Y356204D2*
G1X69402Y356729D1*
G1X69502Y314017D2*
G1X69502Y314542D1*
G1X69502Y316892D2*
G1X69502Y317417D1*
G1X69502Y319256D2*
G1X69502Y319736D1*
G1X69502Y320277D2*
G1X69502Y320740D1*
G1X69502Y322729D2*
G1X69502Y323287D1*
G1X69502Y325538D2*
G1X69502Y326105D1*
G1X69502Y327204D2*
G1X69502Y327729D1*
G1X69502Y328790D2*
G1X69502Y329524D1*
G1X69502Y331392D2*
G1X69502Y331917D1*
G1X69502Y335579D2*
G1X69502Y336104D1*
G1X69502Y338429D2*
G1X69502Y338957D1*
G1X69502Y340079D2*
G1X69502Y340604D1*
G1X69502Y344631D2*
G1X69502Y345111D1*
G1X69502Y345652D2*
G1X69502Y346115D1*
G1X69502Y348079D2*
G1X69502Y348604D1*
G1X69502Y350929D2*
G1X69502Y351457D1*
G1X69502Y352517D2*
G1X69502Y353042D1*
G1X69502Y353279D2*
G1X69502Y353704D1*
G1X69502Y355535D2*
G1X69502Y355959D1*
G1X69502Y356204D2*
G1X69502Y356729D1*
G1X69602Y314017D2*
G1X69602Y314542D1*
G1X69602Y316892D2*
G1X69602Y317417D1*
G1X69602Y319216D2*
G1X69602Y319698D1*
G1X69602Y320314D2*
G1X69602Y320780D1*
G1X69602Y322695D2*
G1X69602Y323237D1*
G1X69602Y325580D2*
G1X69602Y326101D1*
G1X69602Y327204D2*
G1X69602Y327729D1*
G1X69602Y328690D2*
G1X69602Y329424D1*
G1X69602Y331392D2*
G1X69602Y331917D1*
G1X69602Y335579D2*
G1X69602Y336104D1*
G1X69602Y338449D2*
G1X69602Y338974D1*
G1X69602Y340079D2*
G1X69602Y340604D1*
G1X69602Y344591D2*
G1X69602Y345073D1*
G1X69602Y345689D2*
G1X69602Y346155D1*
G1X69602Y348079D2*
G1X69602Y348604D1*
G1X69602Y350949D2*
G1X69602Y351474D1*
G1X69602Y352517D2*
G1X69602Y353042D1*
G1X69602Y353310D2*
G1X69602Y353735D1*
G1X69602Y355503D2*
G1X69602Y355926D1*
G1X69602Y356204D2*
G1X69602Y356729D1*
G1X69702Y314017D2*
G1X69702Y314542D1*
G1X69702Y316892D2*
G1X69702Y317417D1*
G1X69702Y319175D2*
G1X69702Y319659D1*
G1X69702Y320352D2*
G1X69702Y320820D1*
G1X69702Y322662D2*
G1X69702Y323187D1*
G1X69702Y327204D2*
G1X69702Y327729D1*
G1X69702Y328590D2*
G1X69702Y329324D1*
G1X69702Y331392D2*
G1X69702Y331917D1*
G1X69702Y335579D2*
G1X69702Y336104D1*
G1X69702Y338433D2*
G1X69702Y338968D1*
G1X69702Y340079D2*
G1X69702Y340604D1*
G1X69702Y344550D2*
G1X69702Y345034D1*
G1X69702Y345727D2*
G1X69702Y346195D1*
G1X69702Y348079D2*
G1X69702Y348604D1*
G1X69702Y350933D2*
G1X69702Y351468D1*
G1X69702Y352517D2*
G1X69702Y353042D1*
G1X69702Y353342D2*
G1X69702Y353766D1*
G1X69702Y355471D2*
G1X69702Y355893D1*
G1X69702Y356204D2*
G1X69702Y356729D1*
G1X69802Y314017D2*
G1X69802Y314542D1*
G1X69802Y316892D2*
G1X69802Y317417D1*
G1X69802Y319135D2*
G1X69802Y319621D1*
G1X69802Y320389D2*
G1X69802Y320860D1*
G1X69802Y322629D2*
G1X69802Y323159D1*
G1X69802Y327204D2*
G1X69802Y327729D1*
G1X69802Y328490D2*
G1X69802Y329224D1*
G1X69802Y331392D2*
G1X69802Y331917D1*
G1X69802Y335579D2*
G1X69802Y336104D1*
G1X69802Y338399D2*
G1X69802Y338954D1*
G1X69802Y340079D2*
G1X69802Y340604D1*
G1X69802Y344510D2*
G1X69802Y344996D1*
G1X69802Y345764D2*
G1X69802Y346235D1*
G1X69802Y348079D2*
G1X69802Y348604D1*
G1X69802Y350899D2*
G1X69802Y351454D1*
G1X69802Y352517D2*
G1X69802Y353042D1*
G1X69802Y353373D2*
G1X69802Y353798D1*
G1X69802Y355439D2*
G1X69802Y355861D1*
G1X69802Y356204D2*
G1X69802Y356729D1*
G1X69902Y314017D2*
G1X69902Y314542D1*
G1X69902Y316892D2*
G1X69902Y317417D1*
G1X69902Y319095D2*
G1X69902Y319583D1*
G1X69902Y320426D2*
G1X69902Y320901D1*
G1X69902Y322595D2*
G1X69902Y323145D1*
G1X69902Y327204D2*
G1X69902Y327729D1*
G1X69902Y328390D2*
G1X69902Y329124D1*
G1X69902Y331392D2*
G1X69902Y331917D1*
G1X69902Y335579D2*
G1X69902Y336104D1*
G1X69902Y338366D2*
G1X69902Y338940D1*
G1X69902Y340079D2*
G1X69902Y340604D1*
G1X69902Y344470D2*
G1X69902Y344958D1*
G1X69902Y345801D2*
G1X69902Y346276D1*
G1X69902Y348079D2*
G1X69902Y348604D1*
G1X69902Y350866D2*
G1X69902Y351440D1*
G1X69902Y352517D2*
G1X69902Y353042D1*
G1X69902Y353404D2*
G1X69902Y353829D1*
G1X69902Y355407D2*
G1X69902Y355828D1*
G1X69902Y356204D2*
G1X69902Y356729D1*
G1X70002Y314017D2*
G1X70002Y314542D1*
G1X70002Y316892D2*
G1X70002Y317417D1*
G1X70002Y319055D2*
G1X70002Y319545D1*
G1X70002Y320463D2*
G1X70002Y320941D1*
G1X70002Y322574D2*
G1X70002Y323131D1*
G1X70002Y327204D2*
G1X70002Y327729D1*
G1X70002Y328290D2*
G1X70002Y329024D1*
G1X70002Y331392D2*
G1X70002Y331917D1*
G1X70002Y335579D2*
G1X70002Y336104D1*
G1X70002Y338333D2*
G1X70002Y338925D1*
G1X70002Y340079D2*
G1X70002Y340604D1*
G1X70002Y344430D2*
G1X70002Y344920D1*
G1X70002Y345838D2*
G1X70002Y346316D1*
G1X70002Y348079D2*
G1X70002Y348604D1*
G1X70002Y350833D2*
G1X70002Y351425D1*
G1X70002Y352517D2*
G1X70002Y353042D1*
G1X70002Y353435D2*
G1X70002Y353861D1*
G1X70002Y355375D2*
G1X70002Y355795D1*
G1X70002Y356204D2*
G1X70002Y356729D1*
G1X70102Y314017D2*
G1X70102Y314542D1*
G1X70102Y316892D2*
G1X70102Y317417D1*
G1X70102Y319014D2*
G1X70102Y319507D1*
G1X70102Y320500D2*
G1X70102Y320981D1*
G1X70102Y322565D2*
G1X70102Y323116D1*
G1X70102Y327204D2*
G1X70102Y327729D1*
G1X70102Y328190D2*
G1X70102Y328924D1*
G1X70102Y331392D2*
G1X70102Y331917D1*
G1X70102Y335579D2*
G1X70102Y336104D1*
G1X70102Y338253D2*
G1X70102Y338875D1*
G1X70102Y340079D2*
G1X70102Y340604D1*
G1X70102Y344389D2*
G1X70102Y344882D1*
G1X70102Y345875D2*
G1X70102Y346356D1*
G1X70102Y348079D2*
G1X70102Y348604D1*
G1X70102Y350753D2*
G1X70102Y351375D1*
G1X70102Y352517D2*
G1X70102Y353042D1*
G1X70102Y353466D2*
G1X70102Y353892D1*
G1X70102Y355343D2*
G1X70102Y355762D1*
G1X70102Y356204D2*
G1X70102Y356729D1*
G1X70202Y314017D2*
G1X70202Y314542D1*
G1X70202Y316892D2*
G1X70202Y317417D1*
G1X70202Y318974D2*
G1X70202Y319469D1*
G1X70202Y320536D2*
G1X70202Y321022D1*
G1X70202Y322556D2*
G1X70202Y323102D1*
G1X70202Y327204D2*
G1X70202Y327729D1*
G1X70202Y328090D2*
G1X70202Y328824D1*
G1X70202Y331392D2*
G1X70202Y331917D1*
G1X70202Y335579D2*
G1X70202Y336104D1*
G1X70202Y338153D2*
G1X70202Y338795D1*
G1X70202Y340079D2*
G1X70202Y340604D1*
G1X70202Y344349D2*
G1X70202Y344844D1*
G1X70202Y345911D2*
G1X70202Y346397D1*
G1X70202Y348079D2*
G1X70202Y348604D1*
G1X70202Y350653D2*
G1X70202Y351295D1*
G1X70202Y352517D2*
G1X70202Y353042D1*
G1X70202Y353497D2*
G1X70202Y353923D1*
G1X70202Y355311D2*
G1X70202Y355729D1*
G1X70202Y356204D2*
G1X70202Y356729D1*
G1X70302Y314017D2*
G1X70302Y314575D1*
G1X70302Y316858D2*
G1X70302Y317417D1*
G1X70302Y318934D2*
G1X70302Y319431D1*
G1X70302Y320573D2*
G1X70302Y321062D1*
G1X70302Y322547D2*
G1X70302Y323085D1*
G1X70302Y327204D2*
G1X70302Y327729D1*
G1X70302Y327990D2*
G1X70302Y328815D1*
G1X70302Y331392D2*
G1X70302Y331917D1*
G1X70302Y335579D2*
G1X70302Y336104D1*
G1X70302Y338053D2*
G1X70302Y338715D1*
G1X70302Y340079D2*
G1X70302Y340604D1*
G1X70302Y344309D2*
G1X70302Y344806D1*
G1X70302Y345948D2*
G1X70302Y346437D1*
G1X70302Y348079D2*
G1X70302Y348604D1*
G1X70302Y350553D2*
G1X70302Y351215D1*
G1X70302Y352517D2*
G1X70302Y353042D1*
G1X70302Y353528D2*
G1X70302Y353955D1*
G1X70302Y355279D2*
G1X70302Y355697D1*
G1X70302Y356204D2*
G1X70302Y356729D1*
G1X70402Y314017D2*
G1X70402Y317417D1*
G1X70402Y318894D2*
G1X70402Y319393D1*
G1X70402Y320610D2*
G1X70402Y321102D1*
G1X70402Y322537D2*
G1X70402Y323068D1*
G1X70402Y327204D2*
G1X70402Y327729D1*
G1X70402Y327890D2*
G1X70402Y328891D1*
G1X70402Y331392D2*
G1X70402Y334354D1*
G1X70402Y335579D2*
G1X70402Y336109D1*
G1X70402Y337834D2*
G1X70402Y338612D1*
G1X70402Y340079D2*
G1X70402Y342604D1*
G1X70402Y344269D2*
G1X70402Y344768D1*
G1X70402Y345985D2*
G1X70402Y346477D1*
G1X70402Y348079D2*
G1X70402Y348609D1*
G1X70402Y350334D2*
G1X70402Y351112D1*
G1X70402Y352517D2*
G1X70402Y353042D1*
G1X70402Y353560D2*
G1X70402Y353986D1*
G1X70402Y355247D2*
G1X70402Y355664D1*
G1X70402Y356204D2*
G1X70402Y356729D1*
G1X70502Y314017D2*
G1X70502Y317417D1*
G1X70502Y318853D2*
G1X70502Y319355D1*
G1X70502Y320647D2*
G1X70502Y321142D1*
G1X70502Y322528D2*
G1X70502Y323052D1*
G1X70502Y327204D2*
G1X70502Y328967D1*
G1X70502Y331392D2*
G1X70502Y334354D1*
G1X70502Y335579D2*
G1X70502Y338492D1*
G1X70502Y340079D2*
G1X70502Y342604D1*
G1X70502Y344228D2*
G1X70502Y344730D1*
G1X70502Y346022D2*
G1X70502Y346517D1*
G1X70502Y348079D2*
G1X70502Y350992D1*
G1X70502Y352517D2*
G1X70502Y353042D1*
G1X70502Y353591D2*
G1X70502Y354017D1*
G1X70502Y355215D2*
G1X70502Y355631D1*
G1X70502Y356204D2*
G1X70502Y356729D1*
G1X70602Y314017D2*
G1X70602Y317417D1*
G1X70602Y318813D2*
G1X70602Y319317D1*
G1X70602Y320684D2*
G1X70602Y321183D1*
G1X70602Y322519D2*
G1X70602Y323045D1*
G1X70602Y327204D2*
G1X70602Y329043D1*
G1X70602Y331392D2*
G1X70602Y334354D1*
G1X70602Y335579D2*
G1X70602Y338372D1*
G1X70602Y340079D2*
G1X70602Y342604D1*
G1X70602Y344188D2*
G1X70602Y344692D1*
G1X70602Y346059D2*
G1X70602Y346558D1*
G1X70602Y348079D2*
G1X70602Y350872D1*
G1X70602Y352517D2*
G1X70602Y353042D1*
G1X70602Y353622D2*
G1X70602Y354049D1*
G1X70602Y355183D2*
G1X70602Y355598D1*
G1X70602Y356204D2*
G1X70602Y356729D1*
G1X70702Y314017D2*
G1X70702Y317417D1*
G1X70702Y318773D2*
G1X70702Y319278D1*
G1X70702Y320721D2*
G1X70702Y321223D1*
G1X70702Y322524D2*
G1X70702Y323056D1*
G1X70702Y327204D2*
G1X70702Y328324D1*
G1X70702Y328475D2*
G1X70702Y329119D1*
G1X70702Y331392D2*
G1X70702Y334354D1*
G1X70702Y335579D2*
G1X70702Y338097D1*
G1X70702Y340079D2*
G1X70702Y342604D1*
G1X70702Y344148D2*
G1X70702Y344653D1*
G1X70702Y346096D2*
G1X70702Y346598D1*
G1X70702Y348079D2*
G1X70702Y350597D1*
G1X70702Y352517D2*
G1X70702Y353042D1*
G1X70702Y353653D2*
G1X70702Y354080D1*
G1X70702Y355151D2*
G1X70702Y355566D1*
G1X70702Y356204D2*
G1X70702Y356729D1*
G1X70802Y314017D2*
G1X70802Y314542D1*
G1X70802Y316892D2*
G1X70802Y317417D1*
G1X70802Y318732D2*
G1X70802Y319240D1*
G1X70802Y320758D2*
G1X70802Y321263D1*
G1X70802Y322534D2*
G1X70802Y323067D1*
G1X70802Y327204D2*
G1X70802Y328224D1*
G1X70802Y328552D2*
G1X70802Y329195D1*
G1X70802Y331392D2*
G1X70802Y331919D1*
G1X70802Y335579D2*
G1X70802Y337794D1*
G1X70802Y340079D2*
G1X70802Y340606D1*
G1X70802Y344107D2*
G1X70802Y344615D1*
G1X70802Y346133D2*
G1X70802Y346638D1*
G1X70802Y348079D2*
G1X70802Y350294D1*
G1X70802Y352517D2*
G1X70802Y353042D1*
G1X70802Y353684D2*
G1X70802Y354111D1*
G1X70802Y355119D2*
G1X70802Y355533D1*
G1X70802Y356204D2*
G1X70802Y356729D1*
G1X70902Y314017D2*
G1X70902Y314542D1*
G1X70902Y316892D2*
G1X70902Y317417D1*
G1X70902Y318692D2*
G1X70902Y319202D1*
G1X70902Y320794D2*
G1X70902Y321303D1*
G1X70902Y322544D2*
G1X70902Y323078D1*
G1X70902Y327204D2*
G1X70902Y328124D1*
G1X70902Y328629D2*
G1X70902Y329272D1*
G1X70902Y331392D2*
G1X70902Y331917D1*
G1X70902Y335579D2*
G1X70902Y336104D1*
G1X70902Y337310D2*
G1X70902Y337867D1*
G1X70902Y340079D2*
G1X70902Y340604D1*
G1X70902Y344067D2*
G1X70902Y344577D1*
G1X70902Y346169D2*
G1X70902Y346678D1*
G1X70902Y348079D2*
G1X70902Y348604D1*
G1X70902Y349810D2*
G1X70902Y350367D1*
G1X70902Y352517D2*
G1X70902Y353042D1*
G1X70902Y353715D2*
G1X70902Y354143D1*
G1X70902Y355087D2*
G1X70902Y355500D1*
G1X70902Y356204D2*
G1X70902Y356729D1*
G1X71002Y314017D2*
G1X71002Y314542D1*
G1X71002Y316892D2*
G1X71002Y317417D1*
G1X71002Y318652D2*
G1X71002Y319167D1*
G1X71002Y320829D2*
G1X71002Y321344D1*
G1X71002Y322554D2*
G1X71002Y323090D1*
G1X71002Y327204D2*
G1X71002Y328024D1*
G1X71002Y328706D2*
G1X71002Y329348D1*
G1X71002Y331392D2*
G1X71002Y331917D1*
G1X71002Y335579D2*
G1X71002Y336104D1*
G1X71002Y337472D2*
G1X71002Y337992D1*
G1X71002Y340079D2*
G1X71002Y340604D1*
G1X71002Y344027D2*
G1X71002Y344542D1*
G1X71002Y346204D2*
G1X71002Y346719D1*
G1X71002Y348079D2*
G1X71002Y348604D1*
G1X71002Y349972D2*
G1X71002Y350492D1*
G1X71002Y352517D2*
G1X71002Y353042D1*
G1X71002Y353746D2*
G1X71002Y354174D1*
G1X71002Y355055D2*
G1X71002Y355467D1*
G1X71002Y356204D2*
G1X71002Y356729D1*
G1X71102Y314017D2*
G1X71102Y314542D1*
G1X71102Y316892D2*
G1X71102Y317417D1*
G1X71102Y318612D2*
G1X71102Y321384D1*
G1X71102Y322564D2*
G1X71102Y323101D1*
G1X71102Y327204D2*
G1X71102Y327924D1*
G1X71102Y328783D2*
G1X71102Y329424D1*
G1X71102Y331392D2*
G1X71102Y331917D1*
G1X71102Y335579D2*
G1X71102Y336104D1*
G1X71102Y337570D2*
G1X71102Y338117D1*
G1X71102Y340079D2*
G1X71102Y340604D1*
G1X71102Y343987D2*
G1X71102Y346759D1*
G1X71102Y348079D2*
G1X71102Y348604D1*
G1X71102Y350070D2*
G1X71102Y350617D1*
G1X71102Y352517D2*
G1X71102Y353042D1*
G1X71102Y353778D2*
G1X71102Y354206D1*
G1X71102Y355023D2*
G1X71102Y355434D1*
G1X71102Y356204D2*
G1X71102Y356729D1*
G1X71202Y314017D2*
G1X71202Y314542D1*
G1X71202Y316892D2*
G1X71202Y317417D1*
G1X71202Y318571D2*
G1X71202Y321424D1*
G1X71202Y322574D2*
G1X71202Y323121D1*
G1X71202Y327204D2*
G1X71202Y327824D1*
G1X71202Y328860D2*
G1X71202Y329500D1*
G1X71202Y331392D2*
G1X71202Y331917D1*
G1X71202Y335579D2*
G1X71202Y336104D1*
G1X71202Y337637D2*
G1X71202Y338218D1*
G1X71202Y340079D2*
G1X71202Y340604D1*
G1X71202Y343946D2*
G1X71202Y346799D1*
G1X71202Y348079D2*
G1X71202Y348604D1*
G1X71202Y350137D2*
G1X71202Y350718D1*
G1X71202Y352517D2*
G1X71202Y353042D1*
G1X71202Y353809D2*
G1X71202Y354237D1*
G1X71202Y354991D2*
G1X71202Y355402D1*
G1X71202Y356204D2*
G1X71202Y356729D1*
G1X71302Y314017D2*
G1X71302Y314542D1*
G1X71302Y316892D2*
G1X71302Y317417D1*
G1X71302Y318531D2*
G1X71302Y321465D1*
G1X71302Y322597D2*
G1X71302Y323146D1*
G1X71302Y327204D2*
G1X71302Y327731D1*
G1X71302Y328937D2*
G1X71302Y329576D1*
G1X71302Y331392D2*
G1X71302Y331917D1*
G1X71302Y335579D2*
G1X71302Y336104D1*
G1X71302Y337705D2*
G1X71302Y338318D1*
G1X71302Y340079D2*
G1X71302Y340604D1*
G1X71302Y343906D2*
G1X71302Y346840D1*
G1X71302Y348079D2*
G1X71302Y348604D1*
G1X71302Y350205D2*
G1X71302Y350818D1*
G1X71302Y352517D2*
G1X71302Y353042D1*
G1X71302Y353840D2*
G1X71302Y354268D1*
G1X71302Y354959D2*
G1X71302Y355369D1*
G1X71302Y356204D2*
G1X71302Y356729D1*
G1X71402Y314017D2*
G1X71402Y314542D1*
G1X71402Y316892D2*
G1X71402Y317417D1*
G1X71402Y318491D2*
G1X71402Y321505D1*
G1X71402Y322631D2*
G1X71402Y323171D1*
G1X71402Y325738D2*
G1X71402Y325884D1*
G1X71402Y327204D2*
G1X71402Y327729D1*
G1X71402Y329015D2*
G1X71402Y329653D1*
G1X71402Y331392D2*
G1X71402Y331917D1*
G1X71402Y335579D2*
G1X71402Y336104D1*
G1X71402Y337780D2*
G1X71402Y338408D1*
G1X71402Y340079D2*
G1X71402Y340604D1*
G1X71402Y343866D2*
G1X71402Y346880D1*
G1X71402Y348079D2*
G1X71402Y348604D1*
G1X71402Y350280D2*
G1X71402Y350908D1*
G1X71402Y352517D2*
G1X71402Y353042D1*
G1X71402Y353871D2*
G1X71402Y354300D1*
G1X71402Y354927D2*
G1X71402Y355336D1*
G1X71402Y356204D2*
G1X71402Y356729D1*
G1X71502Y314017D2*
G1X71502Y314542D1*
G1X71502Y316892D2*
G1X71502Y317417D1*
G1X71502Y318450D2*
G1X71502Y318977D1*
G1X71502Y321019D2*
G1X71502Y321545D1*
G1X71502Y322664D2*
G1X71502Y323196D1*
G1X71502Y325701D2*
G1X71502Y326267D1*
G1X71502Y327204D2*
G1X71502Y327729D1*
G1X71502Y329092D2*
G1X71502Y329729D1*
G1X71502Y331392D2*
G1X71502Y331917D1*
G1X71502Y335579D2*
G1X71502Y336104D1*
G1X71502Y337855D2*
G1X71502Y338488D1*
G1X71502Y340079D2*
G1X71502Y340604D1*
G1X71502Y343825D2*
G1X71502Y344352D1*
G1X71502Y346394D2*
G1X71502Y346920D1*
G1X71502Y348079D2*
G1X71502Y348604D1*
G1X71502Y350355D2*
G1X71502Y350988D1*
G1X71502Y352517D2*
G1X71502Y353042D1*
G1X71502Y353902D2*
G1X71502Y354331D1*
G1X71502Y354895D2*
G1X71502Y355303D1*
G1X71502Y356204D2*
G1X71502Y356729D1*
G1X71602Y314017D2*
G1X71602Y314542D1*
G1X71602Y316892D2*
G1X71602Y317417D1*
G1X71602Y318410D2*
G1X71602Y318941D1*
G1X71602Y321055D2*
G1X71602Y321585D1*
G1X71602Y322697D2*
G1X71602Y323221D1*
G1X71602Y325663D2*
G1X71602Y326230D1*
G1X71602Y327204D2*
G1X71602Y327729D1*
G1X71602Y329169D2*
G1X71602Y329805D1*
G1X71602Y331392D2*
G1X71602Y331917D1*
G1X71602Y335579D2*
G1X71602Y336104D1*
G1X71602Y337925D2*
G1X71602Y338568D1*
G1X71602Y340079D2*
G1X71602Y340604D1*
G1X71602Y343785D2*
G1X71602Y344316D1*
G1X71602Y346430D2*
G1X71602Y346960D1*
G1X71602Y348079D2*
G1X71602Y348604D1*
G1X71602Y350425D2*
G1X71602Y351068D1*
G1X71602Y352517D2*
G1X71602Y353042D1*
G1X71602Y353933D2*
G1X71602Y354363D1*
G1X71602Y354866D2*
G1X71602Y355270D1*
G1X71602Y356204D2*
G1X71602Y356729D1*
G1X71702Y314017D2*
G1X71702Y314542D1*
G1X71702Y316892D2*
G1X71702Y317417D1*
G1X71702Y318370D2*
G1X71702Y318904D1*
G1X71702Y321091D2*
G1X71702Y321626D1*
G1X71702Y322731D2*
G1X71702Y323264D1*
G1X71702Y325626D2*
G1X71702Y326194D1*
G1X71702Y327204D2*
G1X71702Y327729D1*
G1X71702Y329246D2*
G1X71702Y329881D1*
G1X71702Y331392D2*
G1X71702Y331917D1*
G1X71702Y335579D2*
G1X71702Y336104D1*
G1X71702Y337991D2*
G1X71702Y338639D1*
G1X71702Y340079D2*
G1X71702Y340604D1*
G1X71702Y343745D2*
G1X71702Y344279D1*
G1X71702Y346466D2*
G1X71702Y347001D1*
G1X71702Y348079D2*
G1X71702Y348604D1*
G1X71702Y350491D2*
G1X71702Y351139D1*
G1X71702Y352517D2*
G1X71702Y353042D1*
G1X71702Y353965D2*
G1X71702Y354396D1*
G1X71702Y354837D2*
G1X71702Y355238D1*
G1X71702Y356204D2*
G1X71702Y356729D1*
G1X71802Y314017D2*
G1X71802Y314542D1*
G1X71802Y316892D2*
G1X71802Y317417D1*
G1X71802Y318330D2*
G1X71802Y318868D1*
G1X71802Y321128D2*
G1X71802Y321666D1*
G1X71802Y322765D2*
G1X71802Y323324D1*
G1X71802Y325588D2*
G1X71802Y326158D1*
G1X71802Y327204D2*
G1X71802Y327729D1*
G1X71802Y329323D2*
G1X71802Y329957D1*
G1X71802Y331392D2*
G1X71802Y331917D1*
G1X71802Y335579D2*
G1X71802Y336104D1*
G1X71802Y338058D2*
G1X71802Y338699D1*
G1X71802Y340079D2*
G1X71802Y340604D1*
G1X71802Y343705D2*
G1X71802Y344243D1*
G1X71802Y346503D2*
G1X71802Y347041D1*
G1X71802Y348079D2*
G1X71802Y348604D1*
G1X71802Y350558D2*
G1X71802Y351199D1*
G1X71802Y352517D2*
G1X71802Y353042D1*
G1X71802Y353996D2*
G1X71802Y354430D1*
G1X71802Y354809D2*
G1X71802Y355205D1*
G1X71802Y356204D2*
G1X71802Y356729D1*
G1X71902Y314017D2*
G1X71902Y314542D1*
G1X71902Y316892D2*
G1X71902Y317417D1*
G1X71902Y318289D2*
G1X71902Y318831D1*
G1X71902Y321164D2*
G1X71902Y321706D1*
G1X71902Y322815D2*
G1X71902Y323384D1*
G1X71902Y325525D2*
G1X71902Y326121D1*
G1X71902Y327204D2*
G1X71902Y327729D1*
G1X71902Y329400D2*
G1X71902Y330034D1*
G1X71902Y331392D2*
G1X71902Y331917D1*
G1X71902Y335579D2*
G1X71902Y336104D1*
G1X71902Y338125D2*
G1X71902Y338759D1*
G1X71902Y340079D2*
G1X71902Y340604D1*
G1X71902Y343664D2*
G1X71902Y344206D1*
G1X71902Y346539D2*
G1X71902Y347081D1*
G1X71902Y348079D2*
G1X71902Y348604D1*
G1X71902Y350625D2*
G1X71902Y351259D1*
G1X71902Y352517D2*
G1X71902Y353042D1*
G1X71902Y354027D2*
G1X71902Y354463D1*
G1X71902Y354780D2*
G1X71902Y355172D1*
G1X71902Y356204D2*
G1X71902Y356729D1*
G1X72002Y314017D2*
G1X72002Y314542D1*
G1X72002Y316892D2*
G1X72002Y317417D1*
G1X72002Y318249D2*
G1X72002Y318795D1*
G1X72002Y321200D2*
G1X72002Y321747D1*
G1X72002Y322865D2*
G1X72002Y323450D1*
G1X72002Y325445D2*
G1X72002Y326085D1*
G1X72002Y327204D2*
G1X72002Y327729D1*
G1X72002Y329477D2*
G1X72002Y330110D1*
G1X72002Y331392D2*
G1X72002Y331917D1*
G1X72002Y335579D2*
G1X72002Y336104D1*
G1X72002Y338186D2*
G1X72002Y338819D1*
G1X72002Y340079D2*
G1X72002Y340604D1*
G1X72002Y343624D2*
G1X72002Y344170D1*
G1X72002Y346575D2*
G1X72002Y347122D1*
G1X72002Y348079D2*
G1X72002Y348604D1*
G1X72002Y350686D2*
G1X72002Y351319D1*
G1X72002Y352517D2*
G1X72002Y353042D1*
G1X72002Y354058D2*
G1X72002Y354503D1*
G1X72002Y354753D2*
G1X72002Y355139D1*
G1X72002Y356204D2*
G1X72002Y356729D1*
G1X72102Y314017D2*
G1X72102Y314542D1*
G1X72102Y316892D2*
G1X72102Y317417D1*
G1X72102Y318209D2*
G1X72102Y318759D1*
G1X72102Y321237D2*
G1X72102Y321787D1*
G1X72102Y322915D2*
G1X72102Y323530D1*
G1X72102Y325365D2*
G1X72102Y326048D1*
G1X72102Y327204D2*
G1X72102Y327729D1*
G1X72102Y329555D2*
G1X72102Y330186D1*
G1X72102Y331392D2*
G1X72102Y331917D1*
G1X72102Y335579D2*
G1X72102Y336104D1*
G1X72102Y338246D2*
G1X72102Y338879D1*
G1X72102Y340079D2*
G1X72102Y340604D1*
G1X72102Y343584D2*
G1X72102Y344134D1*
G1X72102Y346612D2*
G1X72102Y347162D1*
G1X72102Y348079D2*
G1X72102Y348604D1*
G1X72102Y350746D2*
G1X72102Y351379D1*
G1X72102Y352517D2*
G1X72102Y353042D1*
G1X72102Y354089D2*
G1X72102Y354553D1*
G1X72102Y354728D2*
G1X72102Y355106D1*
G1X72102Y356204D2*
G1X72102Y356729D1*
G1X72202Y314017D2*
G1X72202Y314542D1*
G1X72202Y316892D2*
G1X72202Y317417D1*
G1X72202Y318169D2*
G1X72202Y318722D1*
G1X72202Y321273D2*
G1X72202Y321827D1*
G1X72202Y322965D2*
G1X72202Y323610D1*
G1X72202Y325261D2*
G1X72202Y325964D1*
G1X72202Y327204D2*
G1X72202Y327729D1*
G1X72202Y329632D2*
G1X72202Y330262D1*
G1X72202Y331392D2*
G1X72202Y331917D1*
G1X72202Y335579D2*
G1X72202Y336104D1*
G1X72202Y338306D2*
G1X72202Y338939D1*
G1X72202Y340079D2*
G1X72202Y340604D1*
G1X72202Y343544D2*
G1X72202Y344097D1*
G1X72202Y346648D2*
G1X72202Y347202D1*
G1X72202Y348079D2*
G1X72202Y348604D1*
G1X72202Y350806D2*
G1X72202Y351439D1*
G1X72202Y352517D2*
G1X72202Y353042D1*
G1X72202Y354120D2*
G1X72202Y354603D1*
G1X72202Y354703D2*
G1X72202Y355074D1*
G1X72202Y356204D2*
G1X72202Y356729D1*
G1X72302Y314017D2*
G1X72302Y314542D1*
G1X72302Y316892D2*
G1X72302Y317417D1*
G1X72302Y318128D2*
G1X72302Y318686D1*
G1X72302Y321310D2*
G1X72302Y321867D1*
G1X72302Y323031D2*
G1X72302Y323700D1*
G1X72302Y325111D2*
G1X72302Y325878D1*
G1X72302Y327204D2*
G1X72302Y327729D1*
G1X72302Y329709D2*
G1X72302Y330338D1*
G1X72302Y331392D2*
G1X72302Y331917D1*
G1X72302Y335579D2*
G1X72302Y336104D1*
G1X72302Y338366D2*
G1X72302Y338999D1*
G1X72302Y340079D2*
G1X72302Y340604D1*
G1X72302Y343503D2*
G1X72302Y344061D1*
G1X72302Y346685D2*
G1X72302Y347242D1*
G1X72302Y348079D2*
G1X72302Y348604D1*
G1X72302Y350866D2*
G1X72302Y351499D1*
G1X72302Y352517D2*
G1X72302Y353042D1*
G1X72302Y354151D2*
G1X72302Y355041D1*
G1X72302Y356204D2*
G1X72302Y356729D1*
G1X72402Y314017D2*
G1X72402Y314542D1*
G1X72402Y316892D2*
G1X72402Y317417D1*
G1X72402Y318088D2*
G1X72402Y318650D1*
G1X72402Y321346D2*
G1X72402Y321908D1*
G1X72402Y323171D2*
G1X72402Y324000D1*
G1X72402Y324961D2*
G1X72402Y325792D1*
G1X72402Y327204D2*
G1X72402Y327729D1*
G1X72402Y329786D2*
G1X72402Y330415D1*
G1X72402Y331392D2*
G1X72402Y331922D1*
G1X72402Y335579D2*
G1X72402Y336104D1*
G1X72402Y338426D2*
G1X72402Y339059D1*
G1X72402Y340079D2*
G1X72402Y340604D1*
G1X72402Y343463D2*
G1X72402Y344025D1*
G1X72402Y346721D2*
G1X72402Y347283D1*
G1X72402Y348079D2*
G1X72402Y348604D1*
G1X72402Y350926D2*
G1X72402Y351559D1*
G1X72402Y352517D2*
G1X72402Y353042D1*
G1X72402Y354183D2*
G1X72402Y355008D1*
G1X72402Y356204D2*
G1X72402Y356729D1*
G1X72502Y314017D2*
G1X72502Y314542D1*
G1X72502Y316892D2*
G1X72502Y317417D1*
G1X72502Y318048D2*
G1X72502Y318613D1*
G1X72502Y321382D2*
G1X72502Y321948D1*
G1X72502Y323311D2*
G1X72502Y325707D1*
G1X72502Y327204D2*
G1X72502Y327729D1*
G1X72502Y329863D2*
G1X72502Y330491D1*
G1X72502Y331392D2*
G1X72502Y334667D1*
G1X72502Y335579D2*
G1X72502Y336104D1*
G1X72502Y338486D2*
G1X72502Y339119D1*
G1X72502Y340079D2*
G1X72502Y340604D1*
G1X72502Y343423D2*
G1X72502Y343988D1*
G1X72502Y346757D2*
G1X72502Y347323D1*
G1X72502Y348079D2*
G1X72502Y348604D1*
G1X72502Y350986D2*
G1X72502Y351619D1*
G1X72502Y352517D2*
G1X72502Y353042D1*
G1X72502Y354214D2*
G1X72502Y354975D1*
G1X72502Y356204D2*
G1X72502Y356729D1*
G1X72602Y314017D2*
G1X72602Y314542D1*
G1X72602Y316892D2*
G1X72602Y317417D1*
G1X72602Y318007D2*
G1X72602Y318577D1*
G1X72602Y321419D2*
G1X72602Y321988D1*
G1X72602Y323460D2*
G1X72602Y325551D1*
G1X72602Y327204D2*
G1X72602Y327729D1*
G1X72602Y329940D2*
G1X72602Y330567D1*
G1X72602Y331392D2*
G1X72602Y334667D1*
G1X72602Y335579D2*
G1X72602Y336104D1*
G1X72602Y338546D2*
G1X72602Y339179D1*
G1X72602Y340079D2*
G1X72602Y340604D1*
G1X72602Y343382D2*
G1X72602Y343952D1*
G1X72602Y346794D2*
G1X72602Y347363D1*
G1X72602Y348079D2*
G1X72602Y348604D1*
G1X72602Y351046D2*
G1X72602Y351679D1*
G1X72602Y352517D2*
G1X72602Y353042D1*
G1X72602Y354245D2*
G1X72602Y354943D1*
G1X72602Y356204D2*
G1X72602Y356729D1*
G1X72702Y314017D2*
G1X72702Y314542D1*
G1X72702Y316892D2*
G1X72702Y317417D1*
G1X72702Y317967D2*
G1X72702Y318541D1*
G1X72702Y321455D2*
G1X72702Y322028D1*
G1X72702Y323660D2*
G1X72702Y325371D1*
G1X72702Y327204D2*
G1X72702Y327729D1*
G1X72702Y330017D2*
G1X72702Y330643D1*
G1X72702Y331392D2*
G1X72702Y334667D1*
G1X72702Y335579D2*
G1X72702Y336104D1*
G1X72702Y338606D2*
G1X72702Y339239D1*
G1X72702Y340079D2*
G1X72702Y340604D1*
G1X72702Y343342D2*
G1X72702Y343916D1*
G1X72702Y346830D2*
G1X72702Y347403D1*
G1X72702Y348079D2*
G1X72702Y348604D1*
G1X72702Y351106D2*
G1X72702Y351739D1*
G1X72702Y352517D2*
G1X72702Y353042D1*
G1X72702Y354276D2*
G1X72702Y354910D1*
G1X72702Y356204D2*
G1X72702Y356729D1*
G1X72802Y314017D2*
G1X72802Y314542D1*
G1X72802Y316892D2*
G1X72802Y317417D1*
G1X72802Y317927D2*
G1X72802Y318504D1*
G1X72802Y321491D2*
G1X72802Y322069D1*
G1X72802Y323860D2*
G1X72802Y325191D1*
G1X72802Y327204D2*
G1X72802Y327729D1*
G1X72802Y330095D2*
G1X72802Y330719D1*
G1X72802Y331392D2*
G1X72802Y334667D1*
G1X72802Y335579D2*
G1X72802Y336104D1*
G1X72802Y338666D2*
G1X72802Y339299D1*
G1X72802Y340079D2*
G1X72802Y340604D1*
G1X72802Y343302D2*
G1X72802Y343879D1*
G1X72802Y346866D2*
G1X72802Y347444D1*
G1X72802Y348079D2*
G1X72802Y348604D1*
G1X72802Y351166D2*
G1X72802Y351799D1*
G1X72802Y352517D2*
G1X72802Y353042D1*
G1X72802Y354307D2*
G1X72802Y354877D1*
G1X72802Y356204D2*
G1X72802Y356729D1*
G1X103902Y22845D2*
G1X103902Y24674D1*
G1X103902Y27424D2*
G1X103902Y27970D1*
G1X103902Y30024D2*
G1X103902Y31852D1*
G1X103902Y33613D2*
G1X103902Y36299D1*
G1X103902Y37202D2*
G1X103902Y39073D1*
G1X103902Y42113D2*
G1X103902Y42593D1*
G1X103902Y45158D2*
G1X103902Y45639D1*
G1X103902Y47395D2*
G1X103902Y47656D1*
G1X103902Y51895D2*
G1X103902Y52156D1*
G1X104002Y22845D2*
G1X104002Y24996D1*
G1X104002Y27384D2*
G1X104002Y28010D1*
G1X104002Y30024D2*
G1X104002Y32175D1*
G1X104002Y33613D2*
G1X104002Y36299D1*
G1X104002Y37202D2*
G1X104002Y39586D1*
G1X104002Y42153D2*
G1X104002Y42632D1*
G1X104002Y45119D2*
G1X104002Y45600D1*
G1X104002Y47335D2*
G1X104002Y47656D1*
G1X104002Y51835D2*
G1X104002Y52156D1*
G1X104102Y22845D2*
G1X104102Y25254D1*
G1X104102Y27344D2*
G1X104102Y28050D1*
G1X104102Y30024D2*
G1X104102Y32432D1*
G1X104102Y33613D2*
G1X104102Y36299D1*
G1X104102Y37202D2*
G1X104102Y39753D1*
G1X104102Y42194D2*
G1X104102Y42670D1*
G1X104102Y45081D2*
G1X104102Y45561D1*
G1X104102Y47275D2*
G1X104102Y47656D1*
G1X104102Y51775D2*
G1X104102Y52156D1*
G1X104202Y22845D2*
G1X104202Y23323D1*
G1X104202Y24571D2*
G1X104202Y25354D1*
G1X104202Y27303D2*
G1X104202Y27716D1*
G1X104202Y27732D2*
G1X104202Y28090D1*
G1X104202Y30024D2*
G1X104202Y30502D1*
G1X104202Y31749D2*
G1X104202Y32532D1*
G1X104202Y33613D2*
G1X104202Y34091D1*
G1X104202Y37202D2*
G1X104202Y37680D1*
G1X104202Y38874D2*
G1X104202Y39852D1*
G1X104202Y42234D2*
G1X104202Y42709D1*
G1X104202Y45042D2*
G1X104202Y45523D1*
G1X104202Y47183D2*
G1X104202Y47656D1*
G1X104202Y51683D2*
G1X104202Y52156D1*
G1X104302Y22845D2*
G1X104302Y23281D1*
G1X104302Y24873D2*
G1X104302Y25436D1*
G1X104302Y27263D2*
G1X104302Y27651D1*
G1X104302Y27790D2*
G1X104302Y28131D1*
G1X104302Y30024D2*
G1X104302Y30459D1*
G1X104302Y32051D2*
G1X104302Y32614D1*
G1X104302Y33613D2*
G1X104302Y34049D1*
G1X104302Y37202D2*
G1X104302Y37638D1*
G1X104302Y39315D2*
G1X104302Y39927D1*
G1X104302Y42274D2*
G1X104302Y42747D1*
G1X104302Y45004D2*
G1X104302Y45484D1*
G1X104302Y47083D2*
G1X104302Y47656D1*
G1X104302Y51583D2*
G1X104302Y52156D1*
G1X104402Y22845D2*
G1X104402Y23281D1*
G1X104402Y24999D2*
G1X104402Y25511D1*
G1X104402Y27223D2*
G1X104402Y27612D1*
G1X104402Y27819D2*
G1X104402Y28171D1*
G1X104402Y30024D2*
G1X104402Y30459D1*
G1X104402Y32177D2*
G1X104402Y32689D1*
G1X104402Y33613D2*
G1X104402Y34049D1*
G1X104402Y37202D2*
G1X104402Y37638D1*
G1X104402Y39507D2*
G1X104402Y39977D1*
G1X104402Y42314D2*
G1X104402Y42786D1*
G1X104402Y44965D2*
G1X104402Y45445D1*
G1X104402Y46981D2*
G1X104402Y47656D1*
G1X104402Y51481D2*
G1X104402Y52156D1*
G1X104502Y22845D2*
G1X104502Y23281D1*
G1X104502Y25092D2*
G1X104502Y25563D1*
G1X104502Y27183D2*
G1X104502Y27574D1*
G1X104502Y27847D2*
G1X104502Y28211D1*
G1X104502Y30024D2*
G1X104502Y30459D1*
G1X104502Y32271D2*
G1X104502Y32742D1*
G1X104502Y33613D2*
G1X104502Y34049D1*
G1X104502Y37202D2*
G1X104502Y37638D1*
G1X104502Y39557D2*
G1X104502Y40017D1*
G1X104502Y42355D2*
G1X104502Y42824D1*
G1X104502Y44927D2*
G1X104502Y45406D1*
G1X104502Y46831D2*
G1X104502Y47656D1*
G1X104502Y51331D2*
G1X104502Y52156D1*
G1X104602Y22845D2*
G1X104602Y23281D1*
G1X104602Y25142D2*
G1X104602Y25603D1*
G1X104602Y27142D2*
G1X104602Y27535D1*
G1X104602Y27876D2*
G1X104602Y28251D1*
G1X104602Y30024D2*
G1X104602Y30459D1*
G1X104602Y32321D2*
G1X104602Y32782D1*
G1X104602Y33613D2*
G1X104602Y34049D1*
G1X104602Y37202D2*
G1X104602Y37638D1*
G1X104602Y39607D2*
G1X104602Y40053D1*
G1X104602Y42395D2*
G1X104602Y42863D1*
G1X104602Y44888D2*
G1X104602Y45367D1*
G1X104602Y46681D2*
G1X104602Y47656D1*
G1X104602Y51181D2*
G1X104602Y52156D1*
G1X104702Y22845D2*
G1X104702Y23281D1*
G1X104702Y25192D2*
G1X104702Y25638D1*
G1X104702Y27102D2*
G1X104702Y27497D1*
G1X104702Y27913D2*
G1X104702Y28292D1*
G1X104702Y30024D2*
G1X104702Y30459D1*
G1X104702Y32371D2*
G1X104702Y32817D1*
G1X104702Y33613D2*
G1X104702Y34049D1*
G1X104702Y37202D2*
G1X104702Y37638D1*
G1X104702Y39629D2*
G1X104702Y40070D1*
G1X104702Y42435D2*
G1X104702Y42901D1*
G1X104702Y44850D2*
G1X104702Y45328D1*
G1X104702Y46509D2*
G1X104702Y47111D1*
G1X104702Y47274D2*
G1X104702Y47656D1*
G1X104702Y51009D2*
G1X104702Y51611D1*
G1X104702Y51774D2*
G1X104702Y52156D1*
G1X104802Y22845D2*
G1X104802Y23281D1*
G1X104802Y25202D2*
G1X104802Y25638D1*
G1X104802Y27062D2*
G1X104802Y27458D1*
G1X104802Y27950D2*
G1X104802Y28332D1*
G1X104802Y30024D2*
G1X104802Y30459D1*
G1X104802Y32381D2*
G1X104802Y32817D1*
G1X104802Y33613D2*
G1X104802Y34049D1*
G1X104802Y37202D2*
G1X104802Y37638D1*
G1X104802Y39649D2*
G1X104802Y40086D1*
G1X104802Y42476D2*
G1X104802Y42940D1*
G1X104802Y44811D2*
G1X104802Y45289D1*
G1X104802Y46334D2*
G1X104802Y46978D1*
G1X104802Y47274D2*
G1X104802Y47656D1*
G1X104802Y50834D2*
G1X104802Y51478D1*
G1X104802Y51774D2*
G1X104802Y52156D1*
G1X104902Y22845D2*
G1X104902Y23281D1*
G1X104902Y25202D2*
G1X104902Y25638D1*
G1X104902Y27021D2*
G1X104902Y27420D1*
G1X104902Y27988D2*
G1X104902Y28372D1*
G1X104902Y30024D2*
G1X104902Y30459D1*
G1X104902Y32381D2*
G1X104902Y32817D1*
G1X104902Y33613D2*
G1X104902Y34049D1*
G1X104902Y37202D2*
G1X104902Y37638D1*
G1X104902Y39666D2*
G1X104902Y40101D1*
G1X104902Y42516D2*
G1X104902Y42978D1*
G1X104902Y44773D2*
G1X104902Y45250D1*
G1X104902Y46309D2*
G1X104902Y46844D1*
G1X104902Y47274D2*
G1X104902Y47656D1*
G1X104902Y50809D2*
G1X104902Y51344D1*
G1X104902Y51774D2*
G1X104902Y52156D1*
G1X105002Y22845D2*
G1X105002Y23281D1*
G1X105002Y25192D2*
G1X105002Y25631D1*
G1X105002Y26981D2*
G1X105002Y27382D1*
G1X105002Y28025D2*
G1X105002Y28413D1*
G1X105002Y30024D2*
G1X105002Y30459D1*
G1X105002Y32371D2*
G1X105002Y32809D1*
G1X105002Y33613D2*
G1X105002Y34049D1*
G1X105002Y37202D2*
G1X105002Y37638D1*
G1X105002Y39633D2*
G1X105002Y40086D1*
G1X105002Y42556D2*
G1X105002Y43016D1*
G1X105002Y44734D2*
G1X105002Y45211D1*
G1X105002Y46309D2*
G1X105002Y46682D1*
G1X105002Y47274D2*
G1X105002Y47656D1*
G1X105002Y50809D2*
G1X105002Y51182D1*
G1X105002Y51774D2*
G1X105002Y52156D1*
G1X105102Y22845D2*
G1X105102Y23281D1*
G1X105102Y25172D2*
G1X105102Y25618D1*
G1X105102Y26941D2*
G1X105102Y27344D1*
G1X105102Y28062D2*
G1X105102Y28453D1*
G1X105102Y30024D2*
G1X105102Y30459D1*
G1X105102Y32351D2*
G1X105102Y32797D1*
G1X105102Y33613D2*
G1X105102Y34049D1*
G1X105102Y37202D2*
G1X105102Y37638D1*
G1X105102Y39600D2*
G1X105102Y40072D1*
G1X105102Y42596D2*
G1X105102Y43055D1*
G1X105102Y44696D2*
G1X105102Y45173D1*
G1X105102Y46309D2*
G1X105102Y46482D1*
G1X105102Y47274D2*
G1X105102Y47656D1*
G1X105102Y50809D2*
G1X105102Y50982D1*
G1X105102Y51774D2*
G1X105102Y52156D1*
G1X105202Y22845D2*
G1X105202Y23281D1*
G1X105202Y25152D2*
G1X105202Y25606D1*
G1X105202Y26901D2*
G1X105202Y27305D1*
G1X105202Y28099D2*
G1X105202Y28493D1*
G1X105202Y30024D2*
G1X105202Y30459D1*
G1X105202Y32331D2*
G1X105202Y32784D1*
G1X105202Y33613D2*
G1X105202Y34049D1*
G1X105202Y37202D2*
G1X105202Y37638D1*
G1X105202Y39567D2*
G1X105202Y40058D1*
G1X105202Y42637D2*
G1X105202Y43093D1*
G1X105202Y44658D2*
G1X105202Y45134D1*
G1X105202Y47274D2*
G1X105202Y47656D1*
G1X105202Y51774D2*
G1X105202Y52156D1*
G1X105302Y22845D2*
G1X105302Y23281D1*
G1X105302Y25105D2*
G1X105302Y25593D1*
G1X105302Y26860D2*
G1X105302Y27267D1*
G1X105302Y28136D2*
G1X105302Y28533D1*
G1X105302Y30024D2*
G1X105302Y30459D1*
G1X105302Y32284D2*
G1X105302Y32772D1*
G1X105302Y33613D2*
G1X105302Y34049D1*
G1X105302Y37202D2*
G1X105302Y37638D1*
G1X105302Y39494D2*
G1X105302Y40008D1*
G1X105302Y42677D2*
G1X105302Y43132D1*
G1X105302Y44619D2*
G1X105302Y45095D1*
G1X105302Y47274D2*
G1X105302Y47656D1*
G1X105302Y51774D2*
G1X105302Y52156D1*
G1X105402Y22845D2*
G1X105402Y23281D1*
G1X105402Y25045D2*
G1X105402Y25555D1*
G1X105402Y26820D2*
G1X105402Y27229D1*
G1X105402Y28173D2*
G1X105402Y28574D1*
G1X105402Y30024D2*
G1X105402Y30459D1*
G1X105402Y32224D2*
G1X105402Y32733D1*
G1X105402Y33613D2*
G1X105402Y34049D1*
G1X105402Y37202D2*
G1X105402Y37638D1*
G1X105402Y39394D2*
G1X105402Y39928D1*
G1X105402Y42717D2*
G1X105402Y43170D1*
G1X105402Y44581D2*
G1X105402Y45056D1*
G1X105402Y47274D2*
G1X105402Y47656D1*
G1X105402Y51774D2*
G1X105402Y52156D1*
G1X105502Y22845D2*
G1X105502Y23281D1*
G1X105502Y24985D2*
G1X105502Y25483D1*
G1X105502Y26780D2*
G1X105502Y27191D1*
G1X105502Y28210D2*
G1X105502Y28614D1*
G1X105502Y30024D2*
G1X105502Y30459D1*
G1X105502Y32164D2*
G1X105502Y32662D1*
G1X105502Y33613D2*
G1X105502Y34052D1*
G1X105502Y37202D2*
G1X105502Y37638D1*
G1X105502Y39294D2*
G1X105502Y39848D1*
G1X105502Y42757D2*
G1X105502Y43209D1*
G1X105502Y44542D2*
G1X105502Y45017D1*
G1X105502Y47274D2*
G1X105502Y47656D1*
G1X105502Y51774D2*
G1X105502Y52156D1*
G1X105602Y22845D2*
G1X105602Y23281D1*
G1X105602Y24776D2*
G1X105602Y25412D1*
G1X105602Y26740D2*
G1X105602Y27153D1*
G1X105602Y28246D2*
G1X105602Y28654D1*
G1X105602Y30024D2*
G1X105602Y30459D1*
G1X105602Y31955D2*
G1X105602Y32590D1*
G1X105602Y33613D2*
G1X105602Y36138D1*
G1X105602Y37202D2*
G1X105602Y39728D1*
G1X105602Y42798D2*
G1X105602Y43247D1*
G1X105602Y44504D2*
G1X105602Y44978D1*
G1X105602Y47274D2*
G1X105602Y47656D1*
G1X105602Y51774D2*
G1X105602Y52156D1*
G1X105702Y22845D2*
G1X105702Y25340D1*
G1X105702Y26699D2*
G1X105702Y27115D1*
G1X105702Y28283D2*
G1X105702Y28695D1*
G1X105702Y30024D2*
G1X105702Y32519D1*
G1X105702Y33613D2*
G1X105702Y36138D1*
G1X105702Y37202D2*
G1X105702Y39608D1*
G1X105702Y42838D2*
G1X105702Y43286D1*
G1X105702Y44465D2*
G1X105702Y44939D1*
G1X105702Y47274D2*
G1X105702Y47656D1*
G1X105702Y51774D2*
G1X105702Y52156D1*
G1X105802Y22845D2*
G1X105802Y25245D1*
G1X105802Y26659D2*
G1X105802Y27077D1*
G1X105802Y28320D2*
G1X105802Y28735D1*
G1X105802Y30024D2*
G1X105802Y32424D1*
G1X105802Y33613D2*
G1X105802Y36138D1*
G1X105802Y37202D2*
G1X105802Y39369D1*
G1X105802Y42878D2*
G1X105802Y43324D1*
G1X105802Y44427D2*
G1X105802Y44900D1*
G1X105802Y47274D2*
G1X105802Y47656D1*
G1X105802Y51774D2*
G1X105802Y52156D1*
G1X105902Y22845D2*
G1X105902Y25096D1*
G1X105902Y26619D2*
G1X105902Y27039D1*
G1X105902Y28357D2*
G1X105902Y28775D1*
G1X105902Y30024D2*
G1X105902Y32275D1*
G1X105902Y33613D2*
G1X105902Y34050D1*
G1X105902Y37202D2*
G1X105902Y39085D1*
G1X105902Y42919D2*
G1X105902Y43363D1*
G1X105902Y44388D2*
G1X105902Y44861D1*
G1X105902Y47274D2*
G1X105902Y47656D1*
G1X105902Y51774D2*
G1X105902Y52156D1*
G1X106002Y22845D2*
G1X106002Y24769D1*
G1X106002Y26578D2*
G1X106002Y27001D1*
G1X106002Y28394D2*
G1X106002Y28815D1*
G1X106002Y30024D2*
G1X106002Y31948D1*
G1X106002Y33613D2*
G1X106002Y34049D1*
G1X106002Y37202D2*
G1X106002Y37638D1*
G1X106002Y38730D2*
G1X106002Y39167D1*
G1X106002Y42959D2*
G1X106002Y43401D1*
G1X106002Y44350D2*
G1X106002Y44823D1*
G1X106002Y47274D2*
G1X106002Y47656D1*
G1X106002Y51774D2*
G1X106002Y52156D1*
G1X106102Y22845D2*
G1X106102Y23281D1*
G1X106102Y26538D2*
G1X106102Y26987D1*
G1X106102Y28407D2*
G1X106102Y28856D1*
G1X106102Y30024D2*
G1X106102Y30459D1*
G1X106102Y33613D2*
G1X106102Y34049D1*
G1X106102Y37202D2*
G1X106102Y37638D1*
G1X106102Y38859D2*
G1X106102Y39292D1*
G1X106102Y42999D2*
G1X106102Y43440D1*
G1X106102Y44311D2*
G1X106102Y44784D1*
G1X106102Y47274D2*
G1X106102Y47656D1*
G1X106102Y51774D2*
G1X106102Y52156D1*
G1X106202Y22845D2*
G1X106202Y23281D1*
G1X106202Y26498D2*
G1X106202Y28896D1*
G1X106202Y30024D2*
G1X106202Y30459D1*
G1X106202Y33613D2*
G1X106202Y34049D1*
G1X106202Y37202D2*
G1X106202Y37638D1*
G1X106202Y38941D2*
G1X106202Y39407D1*
G1X106202Y43039D2*
G1X106202Y43478D1*
G1X106202Y44273D2*
G1X106202Y44745D1*
G1X106202Y47274D2*
G1X106202Y47656D1*
G1X106202Y51774D2*
G1X106202Y52156D1*
G1X106302Y22845D2*
G1X106302Y23281D1*
G1X106302Y26458D2*
G1X106302Y28936D1*
G1X106302Y30024D2*
G1X106302Y30459D1*
G1X106302Y33613D2*
G1X106302Y34049D1*
G1X106302Y37202D2*
G1X106302Y37638D1*
G1X106302Y39008D2*
G1X106302Y39507D1*
G1X106302Y43080D2*
G1X106302Y43516D1*
G1X106302Y44234D2*
G1X106302Y44706D1*
G1X106302Y47274D2*
G1X106302Y47656D1*
G1X106302Y51774D2*
G1X106302Y52156D1*
G1X106402Y22845D2*
G1X106402Y23281D1*
G1X106402Y26417D2*
G1X106402Y28976D1*
G1X106402Y30024D2*
G1X106402Y30459D1*
G1X106402Y33613D2*
G1X106402Y34049D1*
G1X106402Y37202D2*
G1X106402Y37638D1*
G1X106402Y39082D2*
G1X106402Y39602D1*
G1X106402Y43120D2*
G1X106402Y43555D1*
G1X106402Y44196D2*
G1X106402Y44667D1*
G1X106402Y47274D2*
G1X106402Y47656D1*
G1X106402Y51774D2*
G1X106402Y52156D1*
G1X106502Y22845D2*
G1X106502Y23281D1*
G1X106502Y26377D2*
G1X106502Y26813D1*
G1X106502Y28581D2*
G1X106502Y29017D1*
G1X106502Y30024D2*
G1X106502Y30459D1*
G1X106502Y33613D2*
G1X106502Y34049D1*
G1X106502Y37202D2*
G1X106502Y37638D1*
G1X106502Y39157D2*
G1X106502Y39682D1*
G1X106502Y43160D2*
G1X106502Y43593D1*
G1X106502Y44158D2*
G1X106502Y44628D1*
G1X106502Y47274D2*
G1X106502Y47656D1*
G1X106502Y51774D2*
G1X106502Y52156D1*
G1X106602Y22845D2*
G1X106602Y23281D1*
G1X106602Y26337D2*
G1X106602Y26777D1*
G1X106602Y28617D2*
G1X106602Y29057D1*
G1X106602Y30024D2*
G1X106602Y30459D1*
G1X106602Y33613D2*
G1X106602Y34049D1*
G1X106602Y37202D2*
G1X106602Y37638D1*
G1X106602Y39226D2*
G1X106602Y39762D1*
G1X106602Y43201D2*
G1X106602Y43632D1*
G1X106602Y44119D2*
G1X106602Y44589D1*
G1X106602Y47274D2*
G1X106602Y47656D1*
G1X106602Y51774D2*
G1X106602Y52156D1*
G1X106702Y22845D2*
G1X106702Y23281D1*
G1X106702Y26296D2*
G1X106702Y26740D1*
G1X106702Y28653D2*
G1X106702Y29097D1*
G1X106702Y30024D2*
G1X106702Y30459D1*
G1X106702Y33613D2*
G1X106702Y34049D1*
G1X106702Y37202D2*
G1X106702Y37638D1*
G1X106702Y39293D2*
G1X106702Y39829D1*
G1X106702Y43241D2*
G1X106702Y43666D1*
G1X106702Y44091D2*
G1X106702Y44550D1*
G1X106702Y47274D2*
G1X106702Y47656D1*
G1X106702Y51774D2*
G1X106702Y52156D1*
G1X106802Y22845D2*
G1X106802Y23281D1*
G1X106802Y26256D2*
G1X106802Y26704D1*
G1X106802Y28690D2*
G1X106802Y29138D1*
G1X106802Y30024D2*
G1X106802Y30459D1*
G1X106802Y33613D2*
G1X106802Y34049D1*
G1X106802Y37202D2*
G1X106802Y37638D1*
G1X106802Y39359D2*
G1X106802Y39889D1*
G1X106802Y43281D2*
G1X106802Y43700D1*
G1X106802Y44066D2*
G1X106802Y44511D1*
G1X106802Y47274D2*
G1X106802Y47656D1*
G1X106802Y51774D2*
G1X106802Y52156D1*
G1X106902Y22845D2*
G1X106902Y23281D1*
G1X106902Y26216D2*
G1X106902Y26668D1*
G1X106902Y28726D2*
G1X106902Y29178D1*
G1X106902Y30024D2*
G1X106902Y30459D1*
G1X106902Y33613D2*
G1X106902Y34049D1*
G1X106902Y37202D2*
G1X106902Y37638D1*
G1X106902Y39422D2*
G1X106902Y39949D1*
G1X106902Y43321D2*
G1X106902Y43733D1*
G1X106902Y44041D2*
G1X106902Y44473D1*
G1X106902Y47274D2*
G1X106902Y47656D1*
G1X106902Y51774D2*
G1X106902Y52156D1*
G1X107002Y22845D2*
G1X107002Y23281D1*
G1X107002Y26176D2*
G1X107002Y26631D1*
G1X107002Y28762D2*
G1X107002Y29218D1*
G1X107002Y30024D2*
G1X107002Y30459D1*
G1X107002Y33613D2*
G1X107002Y34049D1*
G1X107002Y37202D2*
G1X107002Y37638D1*
G1X107002Y39482D2*
G1X107002Y40009D1*
G1X107002Y43362D2*
G1X107002Y43766D1*
G1X107002Y44016D2*
G1X107002Y44434D1*
G1X107002Y47274D2*
G1X107002Y47656D1*
G1X107002Y51774D2*
G1X107002Y52156D1*
G1X107102Y22845D2*
G1X107102Y23281D1*
G1X107102Y26135D2*
G1X107102Y26595D1*
G1X107102Y28799D2*
G1X107102Y29258D1*
G1X107102Y30024D2*
G1X107102Y30459D1*
G1X107102Y33613D2*
G1X107102Y34049D1*
G1X107102Y37202D2*
G1X107102Y37638D1*
G1X107102Y39542D2*
G1X107102Y40069D1*
G1X107102Y43402D2*
G1X107102Y43800D1*
G1X107102Y43991D2*
G1X107102Y44395D1*
G1X107102Y47274D2*
G1X107102Y47656D1*
G1X107102Y51774D2*
G1X107102Y52156D1*
G1X107202Y22845D2*
G1X107202Y23281D1*
G1X107202Y26095D2*
G1X107202Y26559D1*
G1X107202Y28835D2*
G1X107202Y29299D1*
G1X107202Y30024D2*
G1X107202Y30459D1*
G1X107202Y33613D2*
G1X107202Y34049D1*
G1X107202Y37202D2*
G1X107202Y37638D1*
G1X107202Y39602D2*
G1X107202Y40129D1*
G1X107202Y43442D2*
G1X107202Y43833D1*
G1X107202Y43966D2*
G1X107202Y44356D1*
G1X107202Y47274D2*
G1X107202Y47656D1*
G1X107202Y51774D2*
G1X107202Y52156D1*
G1X107302Y22845D2*
G1X107302Y23281D1*
G1X107302Y26055D2*
G1X107302Y26522D1*
G1X107302Y28872D2*
G1X107302Y29339D1*
G1X107302Y30024D2*
G1X107302Y30459D1*
G1X107302Y33613D2*
G1X107302Y36406D1*
G1X107302Y37202D2*
G1X107302Y37638D1*
G1X107302Y39662D2*
G1X107302Y40189D1*
G1X107302Y43482D2*
G1X107302Y44317D1*
G1X107302Y47274D2*
G1X107302Y47656D1*
G1X107302Y49202D2*
G1X107302Y49584D1*
G1X107302Y51774D2*
G1X107302Y52156D1*
G1X107402Y22845D2*
G1X107402Y23281D1*
G1X107402Y26015D2*
G1X107402Y26486D1*
G1X107402Y28908D2*
G1X107402Y29379D1*
G1X107402Y30024D2*
G1X107402Y30459D1*
G1X107402Y33613D2*
G1X107402Y36406D1*
G1X107402Y37202D2*
G1X107402Y37638D1*
G1X107402Y39722D2*
G1X107402Y40249D1*
G1X107402Y43523D2*
G1X107402Y44278D1*
G1X107402Y47274D2*
G1X107402Y47656D1*
G1X107402Y49202D2*
G1X107402Y49584D1*
G1X107402Y51774D2*
G1X107402Y52156D1*
G1X107502Y22845D2*
G1X107502Y23281D1*
G1X107502Y25974D2*
G1X107502Y26449D1*
G1X107502Y28944D2*
G1X107502Y29420D1*
G1X107502Y30024D2*
G1X107502Y30459D1*
G1X107502Y33613D2*
G1X107502Y36406D1*
G1X107502Y37202D2*
G1X107502Y37638D1*
G1X107502Y39782D2*
G1X107502Y40309D1*
G1X107502Y43563D2*
G1X107502Y44239D1*
G1X107502Y47274D2*
G1X107502Y47656D1*
G1X107502Y49202D2*
G1X107502Y49584D1*
G1X107502Y51774D2*
G1X107502Y52156D1*
G1X107602Y22845D2*
G1X107602Y23281D1*
G1X107602Y25934D2*
G1X107602Y26413D1*
G1X107602Y28981D2*
G1X107602Y29460D1*
G1X107602Y30024D2*
G1X107602Y30459D1*
G1X107602Y33613D2*
G1X107602Y36406D1*
G1X107602Y37202D2*
G1X107602Y37638D1*
G1X107602Y39842D2*
G1X107602Y40369D1*
G1X107602Y43603D2*
G1X107602Y44200D1*
G1X107602Y47274D2*
G1X107602Y47656D1*
G1X107602Y49202D2*
G1X107602Y49584D1*
G1X107602Y51774D2*
G1X107602Y52156D1*
G1X100056Y104665D2*
G54D11*
G1X100056Y79468D1*
G1X109504Y79468D1*
G1X109504Y104665D1*
G1X100056Y104665D1*
G1X104780Y107815D2*
G1X104780Y104665D1*
G1X104780Y76319D2*
G1X104780Y79468D1*
G1X89624Y115122D2*
G1X87262Y112759D1*
G1X87262Y94452D1*
G1X89624Y92090D1*
G1X95817Y91622D2*
G75*
G3X95817Y115244I-20458J11811D1*
G1X103587Y38167D2*
G3X103587Y38167I-17607J0D1*
G1X92969Y369599D2*
G54D27*
G3X92969Y369599I-492J0D1*
G74*
G1X56548Y97206D2*
G54D37*
G1X64422Y97206D1*
G1X64422Y86182D1*
G1X56548Y86182D1*
G1X56548Y97206D1*
G1X52480Y302967D2*
G54D38*
G1X52480Y312967D1*
G1X47480Y307967D2*
G1X57480Y307967D1*
G1X95980Y62276D2*
G1X95980Y58667D1*
G1X95980Y62276D2*
G1X96855Y62276D1*
G1X97230Y62104D1*
G1X97480Y61760D1*
G1X97605Y61417D1*
G1X97730Y60901D1*
G1X97730Y60042D1*
G1X97605Y59526D1*
G1X97480Y59182D1*
G1X97230Y58838D1*
G1X96855Y58667D1*
G1X95980Y58667D1*
G1X98855Y61588D2*
G1X99105Y61760D1*
G1X99480Y62276D1*
G1X99480Y58667D1*
G1X102722Y366622D2*
G54D40*
G1X102722Y344181D1*
G1X73195Y344181D1*
G1X73195Y366622D1*
G1X102722Y366622D1*
G1X97880Y366067D2*
G1X97880Y364067D1*
G1X77880Y364067D1*
G1X77880Y366067D1*
G1X91080Y66767D2*
G1X86780Y66767D1*
G1X88880Y64567D2*
G1X88880Y68967D1*
G1X83680Y11167D2*
G1X79380Y11167D1*
G1X64422Y118938D2*
G1X82138Y118938D1*
G1X82138Y75395D1*
G1X64422Y75395D1*
G1X64422Y118938D1*
G1X62180Y120167D2*
G1X109424Y120167D1*
G1X109424Y317017D1*
G1X62180Y317017D1*
G1X62180Y120167D1*
G1X64680Y310167D2*
G1X77180Y310167D1*
G1X77180Y315167D1*
G1X94680Y315167D1*
G1X94680Y310167D1*
G1X107180Y310167D1*
G1X64680Y310167D2*
G1X64680Y122667D1*
G1X107180Y122667D1*
G1X107180Y310167D1*
M2*
